<svg width="1440" height="1486" viewBox="0 0 1440 1486" fill="none" xmlns="http://www.w3.org/2000/svg">
<g clip-path="url(#clip0_4_288)">
<ellipse cx="865" cy="725" rx="477" ry="477" fill="url(#paint0_radial_4_288)" fill-opacity="0.6"/>
<ellipse cx="1205" cy="691" rx="434" ry="434" fill="url(#paint1_radial_4_288)"/>
<path fill-rule="evenodd" clip-rule="evenodd" d="M1142.99 529.322L1272.02 418.812C1272.03 418.805 1272.04 418.799 1272.04 418.794C1272.05 418.791 1272.05 418.788 1272.05 418.786L1300.85 395.066L1300.86 395.04C1300.9 394.897 1301.06 394.813 1301.2 394.856L1301.22 394.862L1301.23 394.864L1301.24 394.871L1301.25 394.875L1371.23 385.882C1371.27 385.86 1371.31 385.842 1371.35 385.838C1371.39 385.84 1371.43 385.85 1371.47 385.866L1502.42 403.644L1502.52 403.672L1502.53 403.674L1502.54 403.679L1556.18 426.278C1556.25 426.301 1556.31 426.36 1556.34 426.436C1556.4 426.518 1556.41 426.634 1556.38 426.727L1516.83 528.049C1516.83 528.069 1516.83 528.09 1516.83 528.11L1523.7 626.606L1588.1 734.926L1588.15 735.019L1606.98 798.573C1606.98 798.573 1606.98 798.592 1606.98 798.62C1606.98 798.634 1606.98 798.65 1606.98 798.668C1606.97 798.718 1606.97 798.779 1606.95 798.825C1606.95 798.849 1606.93 798.871 1606.91 798.89C1606.9 798.902 1606.88 798.913 1606.87 798.923C1606.83 798.944 1606.79 798.961 1606.76 798.973L1538 815.444L1420.86 950.392C1420.84 950.425 1420.82 950.454 1420.8 950.471C1420.73 950.528 1420.62 950.548 1420.53 950.519L1420.52 950.543C1420.5 950.536 1420.48 950.526 1420.46 950.514C1420.45 950.507 1420.44 950.5 1420.43 950.492L1321.06 923.307L1321.06 923.306L1321.05 923.329C1321.05 923.329 1321.03 923.316 1321 923.294C1320.97 923.277 1320.94 923.255 1320.92 923.23C1320.88 923.194 1320.85 923.152 1320.83 923.108C1320.83 923.087 1320.82 923.067 1320.82 923.047C1320.82 923.038 1320.82 923.03 1320.82 923.022C1320.82 923.013 1320.82 923.005 1320.82 922.997L1311.97 872.61L1297.5 957.592C1297.52 957.657 1297.55 957.757 1297.53 957.831C1297.51 957.896 1297.48 957.943 1297.44 957.979C1297.42 957.992 1297.41 958.003 1297.39 958.014C1297.36 958.027 1297.34 958.039 1297.31 958.05L1208.99 981.486C1208.98 981.493 1208.97 981.5 1208.97 981.507C1208.95 981.516 1208.94 981.524 1208.93 981.529C1208.86 981.563 1208.79 981.565 1208.71 981.544L1208.7 981.513C1208.7 981.513 1208.6 981.484 1208.59 981.454L1120.35 902.431L1089.37 906.156L1030.43 1033.42C1030.43 1033.43 1030.43 1033.43 1030.42 1033.44C1030.39 1033.53 1030.32 1033.61 1030.21 1033.63L877.943 1080.39C877.933 1080.4 877.921 1080.41 877.909 1080.42C877.905 1080.43 877.901 1080.43 877.898 1080.43L877.887 1080.44L877.88 1080.44L877.873 1080.45L877.867 1080.45L877.862 1080.46C877.845 1080.47 877.827 1080.48 877.809 1080.48L830.759 1091.03C830.759 1091.03 830.717 1091.04 830.673 1091.04C830.667 1091.04 830.661 1091.04 830.654 1091.04L830.643 1091.04L830.633 1091.04L830.628 1091.04C830.624 1091.04 830.619 1091.04 830.615 1091.04C830.611 1091.04 830.606 1091.04 830.602 1091.04L830.586 1091C830.586 1091 830.581 1091 830.572 1091L830.557 1090.99C830.552 1090.99 830.546 1090.99 830.539 1090.99C830.527 1090.98 830.514 1090.98 830.5 1090.97C830.473 1090.95 830.446 1090.93 830.433 1090.91C830.425 1090.9 830.417 1090.88 830.41 1090.87C830.407 1090.87 830.404 1090.86 830.401 1090.85L830.395 1090.84C830.393 1090.84 830.391 1090.83 830.389 1090.82C830.374 1090.79 830.366 1090.75 830.364 1090.71L827.888 975.892L764.723 1084.22C764.72 1084.23 764.716 1084.23 764.713 1084.24C764.709 1084.25 764.705 1084.26 764.701 1084.27C764.675 1084.31 764.641 1084.34 764.602 1084.36C764.563 1084.38 764.521 1084.39 764.478 1084.41L662.669 1092.96L662.55 1092.93C662.55 1092.93 662.53 1092.92 662.504 1092.91C662.465 1092.89 662.413 1092.86 662.389 1092.82C662.352 1092.77 662.327 1092.72 662.321 1092.65L654.637 1010.45L570.537 1095.5C570.537 1095.5 570.345 1095.62 570.226 1095.58L570.205 1095.55L468.904 1145.86L468.885 1145.88C468.885 1145.88 468.74 1146.02 468.637 1146.02L468.564 1146C468.554 1145.99 468.508 1145.98 468.468 1145.95C468.449 1145.94 468.432 1145.93 468.42 1145.91C468.416 1145.9 468.412 1145.9 468.408 1145.89C468.388 1145.87 468.371 1145.84 468.36 1145.81L432.018 1094.09L384.472 1165.61C384.471 1165.62 384.47 1165.63 384.468 1165.64C384.465 1165.65 384.461 1165.66 384.455 1165.67C384.396 1165.78 384.283 1165.82 384.183 1165.82L384.176 1165.82L384.094 1165.82L384.098 1165.82C384.098 1165.82 384.09 1165.82 384.077 1165.82L264.458 1160.02C264.443 1160.02 264.427 1160.03 264.412 1160.03C264.399 1160.03 264.387 1160.04 264.374 1160.04C264.336 1160.04 264.297 1160.04 264.261 1160.03L264.269 1160.01L264.221 1159.99C264.107 1159.94 264.03 1159.82 264.052 1159.69C264.054 1159.66 264.059 1159.63 264.068 1159.6C264.071 1159.59 264.075 1159.58 264.08 1159.57C264.082 1159.57 264.084 1159.57 264.086 1159.56L264.09 1159.55L264.097 1159.54L264.101 1159.53L276.435 1122.34L172.851 1126.59C172.843 1126.59 172.835 1126.6 172.826 1126.6C172.821 1126.61 172.816 1126.61 172.81 1126.61C172.776 1126.63 172.736 1126.64 172.695 1126.65L89.2566 1141.92C89.2452 1141.92 89.2337 1141.93 89.2223 1141.93L89.221 1141.93L89.1676 1141.94C89.1676 1141.94 89.1541 1141.94 89.1347 1141.93C89.1206 1141.93 89.1034 1141.93 89.0859 1141.93C89.061 1141.93 89.0355 1141.92 89.0177 1141.92L89.0701 1141.91C89.0607 1141.9 89.0231 1141.89 88.987 1141.87C88.9597 1141.86 88.9332 1141.84 88.92 1141.81C88.8897 1141.78 88.8691 1141.75 88.8566 1141.71L38.9824 1063.27C38.9824 1063.27 38.9298 1063.1 38.9583 1063C38.9867 1062.91 39.0556 1062.85 39.1483 1062.8L130.726 1029.49C130.726 1029.49 130.731 1029.49 130.741 1029.48C130.748 1029.48 130.756 1029.48 130.766 1029.47C130.787 1029.47 130.813 1029.46 130.835 1029.47C130.857 1029.47 130.878 1029.47 130.898 1029.48C130.926 1029.49 130.952 1029.5 130.978 1029.51L252.136 1042L326.583 1005.21C326.583 1005.21 326.598 1005.21 326.622 1005.21C326.638 1005.2 326.655 1005.2 326.672 1005.2C326.687 1005.2 326.702 1005.2 326.717 1005.2L426.812 1004.73L545.25 939.865L545.255 939.862L545.265 939.859L545.284 939.853C545.298 939.843 545.312 939.835 545.327 939.828C545.338 939.823 545.35 939.818 545.363 939.814C545.459 939.774 545.577 939.776 545.661 939.828L632.394 962.263L703.764 902.567L703.771 902.564L703.784 902.557C703.789 902.553 703.794 902.549 703.799 902.546C703.804 902.543 703.808 902.541 703.813 902.539C703.901 902.478 704.021 902.468 704.092 902.51L751.234 919.873L858.008 876.184L868.519 800.397L745.178 810.398L714.504 837.343C714.465 837.427 714.353 837.484 714.258 837.479L612.256 842.836L539.471 893.607C539.42 893.712 539.324 893.758 539.218 893.754C539.172 893.761 539.125 893.764 539.066 893.747L539.097 893.73L539.002 893.702L538.996 893.697L429.713 858.038L321.387 897.288L263.856 937.343L263.832 937.379C263.832 937.379 263.812 937.394 263.782 937.413L263.777 937.419L263.773 937.424L263.771 937.426L263.763 937.435C263.758 937.44 263.754 937.444 263.75 937.448L263.745 937.453L263.738 937.458C263.724 937.471 263.708 937.482 263.691 937.491L263.686 937.494C263.678 937.497 263.671 937.501 263.663 937.504C263.653 937.508 263.643 937.512 263.632 937.515C263.625 937.517 263.617 937.518 263.609 937.52L163.726 959.328C163.726 959.328 163.716 959.33 163.701 959.332L57.043 1008.16C57.043 1008.16 56.9028 1008.2 56.8314 1008.18L56.8076 1008.17C56.8076 1008.17 56.6886 1008.13 56.6552 1008.07C56.6273 1008.04 56.607 1008.01 56.5948 1007.97C56.5926 1007.96 56.5907 1007.96 56.589 1007.95C56.5876 1007.94 56.5863 1007.94 56.5853 1007.93L56.5834 1007.92L13.167 887.512C13.1209 887.453 13.0983 887.376 13.1087 887.294L19.8976 783.531L-75.1875 834.802C-75.1875 834.802 -75.3587 834.854 -75.4301 834.833L-75.4159 834.786C-75.4159 834.786 -75.5348 834.75 -75.5682 834.688C-75.5921 834.662 -75.6099 834.632 -75.6218 834.599L-107.955 783.546C-107.955 783.546 -108.007 783.375 -107.986 783.303C-107.957 783.208 -107.912 783.144 -107.827 783.117L28.5044 713.795C28.5044 713.795 28.6898 713.695 28.7849 713.723C28.8872 713.728 28.9849 713.834 29.0041 713.944L29.0016 713.963L28.9979 713.99L28.9992 714.011L29.0004 714.028C29.0022 714.051 29.005 714.078 29.009 714.101L20.7086 781.803L80.4171 698.938C80.4698 698.79 80.5767 698.685 80.7342 698.703C80.7652 698.701 80.7947 698.705 80.8231 698.712L197.435 710.608L197.446 710.612C197.452 710.613 197.459 710.616 197.468 710.62C197.487 710.62 197.506 710.622 197.524 710.626C197.543 710.631 197.562 710.639 197.578 710.651C197.714 710.717 197.774 710.865 197.731 711.007C197.726 711.024 197.721 711.041 197.715 711.057L197.71 711.072C197.705 711.087 197.699 711.101 197.692 711.114C197.676 711.143 197.656 711.168 197.626 711.184L167.998 743.037L283.724 730.461L343.9 647.707C343.9 647.707 343.926 647.679 343.964 647.646C343.999 647.604 344.046 647.575 344.099 647.559L453.44 611.001L453.445 611L453.457 610.998C453.478 610.995 453.516 610.991 453.556 610.992C453.58 610.992 453.605 610.994 453.627 611C453.631 611.001 453.635 611.002 453.638 611.003L453.643 611.005L453.649 611.007C453.654 611.009 453.658 611.011 453.662 611.013L453.668 611.017C453.739 611.038 453.789 611.131 453.823 611.193C453.846 611.235 453.851 611.297 453.837 611.353L464.525 686.455L559.253 669.173L622.704 551.849L622.707 551.837C622.711 551.812 622.716 551.788 622.723 551.767C622.725 551.761 622.727 551.755 622.729 551.749C622.732 551.742 622.736 551.736 622.739 551.73C622.815 551.649 622.908 551.598 623.034 551.61L677.097 559.666C677.202 559.697 677.304 559.784 677.343 559.887L725.167 630.018L785.758 526.249C785.821 526.151 785.915 526.094 786.014 526.092C786.024 526.091 786.034 526.09 786.044 526.089C786.059 526.089 786.075 526.088 786.091 526.089L907.077 543.345L960.003 479.647C960.008 479.632 960.013 479.618 960.021 479.605C960.023 479.596 960.027 479.588 960.032 479.579C960.035 479.575 960.038 479.57 960.041 479.566L960.045 479.561L960.048 479.557L960.052 479.552C960.066 479.537 960.082 479.524 960.101 479.512C960.108 479.504 960.116 479.497 960.124 479.491C960.128 479.488 960.132 479.485 960.136 479.482C960.146 479.476 960.156 479.471 960.166 479.467L960.172 479.465L960.178 479.462L960.186 479.46C960.192 479.458 960.199 479.456 960.205 479.454C960.216 479.451 960.228 479.448 960.239 479.447L960.249 479.445L960.261 479.444L960.272 479.443L960.279 479.442L960.289 479.442L1045.92 460.283C1045.92 460.283 1046.09 460.23 1046.15 460.275C1046.27 460.311 1046.36 460.466 1046.34 460.592L1073 548.75L1142.9 529.366C1142.93 529.35 1142.96 529.333 1142.99 529.322ZM1309.83 501.685L1300.94 396.57L1254.53 514.304L1309.83 501.685ZM322.21 1075.31L277.792 1120.63L326.285 1007.26L322.21 1075.31ZM323.368 1075.24L426.601 1005.6L431.656 1093.17L323.368 1075.24ZM565.656 1014.53L433.156 1092.49L545.316 940.81L565.656 1014.53ZM655.608 1008.83L703.952 903.587L730.176 961.309L655.608 1008.83ZM826.924 974.302L731.095 961.174L751.324 920.703L826.924 974.302ZM953.441 918.372L903.845 940.864L928.016 847.678L953.441 918.372ZM1088.64 905.636L955.283 918.072L1060.61 857.823L1088.64 905.636ZM828.685 974.234L858.392 877.069L902.896 941.265L828.685 974.234ZM277.138 1122.2L265.33 1157.75L320.171 1078.31L277.138 1122.2ZM323.239 1075.9L384.179 1164.97L431.489 1093.8L323.239 1075.9ZM432.473 1093.67L468.655 1145.16L564.797 1015.82L432.473 1093.67ZM828.508 975.061L830.959 1089.41L902.673 942.122L828.508 975.061ZM954.367 918.797L1030.12 1032.73L1088.66 906.272L954.367 918.797ZM1537.45 814.825L1420.7 816.638L1517.32 716.377L1537.45 814.825ZM1386.91 774.411L1386.9 774.413L1419.93 816.492L1516.03 716.746L1386.92 774.414L1386.91 774.411ZM1283.01 807.604L1227.26 821.374L1218 866.613L1283.01 807.604ZM1154.31 789.709L1061.15 857.477L1089.16 905.276L1154.31 789.709ZM928.854 846.347L1060.35 857.011L1043.38 765.485L1043.37 765.48L928.854 846.347ZM1285.1 806.365L1386.12 774.047L1384.92 686.235L1384.9 686.228L1285.1 806.365ZM1517.85 715.501L1587.17 734.612L1523.65 627.735L1523.64 627.734L1517.85 715.501ZM1154.98 788.388L1061.71 856.24L1147.08 690.53L1154.98 788.388ZM859.711 875.396L927.784 846.3L960.076 778.347L859.711 875.396ZM960.643 776.81L869.513 799.573L937.874 676.865L960.643 776.81ZM1271.97 701.546L1240.45 713.166L1310.41 620.727L1271.97 701.546ZM961.228 777.326L928.756 845.637L1042.24 765.479L961.228 777.326ZM1043.92 765.101L1060.86 856.422L1146.41 690.367L1043.92 765.101ZM1147.64 689.785L1155.58 787.869L1238.88 713.977L1147.64 689.785ZM1239.84 714.067L1227.61 818.574L1271.66 702.338L1239.84 714.067ZM1480.29 655.218L1517.26 714.68L1523.02 627.38L1480.29 655.218ZM1515.78 529.459L1492.83 557.748L1480.66 651.058L1515.78 529.459ZM1396.42 569.194L1385.6 684.381L1491.76 557.965L1396.42 569.194ZM1161.54 616.803L1147.07 688.895L1056.07 645.817L1161.54 616.803ZM1054.8 646.095L1012.25 651.544L1043.44 763.209L1054.8 646.095ZM857.223 697.924L857.206 697.929L869.081 799.047L937.327 676.513L857.229 697.926L857.223 697.924ZM701.07 716.172L654.581 725.931L713.747 835.57L701.07 716.172ZM653.489 726.471L567.99 782.144L612.059 841.877L653.489 726.471ZM456.868 817.623L381.916 839.492L429.624 857.309L456.868 817.623ZM380.959 839.798L380.952 839.799L322.534 896.224L428.858 857.703L380.959 839.798ZM380.124 839.73L331.873 835.353L331.87 835.347L331.852 835.346L321.729 896.128L380.124 839.73ZM330.962 835.34L243.143 841.018L263.686 936.397L330.962 835.34ZM241.847 841.5L155.877 883.227L163.892 958.062L241.847 841.5ZM154.827 883.443L13.8587 887.664L56.9754 1007.26L154.827 883.443ZM1552.96 433.742L1516.25 527.818L1516.24 527.831L1494.03 555.209L1552.96 433.742ZM1405.37 485.631L1491.75 557.322L1396.51 568.546L1405.37 485.631ZM1310.5 502.622L1395.52 568.855L1312.45 617.351L1310.5 502.622ZM1072.2 550.757L1054.87 645.458L1012.44 650.887L1072.2 550.757ZM937.679 594.31L937.679 675.73L857.714 697.114L937.679 594.31ZM724.453 632.101L701.131 715.489L654.882 725.198L724.453 632.101ZM673.458 688.672L653.878 725.454C653.871 725.46 653.865 725.467 653.859 725.473C653.852 725.482 653.845 725.49 653.839 725.5L570.865 779.526L673.458 688.672ZM463.901 688.206L457.37 816.788L381.536 838.92L463.901 688.206ZM393.552 751.075L380.615 839.094L332.171 834.709L393.552 751.075ZM167.383 744.264L242.267 840.596L155.869 882.527L167.383 744.264ZM66.0622 799.228L154.713 882.763L14.0046 886.976L66.0622 799.228ZM1143.48 529.917L1162.13 615.692L1253.19 515.221L1143.48 529.917ZM937.028 594.081L856.844 697.181L811.636 643.799L937.028 594.081ZM725.423 630.95L810.242 643.869L701.902 715.035L725.423 630.95ZM1072.47 549.005L1046.06 461.646L1002 606.138L1072.47 549.005ZM1000.94 606.585L960.375 481.028L938.388 593.104L1000.94 606.585ZM724.81 630.545L677.358 560.962L674.865 686.474L724.81 630.545ZM394.357 750.059L463.076 688.352L381.486 837.656L394.357 750.059ZM284.445 731.152L393.466 750.13L331.653 834.354L284.445 731.152ZM66.5402 798.807L166.774 744.042L155.251 882.371L66.5402 798.807ZM166.984 743.15L195.286 712.72L72.2293 794.937L166.927 743.178C166.927 743.178 166.935 743.173 166.949 743.166C166.958 743.162 166.97 743.156 166.983 743.15L166.984 743.15ZM1555.25 426.598L1406.8 483.973L1502.45 404.35L1555.25 426.598ZM1371.81 386.547L1405.25 484.425L1501.65 404.163L1371.8 386.541L1371.8 386.543L1371.81 386.547ZM1371.28 386.932L1371.29 386.929L1404.67 484.706L1310.77 501.52L1371.28 386.933L1371.28 386.932ZM1310.41 500.842L1370.78 386.558L1301.52 395.443L1301.51 395.467L1310.41 500.842ZM1254.98 511.439L1300.4 396.223L1272.54 419.161L1254.98 511.439ZM1271.77 419.817L1144.09 529.176L1253.77 514.491L1271.77 419.817ZM1045.56 461.023L960.714 479.991L1001.39 605.952L1045.56 461.023ZM937.554 593.195L907.12 544.203L812.337 642.842L937.554 593.195ZM959.755 480.896L907.581 543.703L907.574 543.727L937.865 592.505L959.755 480.896ZM811.306 643.015L906.535 543.909L786.414 526.755L786.415 526.763L786.427 526.786L811.306 643.015ZM725.702 630.348L785.9 527.25L810.724 643.294L725.702 630.348ZM623.472 552.311L676.733 560.258L674.256 685.712L623.472 552.311ZM559.931 669.211L622.948 552.677L674.044 686.906L559.931 669.211ZM463.934 686.684L394.902 748.7L453.366 612.454L463.934 686.684ZM344.633 648.029L344.626 648.049L394.018 749.167L452.97 611.794L344.633 648.029ZM344.131 648.47L393.474 749.472L284.452 730.5L344.131 648.47ZM65.742 798.319L80.2163 700.264L20.7573 782.787L65.742 798.319ZM81.0086 699.321L66.4166 798.055L196.532 711.116L81.0086 699.321ZM-73.8853 833.32L28.2477 715.053L19.9461 782.727L-73.8853 833.32ZM-75.3003 833.965L-107.265 783.493L27.4118 715.024L-75.3003 833.965ZM1492.44 557.062L1555.47 427.18L1405.71 485.055L1492.44 557.062ZM1404.74 485.337L1395.87 568.324L1310.92 502.136L1404.74 485.337ZM1254.5 514.971L1309.86 502.344L1311.79 616.703L1254.5 514.971ZM1055.96 645.187L1142.92 530.359L1161.59 616.126L1055.96 645.187ZM1253.99 515.339L1162.74 616.03L1311.58 617.601L1253.99 515.339ZM1055.71 644.474L1142.27 530.151L1073.1 549.346L1055.71 644.474ZM1001.76 607.128L1011.97 650.454L1071.65 550.469L1001.76 607.128ZM939.082 675.284L1001.23 607.674L1011.47 651.062L939.082 675.284ZM938.314 675.184L1000.8 607.204L938.33 593.734L938.314 675.184ZM811.091 644.102L702.767 715.273L856.239 697.423L811.091 644.102ZM674.781 687.538L720.698 636.085L656.358 722.16L674.781 687.538ZM673.815 687.536L559.777 669.838L567.789 781.425L673.815 687.536ZM567.198 781.826L458.471 816.445L559.185 670.396L567.198 781.826ZM464.567 687.081L458.017 815.943L558.743 669.893L464.567 687.081ZM167.736 743.679L283.432 731.106L242.662 840.079L167.736 743.679ZM283.952 731.575L243.26 840.373L331.113 834.686L283.952 731.575ZM20.532 783.368L65.5208 798.901L13.8167 886.042L20.532 783.368ZM1480.33 654.353L1523.04 626.544L1516.3 529.793L1480.33 654.353ZM1386.11 684.775L1479.52 654.866L1492.08 558.588L1492.08 558.572L1386.11 684.775ZM1384.9 685.112L1395.72 569.787L1273.05 701.351L1384.9 685.112ZM1394.39 570.313L1273.44 700.029L1312.39 618.162L1394.39 570.313ZM1239.54 713.326L1162.62 616.667L1162.61 616.664L1162.6 616.66L1311.49 618.248L1239.54 713.326ZM1162.14 617.062L1147.67 689.109L1238.71 713.262L1162.14 617.062ZM1055.42 646.214L1043.96 764.283L1146.66 689.397L1055.42 646.214ZM1011.78 652.29L961.532 776.659L1043.17 764.712L1011.78 652.29ZM1011.32 651.798L961.124 776.01L938.377 676.2L938.401 676.207L1011.32 651.798ZM745.873 809.723L868.541 799.774L856.632 698.387L745.873 809.723ZM855.978 698.119L701.836 716.037L745.132 809.554L855.978 698.119ZM701.886 717.613L714.495 836.513L744.666 810.015L701.886 717.613ZM567.681 782.814L539.693 892.69L611.684 842.463L567.681 782.814ZM654.144 726.451L612.587 842.191L713.737 836.883L654.144 726.451ZM567.076 782.563L458.268 817.185L539.004 892.835L567.076 782.563ZM457.73 817.548L430.271 857.556L537.903 892.672L457.73 817.548ZM263.182 936.952L242.629 841.494L164.353 958.53L263.182 936.952ZM264.777 935.96L320.974 896.847L331.045 836.419L264.777 935.96ZM155.272 883.891L57.936 1007.08L163.303 958.835L155.272 883.891ZM1387.52 773.441L1517.06 715.583L1479.81 655.655L1387.52 773.441ZM1284.37 806.234L1384.4 685.83L1272.57 702.065L1284.37 806.234ZM1239.15 714.616L1226.75 820.651L1155.89 788.477L1239.15 714.616ZM1272.06 703.12L1227.51 820.662L1283.81 806.768L1272.06 703.12ZM858.721 875.535L869.159 800.319L959.944 777.637L858.721 875.535ZM1385.5 685.604L1386.71 773.392L1478.97 655.685L1385.53 685.611L1385.5 685.604ZM1538.5 814.673L1606.27 798.438L1587.74 735.856L1587.73 735.852L1538.5 814.673ZM1312.08 870.369L1284.59 807.192L1385.5 774.899L1312.08 870.369ZM1284.03 807.543L1218.3 867.194L1311.5 870.662L1284.03 807.543ZM1386.4 774.777L1313.07 870.118L1419.44 816.862L1386.4 774.777ZM1226.54 821.864L1122.27 901.145L1217.25 867.233L1226.54 821.864ZM1226.39 821.19L1121.07 901.282L1155.52 789.016L1226.39 821.19ZM1120.22 901.855L1154.13 791.312L1089.74 905.53L1120.22 901.855ZM1059.7 857.606L928.435 846.943L953.991 918.061L1059.7 857.606ZM927.508 847.114L858.767 876.508L903.236 940.646L927.508 847.114ZM751.845 920.283L857.79 876.916L828.019 974.279L751.845 920.283ZM730.62 960.689L704.567 903.351L704.55 903.32L750.773 920.362L730.62 960.689ZM703.115 903.92L632.87 962.684L632.846 962.677L654.87 1008.93L703.115 903.92ZM632.355 963.104L566.988 1014.34L654.393 1009.42L632.355 963.104ZM566.224 1014.13L545.931 940.533L631.764 962.742L566.224 1014.13ZM326.068 1006.16L276.909 1121.08L252.65 1042.44L326.068 1006.16ZM130.853 1030.69L89.6887 1141.19L172.242 1126.08L130.853 1030.69ZM252.1 1042.89L252.109 1042.88L276.425 1121.72L173.44 1125.96L252.098 1042.9L252.1 1042.89ZM251.574 1042.56L131.316 1030.18L172.777 1125.77L251.574 1042.56ZM130.282 1030.32L39.7364 1063.26L39.7126 1063.25L89.0904 1140.88L130.282 1030.32ZM322.878 1074.81L327.003 1005.8L425.877 1005.33L322.878 1074.81ZM432.276 1092.65L427.216 1005.19L427.24 1005.2L544.383 941.031L432.276 1092.65ZM1537.98 814.335L1517.92 716.175L1587.33 735.319L1537.98 814.335ZM1420.92 949.399L1420.25 817.284L1537.17 815.469L1420.92 949.399ZM1418.51 818.044L1312.36 871.177L1312.34 871.17L1321.33 922.375L1418.51 818.044ZM1321.71 922.853L1419.62 817.748L1420.29 949.827L1321.71 922.853ZM1297.04 957.042L1311.65 871.302L1218.26 867.831L1218.25 867.829L1297.04 957.042ZM1296.64 957.57L1217.77 868.266L1209.14 980.815L1296.64 957.57ZM1121.06 902.236L1208.53 980.579L1217.16 867.944L1121.06 902.236ZM878.31 1079.67L953.862 919.161L1029.69 1033.19L878.31 1079.67ZM903.661 941.612L878.496 1077.76L953.159 919.159L903.661 941.612ZM902.656 943.622L831.246 1090.27L877.461 1079.91L902.656 943.622ZM764.549 1083.25L827.66 975.046L731.039 961.796L764.549 1083.25ZM730.511 962.267L663.158 1092.28L764.039 1083.78L730.511 962.267ZM654.082 1010.02L570.554 1094.49L566.356 1014.98L654.082 1010.02ZM565.763 1015.58L469.661 1144.85L569.949 1095.04L565.763 1015.58ZM383.567 1165.17L264.938 1159.43L322.53 1075.98L383.567 1165.17ZM662.829 1091.56L655.202 1009.86L729.799 962.311L662.829 1091.56Z" fill="#8C59FA"/>
<rect x="842" y="681" width="31" height="31" rx="15.5" fill="white"/>
<g clip-path="url(#clip1_4_288)">
<path d="M851.41 692.432C851.909 691.246 853.085 690.472 854.39 690.472L857.163 690.472L852.378 701.856C852.207 702.262 851.804 702.528 851.356 702.528L847.167 702.528L851.41 692.432Z" fill="url(#paint2_linear_4_288)"/>
<path d="M859.103 692.432C859.602 691.246 860.778 690.472 862.083 690.472L864.856 690.472L860.071 701.856C859.9 702.262 859.497 702.528 859.05 702.528L854.86 702.528L859.103 692.432Z" fill="url(#paint3_linear_4_288)"/>
<path d="M862.711 702.152L864.534 697.814C866.882 697.814 868.477 700.161 867.58 702.296L867.482 702.528L862.966 702.528C862.769 702.528 862.636 702.331 862.711 702.152Z" fill="url(#paint4_linear_4_288)"/>
</g>
<rect x="1032" y="446" width="28" height="28" rx="14" fill="white"/>
<g clip-path="url(#clip2_4_288)">
<path d="M1040.5 456.326C1040.95 455.254 1042.01 454.555 1043.19 454.555L1045.7 454.555L1041.37 464.837C1041.22 465.205 1040.86 465.444 1040.45 465.444L1036.67 465.444L1040.5 456.326Z" fill="url(#paint5_linear_4_288)"/>
<path d="M1047.45 456.326C1047.9 455.254 1048.96 454.555 1050.14 454.555L1052.64 454.555L1048.32 464.837C1048.17 465.205 1047.8 465.444 1047.4 465.444L1043.62 465.444L1047.45 456.326Z" fill="url(#paint6_linear_4_288)"/>
<path d="M1050.71 465.105L1052.35 461.187C1054.47 461.187 1055.91 463.307 1055.1 465.235L1055.02 465.444L1050.94 465.444C1050.76 465.444 1050.64 465.266 1050.71 465.105Z" fill="url(#paint7_linear_4_288)"/>
</g>
<path d="M29.4386 711.533C28.0824 711.129 26.6301 711.913 26.2251 713.27C25.8201 714.626 26.6044 716.079 27.9606 716.483C29.3168 716.888 30.7691 716.104 31.1741 714.747C31.5792 713.391 30.7948 711.938 29.4386 711.533Z" fill="white"/>
<path d="M67.9194 792.256C64.3504 791.19 60.6116 793.21 59.5457 796.78C58.4798 800.35 60.499 804.089 64.068 805.155C67.637 806.22 71.3758 804.2 72.4417 800.631C73.5076 797.061 71.4885 793.322 67.9194 792.256Z" fill="white"/>
<path d="M21.3238 779.328C19.3251 778.731 17.2477 779.873 16.6579 781.848C16.0681 783.824 17.2029 785.925 19.1778 786.515C21.1526 787.104 23.2538 785.969 23.8436 783.994C24.4333 782.019 23.2986 779.917 21.3238 779.328Z" fill="white"/>
<path d="M196.427 714.247C198.266 714.796 200.203 713.75 200.753 711.91C201.302 710.069 200.256 708.132 198.416 707.583C196.577 707.034 194.64 708.08 194.09 709.92C193.541 711.76 194.587 713.697 196.427 714.247Z" fill="white"/>
<path d="M79.791 702.074C81.4993 702.584 83.2977 701.612 83.8079 699.904C84.3181 698.195 83.3469 696.397 81.6386 695.886C79.9303 695.376 78.1318 696.348 77.6216 698.057C77.1114 699.765 78.0827 701.564 79.791 702.074Z" fill="white"/>
<path d="M400.6 751.858C401.68 748.24 399.611 744.408 395.994 743.328C392.378 742.249 388.546 744.319 387.466 747.936C386.386 751.553 388.455 755.385 392.072 756.465C395.688 757.545 399.52 755.475 400.6 751.858Z" fill="white"/>
<rect x="328" y="630" width="36" height="36" rx="18" fill="white"/>
<g clip-path="url(#clip3_4_288)">
<path d="M338.928 643.276C339.507 641.898 340.873 641 342.388 641L345.609 641L340.052 654.219C339.854 654.692 339.385 655 338.866 655L334 655L338.928 643.276Z" fill="url(#paint8_linear_4_288)"/>
<path d="M347.862 643.276C348.441 641.898 349.807 641 351.323 641L354.543 641L348.986 654.219C348.788 654.692 348.319 655 347.8 655L342.934 655L347.862 643.276Z" fill="url(#paint9_linear_4_288)"/>
<path d="M352.052 654.563L354.169 649.526C356.895 649.526 358.748 652.251 357.706 654.73L357.592 655L352.348 655C352.119 655 351.964 654.771 352.052 654.563Z" fill="url(#paint10_linear_4_288)"/>
</g>
<path d="M452.867 613.525C454.102 613.894 455.403 613.192 455.772 611.956C456.14 610.721 455.438 609.42 454.203 609.051C452.968 608.683 451.667 609.385 451.298 610.621C450.929 611.856 451.632 613.157 452.867 613.525Z" fill="white"/>
<path d="M621.98 555.313C623.846 555.87 625.81 554.809 626.368 552.943C626.925 551.076 625.864 549.112 623.998 548.554C622.132 547.997 620.168 549.058 619.61 550.925C619.053 552.791 620.114 554.756 621.98 555.313Z" fill="white"/>
<path d="M678.148 556.403C676.174 555.813 674.08 556.925 673.483 558.924C672.886 560.923 674.004 562.993 676.002 563.59C678.001 564.187 680.071 563.068 680.668 561.069C681.265 559.07 680.147 557 678.148 556.403Z" fill="white"/>
<path d="M787.394 521.813C784.849 521.052 782.191 522.488 781.431 525.034C780.67 527.581 782.106 530.239 784.652 530.999C787.197 531.759 789.855 530.323 790.615 527.777C791.375 525.23 789.94 522.573 787.394 521.813Z" fill="white"/>
<path d="M905.832 548.261C908.355 549.014 911.011 547.579 911.764 545.056C912.518 542.532 911.084 539.876 908.561 539.122C906.038 538.369 903.381 539.804 902.628 542.327C901.874 544.851 903.309 547.507 905.832 548.261Z" fill="white"/>
<path d="M812.821 638.01C809.704 637.079 806.428 638.848 805.498 641.966C804.567 645.084 806.335 648.359 809.452 649.29C812.569 650.221 815.845 648.451 816.776 645.334C817.706 642.216 815.938 638.94 812.821 638.01Z" fill="white"/>
<path d="M963.354 480.678C963.859 478.989 962.908 477.227 961.218 476.723C959.529 476.218 957.768 477.17 957.263 478.86C956.759 480.549 957.71 482.311 959.399 482.815C961.089 483.32 962.85 482.368 963.354 480.678Z" fill="white"/>
<path d="M1144.21 525.919C1142.16 525.308 1140 526.476 1139.39 528.523C1138.78 530.57 1139.94 532.733 1141.99 533.344C1144.04 533.955 1146.2 532.786 1146.81 530.74C1147.42 528.693 1146.25 526.53 1144.21 525.919Z" fill="white"/>
<path d="M1302.73 389.999C1299.85 389.139 1296.85 390.782 1295.99 393.638C1295.14 396.494 1296.78 399.522 1299.63 400.375C1302.49 401.227 1305.52 399.591 1306.37 396.735C1307.22 393.88 1305.59 390.851 1302.73 389.999Z" fill="white"/>
<path d="M1270.94 423.379C1273.36 424.101 1275.91 422.726 1276.63 420.307C1277.35 417.889 1275.98 415.343 1273.56 414.621C1271.14 413.899 1268.59 415.274 1267.87 417.693C1267.15 420.111 1268.53 422.657 1270.94 423.379Z" fill="white"/>
<path d="M1255.23 510.728C1252.99 510.06 1250.67 511.336 1250 513.549C1249.34 515.762 1250.61 518.111 1252.82 518.772C1255.04 519.433 1257.39 518.164 1258.05 515.951C1258.71 513.737 1257.44 511.389 1255.23 510.728Z" fill="white"/>
<path d="M1372.95 380.845C1370 379.964 1366.91 381.634 1366.02 384.585C1365.14 387.536 1366.81 390.626 1369.76 391.507C1372.71 392.388 1375.8 390.719 1376.68 387.768C1377.56 384.817 1375.9 381.726 1372.95 380.845Z" fill="white"/>
<path d="M14.5881 883.381C12.4229 882.735 10.1126 883.963 9.45883 886.152C8.80508 888.342 10.0399 890.629 12.2289 891.282C14.4179 891.936 16.7045 890.7 17.3582 888.511C18.012 886.322 16.7771 884.035 14.5881 883.381Z" fill="white"/>
<path d="M168.908 737.497C165.625 736.516 162.164 738.386 161.183 741.67C160.203 744.954 162.072 748.415 165.355 749.396C168.639 750.376 172.099 748.506 173.08 745.222C174.061 741.938 172.192 738.477 168.908 737.497Z" fill="white"/>
<path d="M285.047 726.945C282.953 726.319 280.759 727.505 280.134 729.599C279.509 731.693 280.694 733.887 282.787 734.512C284.881 735.138 287.075 733.952 287.7 731.858C288.326 729.764 287.141 727.57 285.047 726.945Z" fill="white"/>
<path d="M244.303 835.54C241.447 834.687 238.45 836.307 237.597 839.162C236.745 842.018 238.363 845.016 241.219 845.868C244.074 846.721 247.071 845.102 247.924 842.246C248.776 839.39 247.158 836.392 244.303 835.54Z" fill="white"/>
<path d="M332.894 830.63C330.491 829.912 327.981 831.288 327.271 833.668C326.56 836.048 327.928 838.582 330.308 839.292C332.687 840.003 335.221 838.634 335.931 836.254C336.642 833.874 335.274 831.34 332.894 830.63Z" fill="white"/>
<path d="M466.174 680.484C462.676 679.44 458.975 681.419 457.924 684.942C456.872 688.464 458.858 692.141 462.379 693.193C465.901 694.244 469.578 692.258 470.629 688.735C471.681 685.213 469.695 681.536 466.174 680.484Z" fill="white"/>
<path d="M458.647 813.747C456.838 813.207 454.922 814.242 454.382 816.05C453.842 817.859 454.877 819.775 456.685 820.315C458.494 820.855 460.409 819.82 460.949 818.011C461.489 816.203 460.455 814.287 458.647 813.747Z" fill="white"/>
<path d="M561.113 663.862C558.02 662.938 554.776 664.691 553.852 667.785C552.928 670.878 554.68 674.123 557.774 675.047C560.867 675.97 564.111 674.218 565.035 671.124C565.959 668.03 564.207 664.785 561.113 663.862Z" fill="white"/>
<path d="M675.924 682.669C673.354 681.902 670.666 683.354 669.899 685.924C669.131 688.494 670.583 691.183 673.153 691.95C675.722 692.718 678.411 691.265 679.178 688.695C679.945 686.125 678.494 683.436 675.924 682.669Z" fill="white"/>
<path d="M730.949 632.303C731.901 629.115 730.099 625.777 726.911 624.825C723.723 623.873 720.385 625.676 719.433 628.865C718.481 632.054 720.283 635.391 723.472 636.343C726.66 637.295 729.997 635.492 730.949 632.303Z" fill="white"/>
<path d="M936.526 598.302C939.262 599.119 942.136 597.566 942.953 594.829C943.77 592.093 942.218 589.219 939.482 588.402C936.745 587.585 933.872 589.137 933.055 591.874C932.237 594.611 933.789 597.485 936.526 598.302Z" fill="white"/>
<path d="M999.194 614.422C1003.29 615.644 1007.58 613.324 1008.8 609.231C1010.03 605.137 1007.71 600.842 1003.61 599.62C999.522 598.398 995.227 600.718 994.004 604.812C992.782 608.905 995.102 613.2 999.194 614.422Z" fill="white"/>
<rect x="977" y="583" width="48" height="48" rx="24" fill="white"/>
<g clip-path="url(#clip4_4_288)">
<path d="M991.571 600.702C992.343 598.865 994.164 597.667 996.185 597.667L1000.48 597.667L993.07 615.293C992.805 615.923 992.18 616.333 991.488 616.333L985 616.333L991.571 600.702Z" fill="url(#paint11_linear_4_288)"/>
<path d="M1003.48 600.702C1004.25 598.865 1006.08 597.667 1008.1 597.667L1012.39 597.667L1004.98 615.293C1004.72 615.923 1004.09 616.333 1003.4 616.333L996.912 616.333L1003.48 600.702Z" fill="url(#paint12_linear_4_288)"/>
<path d="M1009.07 615.751L1011.89 609.035C1015.53 609.035 1018 612.669 1016.61 615.974L1016.46 616.333L1009.46 616.333C1009.16 616.333 1008.95 616.029 1009.07 615.751Z" fill="url(#paint13_linear_4_288)"/>
</g>
<path d="M1073.27 547.557C1072.41 547.302 1071.52 547.786 1071.26 548.643C1071.01 549.499 1071.49 550.395 1072.35 550.651C1073.2 550.907 1074.1 550.423 1074.35 549.566C1074.61 548.709 1074.13 547.813 1073.27 547.557Z" fill="white"/>
<path d="M1013.1 647.087C1010.79 646.398 1008.35 647.716 1007.66 650.025C1006.97 652.333 1008.29 654.775 1010.6 655.464C1012.91 656.153 1015.35 654.834 1016.04 652.526C1016.73 650.217 1015.41 647.776 1013.1 647.087Z" fill="white"/>
<path d="M1310.91 499.568C1309.6 499.177 1308.21 499.928 1307.82 501.237C1307.43 502.546 1308.18 503.936 1309.49 504.327C1310.79 504.718 1312.19 503.967 1312.58 502.658C1312.97 501.349 1312.22 499.958 1310.91 499.568Z" fill="white"/>
<path d="M1407.05 478.38C1403.41 477.293 1399.61 479.371 1398.53 482.988C1397.45 486.605 1399.52 490.437 1403.13 491.517C1406.75 492.597 1410.58 490.527 1411.66 486.91C1412.74 483.292 1410.67 479.46 1407.05 478.38Z" fill="white"/>
<path d="M1402.52 570.805C1403.57 567.283 1401.57 563.575 1398.05 562.523C1394.53 561.472 1390.82 563.475 1389.77 566.997C1388.72 570.519 1390.72 574.228 1394.24 575.279C1397.76 576.331 1401.47 574.328 1402.52 570.805Z" fill="white"/>
<path d="M166.039 950.973C161.614 949.651 156.948 952.172 155.626 956.598C154.304 961.025 156.824 965.691 161.25 967.013C165.675 968.334 170.341 965.813 171.663 961.387C172.984 956.96 170.465 952.294 166.039 950.973Z" fill="white"/>
<path d="M157.184 879.952C156.984 879.84 156.754 879.745 156.516 879.674C154.636 879.113 152.682 880.188 152.128 882.045C151.851 882.973 151.976 883.943 152.41 884.747C152.843 885.55 153.562 886.18 154.514 886.464C156.394 887.025 158.371 885.957 158.933 884.077C159.423 882.435 158.662 880.73 157.215 879.935L157.184 879.952Z" fill="white"/>
<path d="M264.915 932.622C262.393 931.869 259.736 933.305 258.983 935.827C258.229 938.35 259.664 941.008 262.187 941.761C264.709 942.514 267.366 941.078 268.119 938.556C268.872 936.033 267.437 933.375 264.915 932.622Z" fill="white"/>
<path d="M322.229 893.774C320.444 893.241 318.559 894.26 318.026 896.045C317.494 897.83 318.511 899.715 320.296 900.247C322.08 900.78 323.965 899.762 324.498 897.977C325.031 896.192 324.013 894.307 322.229 893.774Z" fill="white"/>
<path d="M380.066 842.149C381.564 842.596 383.142 841.744 383.589 840.246C384.036 838.748 383.185 837.17 381.687 836.723C380.189 836.276 378.611 837.128 378.164 838.626C377.717 840.124 378.568 841.702 380.066 842.149Z" fill="white"/>
<path d="M428.118 863.132C431.114 864.027 434.268 862.323 435.163 859.326C436.058 856.33 434.355 853.175 431.358 852.28C428.362 851.386 425.208 853.09 424.313 856.087C423.419 859.083 425.122 862.238 428.118 863.132Z" fill="white"/>
<path d="M543.972 894.849C544.761 892.207 543.259 889.426 540.618 888.637C537.977 887.849 535.196 889.351 534.407 891.992C533.618 894.634 535.12 897.415 537.761 898.204C540.402 898.993 543.183 897.49 543.972 894.849Z" fill="white"/>
<path d="M566.404 785.788C568.467 786.404 570.639 785.23 571.255 783.167C571.871 781.103 570.698 778.931 568.635 778.315C566.572 777.699 564.4 778.873 563.784 780.936C563.168 783 564.341 785.172 566.404 785.788Z" fill="white"/>
<path d="M653.053 729.235C655.004 729.818 657.074 728.699 657.657 726.748C658.239 724.796 657.121 722.726 655.17 722.143C653.219 721.561 651.149 722.679 650.566 724.631C649.984 726.582 651.102 728.653 653.053 729.235Z" fill="white"/>
<path d="M704.17 716.608C704.632 715.061 703.74 713.447 702.217 712.993C700.695 712.538 699.057 713.423 698.602 714.946C698.147 716.469 699.032 718.107 700.555 718.562C702.077 719.016 703.715 718.131 704.17 716.608Z" fill="white"/>
<path d="M718.127 838.323C718.767 836.181 717.549 833.925 715.407 833.286C713.266 832.647 711.01 833.865 710.371 836.007C709.731 838.149 710.949 840.405 713.091 841.044C715.232 841.684 717.488 840.465 718.127 838.323Z" fill="white"/>
<path d="M936.885 679.72C938.948 680.336 941.12 679.163 941.736 677.099C942.352 675.036 941.18 672.864 939.116 672.248C937.053 671.632 934.881 672.805 934.265 674.869C933.649 676.932 934.822 679.104 936.885 679.72Z" fill="white"/>
<path d="M1044.59 761.544C1042.71 760.983 1040.74 762.051 1040.17 763.931C1039.61 765.811 1040.68 767.789 1042.56 768.35C1044.44 768.911 1046.42 767.843 1046.98 765.963C1047.54 764.083 1046.47 762.105 1044.59 761.544Z" fill="white"/>
<path d="M1056.62 640.798C1053.91 639.988 1051.04 641.541 1050.23 644.254C1049.42 646.967 1050.97 649.84 1053.68 650.65C1056.39 651.46 1059.27 649.908 1060.08 647.195C1060.89 644.482 1059.34 641.608 1056.62 640.798Z" fill="white"/>
<path d="M1162.93 613.105C1161.14 612.572 1159.23 613.584 1158.69 615.392C1158.15 617.201 1159.17 619.086 1160.98 619.626C1162.79 620.166 1164.67 619.148 1165.21 617.339C1165.75 615.53 1164.74 613.645 1162.93 613.105Z" fill="white"/>
<path d="M1317 619.402C1317.81 616.713 1316.27 613.869 1313.58 613.067C1310.89 612.264 1308.05 613.8 1307.25 616.489C1306.45 619.178 1307.98 622.021 1310.67 622.824C1313.36 623.627 1316.2 622.091 1317 619.402Z" fill="white"/>
<path d="M132.484 1024.21C129.415 1023.29 126.17 1025.04 125.253 1028.11C124.337 1031.18 126.089 1034.43 129.158 1035.35C132.228 1036.26 135.472 1034.51 136.389 1031.44C137.305 1028.37 135.553 1025.12 132.484 1024.21Z" fill="white"/>
<path d="M56.2036 1010.19C57.4884 1010.58 58.8242 1009.83 59.2008 1008.57C59.5774 1007.31 58.8432 1005.95 57.5821 1005.58C56.3211 1005.2 54.9615 1005.93 54.5849 1007.19C54.2083 1008.46 54.9425 1009.82 56.2036 1010.19Z" fill="white"/>
<path d="M40.608 1058.52C38.0859 1057.76 35.4048 1059.19 34.6444 1061.74C33.8841 1064.28 35.3192 1066.94 37.8651 1067.7C40.411 1068.46 43.0683 1067.03 43.8287 1064.48C44.589 1061.93 43.1539 1059.28 40.608 1058.52Z" fill="white"/>
<path d="M328.145 1000.67C325.48 999.877 322.692 1001.4 321.903 1004.04C321.115 1006.69 322.633 1009.5 325.274 1010.29C327.915 1011.08 330.727 1009.56 331.516 1006.91C332.305 1004.27 330.786 1001.46 328.145 1000.67Z" fill="white"/>
<path d="M429.688 1005.85C430.15 1004.3 429.266 1002.67 427.719 1002.2C426.172 1001.74 424.535 1002.63 424.073 1004.17C423.611 1005.72 424.495 1007.36 426.042 1007.82C427.589 1008.28 429.226 1007.4 429.688 1005.85Z" fill="white"/>
<path d="M611.262 845.501C612.903 845.991 614.634 845.057 615.124 843.415C615.614 841.772 614.68 840.042 613.038 839.552C611.396 839.061 609.666 839.996 609.176 841.638C608.685 843.28 609.62 845.011 611.262 845.501Z" fill="white"/>
<path d="M701.901 909.761C705.738 910.907 709.778 908.724 710.924 904.886C712.07 901.049 709.888 897.009 706.051 895.863C702.214 894.717 698.175 896.899 697.029 900.737C695.883 904.575 698.064 908.615 701.901 909.761Z" fill="white"/>
<path d="M743.477 815.307C746.355 816.166 749.384 814.529 750.244 811.651C751.103 808.773 749.467 805.743 746.589 804.883C743.711 804.024 740.682 805.661 739.822 808.539C738.963 811.418 740.599 814.448 743.477 815.307Z" fill="white"/>
<path d="M753.113 913.829C749.591 912.777 745.883 914.781 744.831 918.303C743.78 921.825 745.782 925.533 749.304 926.585C752.825 927.636 756.533 925.633 757.585 922.111C758.636 918.589 756.634 914.88 753.113 913.829Z" fill="white"/>
<path d="M965.071 778.26C965.739 776.023 964.47 773.674 962.234 773.007C959.997 772.339 957.625 773.6 956.957 775.837C956.289 778.074 957.557 780.423 959.818 781.098C962.078 781.773 964.403 780.497 965.071 778.26Z" fill="white"/>
<path d="M870.642 794.128C867.382 793.155 863.952 795.008 862.978 798.268C862.005 801.528 863.857 804.959 867.117 805.932C870.377 806.905 873.806 805.052 874.78 801.792C875.753 798.532 873.901 795.101 870.642 794.128Z" fill="white"/>
<path d="M1153.24 795.539C1157.09 796.689 1161.14 794.499 1162.29 790.648C1163.44 786.797 1161.25 782.743 1157.4 781.593C1153.55 780.444 1149.5 782.634 1148.35 786.485C1147.2 790.336 1149.39 794.389 1153.24 795.539Z" fill="white"/>
<path d="M1148.31 685.93C1146.43 685.369 1144.43 686.43 1143.86 688.334C1143.29 690.238 1144.36 692.216 1146.26 692.784C1148.17 693.352 1150.14 692.284 1150.71 690.38C1151.28 688.476 1150.21 686.498 1148.31 685.93Z" fill="white"/>
<path d="M1238.79 716.343C1240.19 716.759 1241.65 715.967 1242.07 714.574C1242.48 713.181 1241.69 711.714 1240.3 711.298C1238.91 710.882 1237.44 711.675 1237.02 713.068C1236.61 714.461 1237.4 715.928 1238.79 716.343Z" fill="white"/>
<path d="M1271.19 705.229C1273.09 705.798 1275.1 704.714 1275.67 702.808C1276.24 700.902 1275.15 698.896 1273.25 698.327C1271.34 697.758 1269.34 698.842 1268.77 700.748C1268.2 702.653 1269.28 704.66 1271.19 705.229Z" fill="white"/>
<path d="M1388.39 767.673C1384.75 766.586 1380.89 768.649 1379.8 772.314C1378.7 775.979 1380.77 779.811 1384.44 780.905C1388.1 781.999 1391.93 779.929 1393.03 776.264C1394.12 772.599 1392.05 768.767 1388.39 767.673Z" fill="white"/>
<path d="M1285.97 800.932C1282.61 799.93 1279.07 801.826 1278.06 805.205C1277.05 808.585 1278.95 812.108 1282.33 813.116C1285.71 814.125 1289.23 812.222 1290.24 808.843C1291.25 805.464 1289.35 801.941 1285.97 800.932Z" fill="white"/>
<path d="M1391.79 687.377C1392.88 683.736 1390.81 679.88 1387.15 678.786C1383.48 677.692 1379.65 679.762 1378.56 683.427C1377.46 687.092 1379.53 690.924 1383.2 692.018C1386.86 693.112 1390.69 691.042 1391.79 687.377Z" fill="white"/>
<path d="M173.772 1122.69C171.773 1122.1 169.672 1123.23 169.075 1125.23C168.478 1127.23 169.613 1129.33 171.612 1129.93C173.61 1130.53 175.711 1129.39 176.308 1127.39C176.905 1125.39 175.771 1123.29 173.772 1122.69Z" fill="white"/>
<path d="M90.323 1137.72C88.1816 1137.08 85.9022 1138.29 85.2555 1140.46C84.6089 1142.62 85.827 1144.88 87.9922 1145.53C90.1574 1146.17 92.4131 1144.95 93.0598 1142.79C93.7064 1140.62 92.4882 1138.37 90.323 1137.72Z" fill="white"/>
<path d="M252.927 1040.03C251.666 1039.66 250.361 1040.38 249.992 1041.62C249.622 1042.86 250.34 1044.18 251.577 1044.55C252.814 1044.92 254.143 1044.21 254.513 1042.97C254.882 1041.73 254.165 1040.4 252.927 1040.03Z" fill="white"/>
<path d="M277.604 1119.51C276.224 1119.1 274.748 1119.88 274.329 1121.28C273.91 1122.68 274.694 1124.14 276.098 1124.56C277.502 1124.97 278.954 1124.19 279.373 1122.79C279.792 1121.38 279.008 1119.93 277.604 1119.51Z" fill="white"/>
<path d="M547.224 934.207C543.988 933.241 540.558 935.094 539.592 938.331C538.626 941.567 540.478 944.997 543.714 945.964C546.95 946.93 550.38 945.077 551.346 941.84C552.312 938.604 550.46 935.173 547.224 934.207Z" fill="white"/>
<path d="M655.689 1006.9C654.142 1006.44 652.536 1007.31 652.074 1008.85C651.612 1010.4 652.48 1012.01 654.026 1012.47C655.573 1012.93 657.18 1012.06 657.642 1010.52C658.103 1008.97 657.236 1007.36 655.689 1006.9Z" fill="white"/>
<path d="M568.505 1006.4C563.913 1005.03 559.093 1007.63 557.721 1012.22C556.35 1016.82 558.953 1021.64 563.545 1023.01C568.137 1024.38 572.958 1021.78 574.329 1017.18C575.701 1012.59 573.097 1007.77 568.505 1006.4Z" fill="white"/>
<path d="M633.979 957.494C631.148 956.648 628.181 958.251 627.336 961.083C626.49 963.915 628.092 966.882 630.924 967.727C633.755 968.572 636.721 966.97 637.567 964.138C638.412 961.306 636.811 958.339 633.979 957.494Z" fill="white"/>
<path d="M856.629 881.934C859.691 882.848 862.914 881.107 863.828 878.045C864.743 874.982 863.002 871.758 859.94 870.844C856.879 869.93 853.655 871.671 852.741 874.734C851.826 877.796 853.567 881.02 856.629 881.934Z" fill="white"/>
<path d="M1062.18 852.514C1059.5 851.711 1056.68 853.254 1055.88 855.92C1055.09 858.585 1056.62 861.428 1059.29 862.224C1061.95 863.019 1064.79 861.484 1065.59 858.818C1066.38 856.153 1064.85 853.31 1062.18 852.514Z" fill="white"/>
<path d="M935.517 848.855C936.761 844.69 934.399 840.278 930.211 839.028C926.023 837.777 921.635 840.148 920.385 844.336C919.134 848.525 921.504 852.913 925.691 854.163C929.879 855.414 934.267 853.043 935.517 848.855Z" fill="white"/>
<path d="M1231.68 822.515C1232.46 819.921 1230.99 817.201 1228.4 816.427C1225.8 815.652 1223.08 817.121 1222.31 819.715C1221.54 822.309 1223 825.029 1225.6 825.803C1228.19 826.578 1230.91 825.109 1231.68 822.515Z" fill="white"/>
<path d="M1121.35 899.186C1119.74 898.703 1118.01 899.638 1117.52 901.256C1117.04 902.875 1117.97 904.605 1119.59 905.088C1121.21 905.571 1122.94 904.636 1123.42 903.018C1123.91 901.4 1122.97 899.669 1121.35 899.186Z" fill="white"/>
<path d="M1218.56 864.034C1216.66 863.465 1214.65 864.551 1214.08 866.454C1213.51 868.358 1214.6 870.367 1216.5 870.935C1218.4 871.504 1220.41 870.419 1220.98 868.515C1221.55 866.611 1220.46 864.602 1218.56 864.034Z" fill="white"/>
<path d="M1313.04 867.542C1311.13 866.973 1309.12 868.058 1308.56 869.962C1307.99 871.866 1309.07 873.875 1310.97 874.443C1312.88 875.011 1314.89 873.926 1315.46 872.022C1316.02 870.119 1314.94 868.11 1313.04 867.542Z" fill="white"/>
<path d="M1418.64 821.264C1421.01 821.97 1423.5 820.625 1424.21 818.259C1424.91 815.893 1423.57 813.403 1421.2 812.696C1418.84 811.99 1416.35 813.336 1415.64 815.701C1414.93 818.067 1416.28 820.558 1418.64 821.264Z" fill="white"/>
<path d="M321.435 1079.12C323.472 1079.73 325.616 1078.57 326.224 1076.54C326.833 1074.5 325.675 1072.36 323.638 1071.75C321.601 1071.14 319.457 1072.3 318.848 1074.33C318.24 1076.37 319.398 1078.52 321.435 1079.12Z" fill="white"/>
<path d="M382.513 1171.13C385.601 1172.05 388.852 1170.3 389.774 1167.21C390.697 1164.12 388.941 1160.87 385.853 1159.95C382.765 1159.02 379.514 1160.78 378.592 1163.87C377.669 1166.96 379.425 1170.21 382.513 1171.13Z" fill="white"/>
<path d="M263.814 1161.53C264.812 1161.83 265.864 1161.26 266.162 1160.26C266.46 1159.26 265.892 1158.21 264.894 1157.91C263.895 1157.61 262.844 1158.18 262.545 1159.18C262.247 1160.18 262.815 1161.23 263.814 1161.53Z" fill="white"/>
<path d="M433.157 1089.7C431.04 1089.07 428.815 1090.27 428.182 1092.39C427.55 1094.51 428.751 1096.73 430.869 1097.36C432.987 1098 435.211 1096.79 435.844 1094.68C436.476 1092.56 435.275 1090.33 433.157 1089.7Z" fill="white"/>
<path d="M571.351 1091.64C569.376 1091.05 567.306 1092.17 566.716 1094.15C566.126 1096.12 567.244 1098.19 569.219 1098.78C571.194 1099.37 573.264 1098.25 573.854 1096.28C574.444 1094.3 573.326 1092.23 571.351 1091.64Z" fill="white"/>
<path d="M469.731 1142.09C467.733 1141.5 465.655 1142.64 465.065 1144.61C464.476 1146.59 465.61 1148.69 467.585 1149.28C469.56 1149.87 471.661 1148.73 472.251 1146.76C472.841 1144.78 471.706 1142.68 469.731 1142.09Z" fill="white"/>
<path d="M765.197 1081.56C763.817 1081.15 762.341 1081.93 761.922 1083.33C761.503 1084.74 762.287 1086.19 763.691 1086.61C765.095 1087.03 766.547 1086.24 766.966 1084.84C767.386 1083.43 766.601 1081.98 765.197 1081.56Z" fill="white"/>
<path d="M661.69 1095.81C663.438 1096.33 665.278 1095.34 665.8 1093.59C666.322 1091.84 665.328 1090 663.581 1089.48C661.833 1088.96 659.993 1089.95 659.471 1091.7C658.949 1093.45 659.943 1095.29 661.69 1095.81Z" fill="white"/>
<path d="M731.578 958.176C729.77 957.636 727.885 958.654 727.345 960.463C726.805 962.272 727.823 964.157 729.631 964.697C731.439 965.237 733.324 964.218 733.864 962.41C734.404 960.601 733.386 958.716 731.578 958.176Z" fill="white"/>
<path d="M905.71 933.577C901.38 932.284 896.838 934.738 895.544 939.07C894.251 943.401 896.704 947.944 901.035 949.237C905.365 950.53 909.907 948.076 911.2 943.744C912.494 939.413 910.041 934.87 905.71 933.577Z" fill="white"/>
<path d="M878.865 1076.34C876.747 1075.71 874.523 1076.91 873.89 1079.03C873.258 1081.14 874.459 1083.37 876.577 1084C878.694 1084.63 880.919 1083.43 881.552 1081.31C882.184 1079.2 880.983 1076.97 878.865 1076.34Z" fill="white"/>
<path d="M830.138 1092.5C831.137 1092.8 832.188 1092.23 832.487 1091.24C832.785 1090.24 832.217 1089.18 831.218 1088.89C830.22 1088.59 829.168 1089.16 828.87 1090.16C828.572 1091.15 829.14 1092.21 830.138 1092.5Z" fill="white"/>
<path d="M829.545 970.295C827.07 969.557 824.444 970.975 823.705 973.45C822.966 975.925 824.384 978.552 826.859 979.291C829.333 980.03 831.96 978.611 832.699 976.136C833.438 973.661 832.019 971.034 829.545 970.295Z" fill="white"/>
<path d="M955.305 913.55C952.569 912.733 949.665 914.302 948.847 917.039C948.03 919.775 949.599 922.68 952.335 923.497C955.071 924.314 957.976 922.745 958.793 920.008C959.61 917.272 958.042 914.367 955.305 913.55Z" fill="white"/>
<path d="M1031.23 1029.77C1029.26 1029.18 1027.19 1030.3 1026.6 1032.27C1026.01 1034.25 1027.13 1036.32 1029.1 1036.91C1031.08 1037.5 1033.15 1036.38 1033.74 1034.4C1034.33 1032.43 1033.21 1030.36 1031.23 1029.77Z" fill="white"/>
<path d="M1090.25 902.34C1088.27 901.75 1086.18 902.861 1085.58 904.86C1084.98 906.859 1086.11 908.906 1088.11 909.503C1090.11 910.1 1092.15 908.974 1092.74 906.999C1093.33 905.024 1092.22 902.929 1090.25 902.34Z" fill="white"/>
<path d="M1208.03 983.75C1209.42 984.166 1210.89 983.374 1211.31 981.981C1211.72 980.587 1210.93 979.121 1209.54 978.705C1208.14 978.289 1206.68 979.081 1206.26 980.474C1205.84 981.868 1206.64 983.334 1208.03 983.75Z" fill="white"/>
<path d="M1297.72 956.073C1296.79 955.796 1295.83 956.313 1295.56 957.241C1295.28 958.169 1295.8 959.127 1296.72 959.404C1297.65 959.681 1298.61 959.164 1298.89 958.236C1299.16 957.308 1298.65 956.35 1297.72 956.073Z" fill="white"/>
<path d="M1419.69 953.327C1421.4 953.837 1423.2 952.866 1423.71 951.157C1424.22 949.449 1423.25 947.65 1421.54 947.14C1419.83 946.63 1418.03 947.601 1417.52 949.31C1417.01 951.019 1417.98 952.817 1419.69 953.327Z" fill="white"/>
<path d="M1322.81 917.427C1319.72 916.504 1316.44 918.273 1315.52 921.367C1314.6 924.461 1316.36 927.737 1319.46 928.66C1322.55 929.584 1325.83 927.814 1326.75 924.721C1327.67 921.627 1325.9 918.351 1322.81 917.427Z" fill="white"/>
</g>
<defs>
<radialGradient id="paint0_radial_4_288" cx="0" cy="0" r="1" gradientUnits="userSpaceOnUse" gradientTransform="translate(865 725) rotate(90) scale(477 477)">
<stop stop-color="#1B0F2E"/>
<stop offset="0.68" stop-color="#1B0F2E" stop-opacity="0"/>
</radialGradient>
<radialGradient id="paint1_radial_4_288" cx="0" cy="0" r="1" gradientUnits="userSpaceOnUse" gradientTransform="translate(1205 691) rotate(90) scale(434 434)">
<stop stop-color="#1B0F2E"/>
<stop offset="0.66" stop-color="#1B0F2E" stop-opacity="0"/>
</radialGradient>
<linearGradient id="paint2_linear_4_288" x1="851.336" y1="690.472" x2="867.648" y2="703.307" gradientUnits="userSpaceOnUse">
<stop stop-color="#6047F3"/>
<stop offset="1" stop-color="#8D5AFA"/>
</linearGradient>
<linearGradient id="paint3_linear_4_288" x1="851.336" y1="690.472" x2="867.648" y2="703.307" gradientUnits="userSpaceOnUse">
<stop stop-color="#6047F3"/>
<stop offset="1" stop-color="#8D5AFA"/>
</linearGradient>
<linearGradient id="paint4_linear_4_288" x1="851.336" y1="690.472" x2="867.648" y2="703.307" gradientUnits="userSpaceOnUse">
<stop stop-color="#6047F3"/>
<stop offset="1" stop-color="#8D5AFA"/>
</linearGradient>
<linearGradient id="paint5_linear_4_288" x1="1040.43" y1="454.555" x2="1055.17" y2="466.148" gradientUnits="userSpaceOnUse">
<stop stop-color="#6047F3"/>
<stop offset="1" stop-color="#8D5AFA"/>
</linearGradient>
<linearGradient id="paint6_linear_4_288" x1="1040.43" y1="454.555" x2="1055.17" y2="466.148" gradientUnits="userSpaceOnUse">
<stop stop-color="#6047F3"/>
<stop offset="1" stop-color="#8D5AFA"/>
</linearGradient>
<linearGradient id="paint7_linear_4_288" x1="1040.43" y1="454.555" x2="1055.17" y2="466.148" gradientUnits="userSpaceOnUse">
<stop stop-color="#6047F3"/>
<stop offset="1" stop-color="#8D5AFA"/>
</linearGradient>
<linearGradient id="paint8_linear_4_288" x1="338.842" y1="641" x2="357.785" y2="655.904" gradientUnits="userSpaceOnUse">
<stop stop-color="#6047F3"/>
<stop offset="1" stop-color="#8D5AFA"/>
</linearGradient>
<linearGradient id="paint9_linear_4_288" x1="338.842" y1="641" x2="357.785" y2="655.904" gradientUnits="userSpaceOnUse">
<stop stop-color="#6047F3"/>
<stop offset="1" stop-color="#8D5AFA"/>
</linearGradient>
<linearGradient id="paint10_linear_4_288" x1="338.842" y1="641" x2="357.785" y2="655.904" gradientUnits="userSpaceOnUse">
<stop stop-color="#6047F3"/>
<stop offset="1" stop-color="#8D5AFA"/>
</linearGradient>
<linearGradient id="paint11_linear_4_288" x1="991.455" y1="597.667" x2="1016.71" y2="617.539" gradientUnits="userSpaceOnUse">
<stop stop-color="#6047F3"/>
<stop offset="1" stop-color="#8D5AFA"/>
</linearGradient>
<linearGradient id="paint12_linear_4_288" x1="991.455" y1="597.667" x2="1016.71" y2="617.539" gradientUnits="userSpaceOnUse">
<stop stop-color="#6047F3"/>
<stop offset="1" stop-color="#8D5AFA"/>
</linearGradient>
<linearGradient id="paint13_linear_4_288" x1="991.455" y1="597.667" x2="1016.71" y2="617.539" gradientUnits="userSpaceOnUse">
<stop stop-color="#6047F3"/>
<stop offset="1" stop-color="#8D5AFA"/>
</linearGradient>
<clipPath id="clip0_4_288">
<rect width="1652.91" height="1120.12" fill="white" transform="translate(126.481 -12) rotate(16.6253)"/>
</clipPath>
<clipPath id="clip1_4_288">
<rect width="20.6667" height="20.6667" fill="white" transform="translate(847.167 686.167)"/>
</clipPath>
<clipPath id="clip2_4_288">
<rect width="18.6667" height="18.6667" fill="white" transform="translate(1036.67 450.666)"/>
</clipPath>
<clipPath id="clip3_4_288">
<rect width="24" height="24" fill="white" transform="translate(334 636)"/>
</clipPath>
<clipPath id="clip4_4_288">
<rect width="32" height="32" fill="white" transform="translate(985 591)"/>
</clipPath>
</defs>
</svg>
