<svg width="102" height="53" viewBox="0 0 102 53" fill="none" xmlns="http://www.w3.org/2000/svg">
<path d="M28.532 19.6C29.7787 19.6 30.688 19.8933 31.26 20.48C31.832 21.052 32.118 21.9393 32.118 23.142V23.692C32.118 24.484 31.986 25.1367 31.722 25.65C31.4727 26.1633 31.084 26.5447 30.556 26.794C31.7587 27.2633 32.36 28.3633 32.36 30.094V31.348C32.36 32.536 32.0447 33.4453 31.414 34.076C30.798 34.692 29.8887 35 28.686 35H24.88V19.6H28.532ZM27.3 25.87H28.246C28.73 25.87 29.0893 25.7453 29.324 25.496C29.5733 25.2467 29.698 24.8287 29.698 24.242V23.384C29.698 22.8267 29.5953 22.4233 29.39 22.174C29.1993 21.9247 28.8913 21.8 28.466 21.8H27.3V25.87ZM27.3 32.8H28.686C29.1113 32.8 29.4267 32.69 29.632 32.47C29.8373 32.2353 29.94 31.8393 29.94 31.282V29.94C29.94 29.236 29.8153 28.752 29.566 28.488C29.3313 28.2093 28.9353 28.07 28.378 28.07H27.3V32.8ZM46.1595 26.09V28.29H42.8375V32.8H47.0175V35H40.4175V19.6H47.0175V21.8H42.8375V26.09H46.1595ZM61.8931 19.6V21.8H59.3631V35H56.9431V21.8H54.4131V19.6H61.8931ZM74.111 35L73.693 32.206H70.723L70.305 35H68.083L70.547 19.6H74.089L76.553 35H74.111ZM73.363 30.116L72.197 22.328L71.031 30.116H73.363Z" fill="white"/>
<rect x="4" y="5" width="93" height="43" stroke="white" stroke-width="2"/>
<rect x="95" y="1" width="6" height="6" fill="white" stroke="white" stroke-width="2"/>
<rect x="1" y="1" width="6" height="6" fill="white" stroke="white" stroke-width="2"/>
<rect x="1" y="46" width="6" height="6" fill="white" stroke="white" stroke-width="2"/>
<rect x="95" y="46" width="6" height="6" fill="white" stroke="white" stroke-width="2"/>
</svg>
