<svg width="198" height="40" viewBox="0 0 198 40" fill="none" xmlns="http://www.w3.org/2000/svg">
<g clip-path="url(#clip0_434_453)">
<path d="M8.00782 12.324C8.94888 10.0851 11.1687 8.625 13.6313 8.625H18.8645L9.83491 30.1068C9.51226 30.8744 8.75118 31.375 7.90687 31.375H0L8.00782 12.324Z" fill="url(#paint0_linear_434_453)"/>
<path d="M22.5256 12.324C23.4667 10.0851 25.6865 8.625 28.1491 8.625H33.3823L24.3527 30.1068C24.0301 30.8744 23.269 31.375 22.4247 31.375H14.5178L22.5256 12.324Z" fill="url(#paint1_linear_434_453)"/>
<path d="M29.3338 30.6657L32.7744 22.4803C37.2052 22.4803 40.2148 26.9088 38.5216 30.937L38.3375 31.375H29.8158C29.4442 31.375 29.1917 31.0036 29.3338 30.6657Z" fill="url(#paint2_linear_434_453)"/>
<path fill-rule="evenodd" clip-rule="evenodd" d="M142.824 28.6583C141.332 28.6583 140.287 28.2118 139.689 27.3187C139.09 26.4257 138.791 25.2335 138.791 23.742V7.22607H143.151V23.913C143.151 24.3975 143.237 24.73 143.408 24.9105C143.579 25.091 143.755 25.1812 143.935 25.1812H144.177C144.253 25.1717 144.353 25.1527 144.477 25.1242L144.99 28.302C144.752 28.397 144.448 28.4778 144.078 28.5443C143.717 28.6203 143.299 28.6583 142.824 28.6583ZM178.121 28.302V7.22607H182.425V19.3387H182.539L187.227 13.3821H191.987L186.814 19.5809L192.4 28.302H187.683L184.32 22.4452L182.425 24.5827V28.302H178.121ZM170.569 28.6583C169.182 28.6583 167.928 28.3543 166.807 27.7463C165.695 27.1287 164.812 26.2405 164.156 25.0815C163.51 23.913 163.187 22.5022 163.187 20.8492C163.187 19.2057 163.548 17.7997 164.27 16.6312C164.992 15.4626 165.942 14.5696 167.12 13.9521C168.298 13.3346 169.576 13.0259 170.953 13.0259C171.875 13.0259 172.692 13.1779 173.404 13.4819C174.126 13.7859 174.763 14.1754 175.314 14.6504L173.276 17.3294C172.915 17.0444 172.568 16.8449 172.236 16.7309C171.903 16.6074 171.557 16.5457 171.196 16.5457C170.113 16.5457 169.248 16.9352 168.602 17.7142C167.966 18.4932 167.647 19.5382 167.647 20.8492C167.647 22.1602 167.966 23.21 168.602 23.9985C169.248 24.787 170.06 25.1812 171.039 25.1812C171.571 25.1812 172.065 25.091 172.521 24.9105C172.977 24.73 173.4 24.4782 173.789 24.1552L175.471 26.8912C174.749 27.5372 173.955 27.9933 173.091 28.2593C172.226 28.5253 171.386 28.6583 170.569 28.6583ZM150.205 27.7463C151.307 28.3543 152.485 28.6583 153.739 28.6583C155.003 28.6583 156.186 28.3543 157.288 27.7463C158.39 27.1287 159.283 26.2405 159.967 25.0815C160.651 23.913 160.993 22.5022 160.993 20.8492C160.993 19.2057 160.651 17.7997 159.967 16.6312C159.283 15.4626 158.39 14.5696 157.288 13.9521C156.186 13.3346 155.003 13.0259 153.739 13.0259C152.485 13.0259 151.307 13.3346 150.205 13.9521C149.103 14.5696 148.206 15.4626 147.512 16.6312C146.828 17.7997 146.486 19.2057 146.486 20.8492C146.486 22.5022 146.828 23.913 147.512 25.0815C148.206 26.2405 149.103 27.1287 150.205 27.7463ZM155.834 23.9985C155.369 24.787 154.67 25.1812 153.739 25.1812C152.808 25.1812 152.11 24.787 151.645 23.9985C151.179 23.21 150.946 22.1602 150.946 20.8492C150.946 19.5382 151.179 18.4932 151.645 17.7142C152.11 16.9352 152.808 16.5457 153.739 16.5457C154.67 16.5457 155.369 16.9352 155.834 17.7142C156.309 18.4932 156.547 19.5382 156.547 20.8492C156.547 22.1602 156.309 23.21 155.834 23.9985ZM120.936 8.69384V28.302H128.189C129.614 28.302 130.901 28.0978 132.051 27.6893C133.2 27.2807 134.112 26.649 134.787 25.794C135.461 24.939 135.798 23.8512 135.798 22.5307C135.798 21.2292 135.456 20.1984 134.772 19.4384C134.098 18.6784 133.257 18.1654 132.25 17.8994V17.7854C133.048 17.4814 133.675 16.9209 134.131 16.1039C134.597 15.2869 134.829 14.4414 134.829 13.5674C134.829 12.3229 134.511 11.3491 133.875 10.6461C133.248 9.9336 132.388 9.43009 131.295 9.13559C130.212 8.84109 128.987 8.69384 127.619 8.69384H120.936ZM127.405 16.5742H125.296V12.0711H127.434C128.488 12.0711 129.277 12.2374 129.799 12.5699C130.331 12.8929 130.597 13.4344 130.597 14.1944C130.597 14.9164 130.341 15.4959 129.828 15.9329C129.315 16.3604 128.507 16.5742 127.405 16.5742ZM127.818 24.939H125.296V19.7947H127.818C129.063 19.7947 129.994 19.9894 130.611 20.3789C131.238 20.7589 131.552 21.3859 131.552 22.26C131.552 24.046 130.307 24.939 127.818 24.939Z" fill="#1C1A20"/>
<path fill-rule="evenodd" clip-rule="evenodd" d="M142.824 28.6583C141.332 28.6583 140.287 28.2118 139.689 27.3187C139.09 26.4257 138.791 25.2335 138.791 23.742V7.22607H143.151V23.913C143.151 24.3975 143.237 24.73 143.408 24.9105C143.579 25.091 143.755 25.1812 143.935 25.1812H144.177C144.253 25.1717 144.353 25.1527 144.477 25.1242L144.99 28.302C144.752 28.397 144.448 28.4778 144.078 28.5443C143.717 28.6203 143.299 28.6583 142.824 28.6583ZM178.121 28.302V7.22607H182.425V19.3387H182.539L187.227 13.3821H191.987L186.814 19.5809L192.4 28.302H187.683L184.32 22.4452L182.425 24.5827V28.302H178.121ZM170.569 28.6583C169.182 28.6583 167.928 28.3543 166.807 27.7463C165.695 27.1287 164.812 26.2405 164.156 25.0815C163.51 23.913 163.187 22.5022 163.187 20.8492C163.187 19.2057 163.548 17.7997 164.27 16.6312C164.992 15.4626 165.942 14.5696 167.12 13.9521C168.298 13.3346 169.576 13.0259 170.953 13.0259C171.875 13.0259 172.692 13.1779 173.404 13.4819C174.126 13.7859 174.763 14.1754 175.314 14.6504L173.276 17.3294C172.915 17.0444 172.568 16.8449 172.236 16.7309C171.903 16.6074 171.557 16.5457 171.196 16.5457C170.113 16.5457 169.248 16.9352 168.602 17.7142C167.966 18.4932 167.647 19.5382 167.647 20.8492C167.647 22.1602 167.966 23.21 168.602 23.9985C169.248 24.787 170.06 25.1812 171.039 25.1812C171.571 25.1812 172.065 25.091 172.521 24.9105C172.977 24.73 173.4 24.4782 173.789 24.1552L175.471 26.8912C174.749 27.5372 173.955 27.9933 173.091 28.2593C172.226 28.5253 171.386 28.6583 170.569 28.6583ZM150.205 27.7463C151.307 28.3543 152.485 28.6583 153.739 28.6583C155.003 28.6583 156.186 28.3543 157.288 27.7463C158.39 27.1287 159.283 26.2405 159.967 25.0815C160.651 23.913 160.993 22.5022 160.993 20.8492C160.993 19.2057 160.651 17.7997 159.967 16.6312C159.283 15.4626 158.39 14.5696 157.288 13.9521C156.186 13.3346 155.003 13.0259 153.739 13.0259C152.485 13.0259 151.307 13.3346 150.205 13.9521C149.103 14.5696 148.206 15.4626 147.512 16.6312C146.828 17.7997 146.486 19.2057 146.486 20.8492C146.486 22.5022 146.828 23.913 147.512 25.0815C148.206 26.2405 149.103 27.1287 150.205 27.7463ZM155.834 23.9985C155.369 24.787 154.67 25.1812 153.739 25.1812C152.808 25.1812 152.11 24.787 151.645 23.9985C151.179 23.21 150.946 22.1602 150.946 20.8492C150.946 19.5382 151.179 18.4932 151.645 17.7142C152.11 16.9352 152.808 16.5457 153.739 16.5457C154.67 16.5457 155.369 16.9352 155.834 17.7142C156.309 18.4932 156.547 19.5382 156.547 20.8492C156.547 22.1602 156.309 23.21 155.834 23.9985ZM120.936 8.69384V28.302H128.189C129.614 28.302 130.901 28.0978 132.051 27.6893C133.2 27.2807 134.112 26.649 134.787 25.794C135.461 24.939 135.798 23.8512 135.798 22.5307C135.798 21.2292 135.456 20.1984 134.772 19.4384C134.098 18.6784 133.257 18.1654 132.25 17.8994V17.7854C133.048 17.4814 133.675 16.9209 134.131 16.1039C134.597 15.2869 134.829 14.4414 134.829 13.5674C134.829 12.3229 134.511 11.3491 133.875 10.6461C133.248 9.9336 132.388 9.43009 131.295 9.13559C130.212 8.84109 128.987 8.69384 127.619 8.69384H120.936ZM127.405 16.5742H125.296V12.0711H127.434C128.488 12.0711 129.277 12.2374 129.799 12.5699C130.331 12.8929 130.597 13.4344 130.597 14.1944C130.597 14.9164 130.341 15.4959 129.828 15.9329C129.315 16.3604 128.507 16.5742 127.405 16.5742ZM127.818 24.939H125.296V19.7947H127.818C129.063 19.7947 129.994 19.9894 130.611 20.3789C131.238 20.7589 131.552 21.3859 131.552 22.26C131.552 24.046 130.307 24.939 127.818 24.939Z" fill="black" fill-opacity="0.25"/>
<path fill-rule="evenodd" clip-rule="evenodd" d="M142.824 28.6583C141.332 28.6583 140.287 28.2118 139.689 27.3187C139.09 26.4257 138.791 25.2335 138.791 23.742V7.22607H143.151V23.913C143.151 24.3975 143.237 24.73 143.408 24.9105C143.579 25.091 143.755 25.1812 143.935 25.1812H144.177C144.253 25.1717 144.353 25.1527 144.477 25.1242L144.99 28.302C144.752 28.397 144.448 28.4778 144.078 28.5443C143.717 28.6203 143.299 28.6583 142.824 28.6583ZM178.121 28.302V7.22607H182.425V19.3387H182.539L187.227 13.3821H191.987L186.814 19.5809L192.4 28.302H187.683L184.32 22.4452L182.425 24.5827V28.302H178.121ZM170.569 28.6583C169.182 28.6583 167.928 28.3543 166.807 27.7463C165.695 27.1287 164.812 26.2405 164.156 25.0815C163.51 23.913 163.187 22.5022 163.187 20.8492C163.187 19.2057 163.548 17.7997 164.27 16.6312C164.992 15.4626 165.942 14.5696 167.12 13.9521C168.298 13.3346 169.576 13.0259 170.953 13.0259C171.875 13.0259 172.692 13.1779 173.404 13.4819C174.126 13.7859 174.763 14.1754 175.314 14.6504L173.276 17.3294C172.915 17.0444 172.568 16.8449 172.236 16.7309C171.903 16.6074 171.557 16.5457 171.196 16.5457C170.113 16.5457 169.248 16.9352 168.602 17.7142C167.966 18.4932 167.647 19.5382 167.647 20.8492C167.647 22.1602 167.966 23.21 168.602 23.9985C169.248 24.787 170.06 25.1812 171.039 25.1812C171.571 25.1812 172.065 25.091 172.521 24.9105C172.977 24.73 173.4 24.4782 173.789 24.1552L175.471 26.8912C174.749 27.5372 173.955 27.9933 173.091 28.2593C172.226 28.5253 171.386 28.6583 170.569 28.6583ZM150.205 27.7463C151.307 28.3543 152.485 28.6583 153.739 28.6583C155.003 28.6583 156.186 28.3543 157.288 27.7463C158.39 27.1287 159.283 26.2405 159.967 25.0815C160.651 23.913 160.993 22.5022 160.993 20.8492C160.993 19.2057 160.651 17.7997 159.967 16.6312C159.283 15.4626 158.39 14.5696 157.288 13.9521C156.186 13.3346 155.003 13.0259 153.739 13.0259C152.485 13.0259 151.307 13.3346 150.205 13.9521C149.103 14.5696 148.206 15.4626 147.512 16.6312C146.828 17.7997 146.486 19.2057 146.486 20.8492C146.486 22.5022 146.828 23.913 147.512 25.0815C148.206 26.2405 149.103 27.1287 150.205 27.7463ZM155.834 23.9985C155.369 24.787 154.67 25.1812 153.739 25.1812C152.808 25.1812 152.11 24.787 151.645 23.9985C151.179 23.21 150.946 22.1602 150.946 20.8492C150.946 19.5382 151.179 18.4932 151.645 17.7142C152.11 16.9352 152.808 16.5457 153.739 16.5457C154.67 16.5457 155.369 16.9352 155.834 17.7142C156.309 18.4932 156.547 19.5382 156.547 20.8492C156.547 22.1602 156.309 23.21 155.834 23.9985ZM120.936 8.69384V28.302H128.189C129.614 28.302 130.901 28.0978 132.051 27.6893C133.2 27.2807 134.112 26.649 134.787 25.794C135.461 24.939 135.798 23.8512 135.798 22.5307C135.798 21.2292 135.456 20.1984 134.772 19.4384C134.098 18.6784 133.257 18.1654 132.25 17.8994V17.7854C133.048 17.4814 133.675 16.9209 134.131 16.1039C134.597 15.2869 134.829 14.4414 134.829 13.5674C134.829 12.3229 134.511 11.3491 133.875 10.6461C133.248 9.9336 132.388 9.43009 131.295 9.13559C130.212 8.84109 128.987 8.69384 127.619 8.69384H120.936ZM127.405 16.5742H125.296V12.0711H127.434C128.488 12.0711 129.277 12.2374 129.799 12.5699C130.331 12.8929 130.597 13.4344 130.597 14.1944C130.597 14.9164 130.341 15.4959 129.828 15.9329C129.315 16.3604 128.507 16.5742 127.405 16.5742ZM127.818 24.939H125.296V19.7947H127.818C129.063 19.7947 129.994 19.9894 130.611 20.3789C131.238 20.7589 131.552 21.3859 131.552 22.26C131.552 24.046 130.307 24.939 127.818 24.939Z" fill="#171717"/>
<path fill-rule="evenodd" clip-rule="evenodd" d="M114.734 28.6583C113.242 28.6583 112.197 28.2118 111.599 27.3187C111 26.4257 110.701 25.2335 110.701 23.742V7.22607H115.061V23.913C115.061 24.3975 115.147 24.73 115.318 24.9105C115.489 25.091 115.665 25.1812 115.845 25.1812H116.087C116.163 25.1717 116.263 25.1527 116.387 25.1242L116.9 28.302C116.662 28.397 116.358 28.4778 115.988 28.5443C115.627 28.6203 115.209 28.6583 114.734 28.6583ZM98.6453 28.6583C97.2963 28.6583 96.2133 28.2308 95.3963 27.3757C94.5888 26.5112 94.185 25.4472 94.185 24.1837C94.185 22.6067 94.85 21.3812 96.1801 20.5072C97.5196 19.6237 99.6713 19.0252 102.635 18.7117C102.597 18.0467 102.393 17.5099 102.023 17.1014C101.662 16.6929 101.063 16.4887 100.227 16.4887C99.6001 16.4887 98.9636 16.6027 98.3176 16.8307C97.6716 17.0587 96.9876 17.3769 96.2656 17.7854L94.7265 15.0066C95.6576 14.4176 96.6551 13.9426 97.7191 13.5816C98.7831 13.2111 99.9041 13.0259 101.082 13.0259C102.982 13.0259 104.436 13.5816 105.443 14.6931C106.459 15.8046 106.967 17.4957 106.967 19.7662V28.302H103.419L103.12 26.7772H103.006C102.369 27.3282 101.695 27.7795 100.982 28.131C100.27 28.4825 99.4908 28.6583 98.6453 28.6583ZM100.113 25.2952C100.617 25.2952 101.058 25.186 101.438 24.9675C101.828 24.7395 102.227 24.4212 102.635 24.0127V21.3337C101.011 21.5522 99.8851 21.8799 99.2581 22.317C98.6406 22.754 98.3318 23.2575 98.3318 23.8275C98.3318 24.3215 98.4933 24.692 98.8163 24.939C99.1393 25.1765 99.5716 25.2952 100.113 25.2952ZM80.9894 34.2443C81.9394 34.5103 82.9939 34.6433 84.1529 34.6433C85.8535 34.6433 87.3212 34.4106 88.5562 33.9451C89.8007 33.4891 90.7602 32.8573 91.4347 32.0498C92.1188 31.2518 92.4608 30.3398 92.4608 29.3138C92.4608 27.9838 91.9715 27.0242 90.993 26.4352C90.024 25.8367 88.6275 25.5375 86.8035 25.5375H84.3667C83.5402 25.5375 82.9559 25.4472 82.6139 25.2667C82.2814 25.0862 82.1152 24.806 82.1152 24.426C82.1152 24.1505 82.1532 23.932 82.2292 23.7705C82.3147 23.609 82.4572 23.4475 82.6567 23.286C82.9892 23.3905 83.3122 23.4665 83.6257 23.514C83.9392 23.5615 84.2289 23.5852 84.4949 23.5852C85.5779 23.5852 86.5612 23.4047 87.4447 23.0437C88.3282 22.6827 89.0265 22.1317 89.5395 21.3907C90.062 20.6497 90.3232 19.7092 90.3232 18.5692C90.3232 18.1797 90.271 17.8044 90.1665 17.4434C90.062 17.0824 89.9432 16.7832 89.8102 16.5457H92.2185V13.3821H86.775C86.452 13.2776 86.091 13.1921 85.6919 13.1256C85.3024 13.0591 84.9034 13.0259 84.4949 13.0259C83.4214 13.0259 82.4144 13.2301 81.4739 13.6386C80.5429 14.0376 79.7876 14.6409 79.2081 15.4484C78.6381 16.2464 78.3531 17.2439 78.3531 18.4409C78.3531 19.3149 78.5526 20.0844 78.9516 20.7494C79.3506 21.4144 79.8114 21.9275 80.3339 22.2885V22.4167C79.8684 22.7397 79.4741 23.153 79.1511 23.6565C78.8376 24.1505 78.6809 24.6682 78.6809 25.2097C78.6809 25.8272 78.8091 26.3402 79.0656 26.7487C79.3221 27.1572 79.6451 27.485 80.0347 27.732V27.8603C78.6286 28.6393 77.9256 29.6463 77.9256 30.8813C77.9256 31.7648 78.2011 32.482 78.7521 33.033C79.3031 33.5841 80.0489 33.9878 80.9894 34.2443ZM85.9627 20.3219C85.5732 20.7494 85.0839 20.9632 84.4949 20.9632C83.8869 20.9632 83.3882 20.7494 82.9987 20.3219C82.6092 19.8944 82.4144 19.2674 82.4144 18.4409C82.4144 17.6239 82.6092 17.0064 82.9987 16.5884C83.3882 16.1609 83.8869 15.9471 84.4949 15.9471C85.0934 15.9471 85.5874 16.1609 85.977 16.5884C86.3665 17.0064 86.5612 17.6239 86.5612 18.4409C86.5612 19.2674 86.3617 19.8944 85.9627 20.3219ZM87.3307 31.38C86.6847 31.7505 85.8582 31.9358 84.8512 31.9358C83.8252 31.9358 83.0129 31.7885 82.4144 31.494C81.8159 31.1995 81.5167 30.7625 81.5167 30.183C81.5167 29.6035 81.7874 29.1048 82.3289 28.6868C82.5759 28.7438 82.8609 28.7865 83.1839 28.815C83.5069 28.853 83.9202 28.872 84.4237 28.872H86.0197C86.7607 28.872 87.326 28.9433 87.7155 29.0858C88.1145 29.2378 88.314 29.556 88.314 30.0405C88.314 30.563 87.9862 31.0095 87.3307 31.38ZM69.9171 28.6583C68.5205 28.6583 67.2523 28.3495 66.1123 27.732C64.9723 27.1145 64.065 26.2262 63.3905 25.0672C62.7255 23.8987 62.393 22.4927 62.393 20.8492C62.393 19.2437 62.7302 17.8567 63.4047 16.6882C64.0793 15.5196 64.9533 14.6171 66.0268 13.9806C67.1098 13.3441 68.245 13.0259 69.4325 13.0259C70.8386 13.0259 72.0071 13.3394 72.9381 13.9664C73.8786 14.5839 74.5816 15.4341 75.0471 16.5172C75.5221 17.6002 75.7596 18.8257 75.7596 20.1937C75.7596 20.5737 75.7406 20.9442 75.7026 21.3052C75.6646 21.6567 75.6219 21.9275 75.5744 22.1175H66.611C66.801 23.21 67.2475 24.027 67.9505 24.5685C68.6535 25.1005 69.5085 25.3665 70.5156 25.3665C71.0951 25.3665 71.6556 25.2857 72.1971 25.1242C72.7481 24.9532 73.2943 24.711 73.8358 24.3975L75.2181 26.991C74.4486 27.5325 73.5983 27.9458 72.6673 28.2308C71.7363 28.5158 70.8196 28.6583 69.9171 28.6583ZM66.554 19.2532H72.0546C72.0546 18.3982 71.8551 17.6999 71.4561 17.1584C71.0571 16.6074 70.4158 16.3319 69.5323 16.3319C68.8103 16.3319 68.169 16.5789 67.6085 17.0729C67.0575 17.5669 66.706 18.2937 66.554 19.2532ZM48.1001 8.69384V28.302H60.2555V24.6682H52.4606V8.69384H48.1001Z" fill="#1C1A20"/>
<path fill-rule="evenodd" clip-rule="evenodd" d="M114.734 28.6583C113.242 28.6583 112.197 28.2118 111.599 27.3187C111 26.4257 110.701 25.2335 110.701 23.742V7.22607H115.061V23.913C115.061 24.3975 115.147 24.73 115.318 24.9105C115.489 25.091 115.665 25.1812 115.845 25.1812H116.087C116.163 25.1717 116.263 25.1527 116.387 25.1242L116.9 28.302C116.662 28.397 116.358 28.4778 115.988 28.5443C115.627 28.6203 115.209 28.6583 114.734 28.6583ZM98.6453 28.6583C97.2963 28.6583 96.2133 28.2308 95.3963 27.3757C94.5888 26.5112 94.185 25.4472 94.185 24.1837C94.185 22.6067 94.85 21.3812 96.1801 20.5072C97.5196 19.6237 99.6713 19.0252 102.635 18.7117C102.597 18.0467 102.393 17.5099 102.023 17.1014C101.662 16.6929 101.063 16.4887 100.227 16.4887C99.6001 16.4887 98.9636 16.6027 98.3176 16.8307C97.6716 17.0587 96.9876 17.3769 96.2656 17.7854L94.7265 15.0066C95.6576 14.4176 96.6551 13.9426 97.7191 13.5816C98.7831 13.2111 99.9041 13.0259 101.082 13.0259C102.982 13.0259 104.436 13.5816 105.443 14.6931C106.459 15.8046 106.967 17.4957 106.967 19.7662V28.302H103.419L103.12 26.7772H103.006C102.369 27.3282 101.695 27.7795 100.982 28.131C100.27 28.4825 99.4908 28.6583 98.6453 28.6583ZM100.113 25.2952C100.617 25.2952 101.058 25.186 101.438 24.9675C101.828 24.7395 102.227 24.4212 102.635 24.0127V21.3337C101.011 21.5522 99.8851 21.8799 99.2581 22.317C98.6406 22.754 98.3318 23.2575 98.3318 23.8275C98.3318 24.3215 98.4933 24.692 98.8163 24.939C99.1393 25.1765 99.5716 25.2952 100.113 25.2952ZM80.9894 34.2443C81.9394 34.5103 82.9939 34.6433 84.1529 34.6433C85.8535 34.6433 87.3212 34.4106 88.5562 33.9451C89.8007 33.4891 90.7602 32.8573 91.4347 32.0498C92.1188 31.2518 92.4608 30.3398 92.4608 29.3138C92.4608 27.9838 91.9715 27.0242 90.993 26.4352C90.024 25.8367 88.6275 25.5375 86.8035 25.5375H84.3667C83.5402 25.5375 82.9559 25.4472 82.6139 25.2667C82.2814 25.0862 82.1152 24.806 82.1152 24.426C82.1152 24.1505 82.1532 23.932 82.2292 23.7705C82.3147 23.609 82.4572 23.4475 82.6567 23.286C82.9892 23.3905 83.3122 23.4665 83.6257 23.514C83.9392 23.5615 84.2289 23.5852 84.4949 23.5852C85.5779 23.5852 86.5612 23.4047 87.4447 23.0437C88.3282 22.6827 89.0265 22.1317 89.5395 21.3907C90.062 20.6497 90.3232 19.7092 90.3232 18.5692C90.3232 18.1797 90.271 17.8044 90.1665 17.4434C90.062 17.0824 89.9432 16.7832 89.8102 16.5457H92.2185V13.3821H86.775C86.452 13.2776 86.091 13.1921 85.6919 13.1256C85.3024 13.0591 84.9034 13.0259 84.4949 13.0259C83.4214 13.0259 82.4144 13.2301 81.4739 13.6386C80.5429 14.0376 79.7876 14.6409 79.2081 15.4484C78.6381 16.2464 78.3531 17.2439 78.3531 18.4409C78.3531 19.3149 78.5526 20.0844 78.9516 20.7494C79.3506 21.4144 79.8114 21.9275 80.3339 22.2885V22.4167C79.8684 22.7397 79.4741 23.153 79.1511 23.6565C78.8376 24.1505 78.6809 24.6682 78.6809 25.2097C78.6809 25.8272 78.8091 26.3402 79.0656 26.7487C79.3221 27.1572 79.6451 27.485 80.0347 27.732V27.8603C78.6286 28.6393 77.9256 29.6463 77.9256 30.8813C77.9256 31.7648 78.2011 32.482 78.7521 33.033C79.3031 33.5841 80.0489 33.9878 80.9894 34.2443ZM85.9627 20.3219C85.5732 20.7494 85.0839 20.9632 84.4949 20.9632C83.8869 20.9632 83.3882 20.7494 82.9987 20.3219C82.6092 19.8944 82.4144 19.2674 82.4144 18.4409C82.4144 17.6239 82.6092 17.0064 82.9987 16.5884C83.3882 16.1609 83.8869 15.9471 84.4949 15.9471C85.0934 15.9471 85.5874 16.1609 85.977 16.5884C86.3665 17.0064 86.5612 17.6239 86.5612 18.4409C86.5612 19.2674 86.3617 19.8944 85.9627 20.3219ZM87.3307 31.38C86.6847 31.7505 85.8582 31.9358 84.8512 31.9358C83.8252 31.9358 83.0129 31.7885 82.4144 31.494C81.8159 31.1995 81.5167 30.7625 81.5167 30.183C81.5167 29.6035 81.7874 29.1048 82.3289 28.6868C82.5759 28.7438 82.8609 28.7865 83.1839 28.815C83.5069 28.853 83.9202 28.872 84.4237 28.872H86.0197C86.7607 28.872 87.326 28.9433 87.7155 29.0858C88.1145 29.2378 88.314 29.556 88.314 30.0405C88.314 30.563 87.9862 31.0095 87.3307 31.38ZM69.9171 28.6583C68.5205 28.6583 67.2523 28.3495 66.1123 27.732C64.9723 27.1145 64.065 26.2262 63.3905 25.0672C62.7255 23.8987 62.393 22.4927 62.393 20.8492C62.393 19.2437 62.7302 17.8567 63.4047 16.6882C64.0793 15.5196 64.9533 14.6171 66.0268 13.9806C67.1098 13.3441 68.245 13.0259 69.4325 13.0259C70.8386 13.0259 72.0071 13.3394 72.9381 13.9664C73.8786 14.5839 74.5816 15.4341 75.0471 16.5172C75.5221 17.6002 75.7596 18.8257 75.7596 20.1937C75.7596 20.5737 75.7406 20.9442 75.7026 21.3052C75.6646 21.6567 75.6219 21.9275 75.5744 22.1175H66.611C66.801 23.21 67.2475 24.027 67.9505 24.5685C68.6535 25.1005 69.5085 25.3665 70.5156 25.3665C71.0951 25.3665 71.6556 25.2857 72.1971 25.1242C72.7481 24.9532 73.2943 24.711 73.8358 24.3975L75.2181 26.991C74.4486 27.5325 73.5983 27.9458 72.6673 28.2308C71.7363 28.5158 70.8196 28.6583 69.9171 28.6583ZM66.554 19.2532H72.0546C72.0546 18.3982 71.8551 17.6999 71.4561 17.1584C71.0571 16.6074 70.4158 16.3319 69.5323 16.3319C68.8103 16.3319 68.169 16.5789 67.6085 17.0729C67.0575 17.5669 66.706 18.2937 66.554 19.2532ZM48.1001 8.69384V28.302H60.2555V24.6682H52.4606V8.69384H48.1001Z" fill="#262626"/>
</g>
<defs>
<linearGradient id="paint0_linear_434_453" x1="7.86744" y1="8.625" x2="38.6504" y2="32.8447" gradientUnits="userSpaceOnUse">
<stop stop-color="#6047F3"/>
<stop offset="1" stop-color="#8D5AFA"/>
</linearGradient>
<linearGradient id="paint1_linear_434_453" x1="7.86744" y1="8.625" x2="38.6504" y2="32.8447" gradientUnits="userSpaceOnUse">
<stop stop-color="#6047F3"/>
<stop offset="1" stop-color="#8D5AFA"/>
</linearGradient>
<linearGradient id="paint2_linear_434_453" x1="7.86744" y1="8.625" x2="38.6504" y2="32.8447" gradientUnits="userSpaceOnUse">
<stop stop-color="#6047F3"/>
<stop offset="1" stop-color="#8D5AFA"/>
</linearGradient>
<clipPath id="clip0_434_453">
<rect width="197.6" height="39" fill="white" transform="translate(0 0.5)"/>
</clipPath>
</defs>
</svg>
