<svg width="64" height="64" viewBox="0 0 64 64" fill="none" xmlns="http://www.w3.org/2000/svg">
<path d="M53.0401 25.4667C52.8185 25.0269 52.4795 24.6571 52.0606 24.3982C51.6416 24.1393 51.1592 24.0015 50.6668 24L37.3335 24L37.3335 8.00001C37.3621 7.41517 37.1974 6.83716 36.8649 6.35521C36.5323 5.87326 36.0504 5.51416 35.4935 5.33335C34.9581 5.15719 34.3806 5.15521 33.844 5.32769C33.3074 5.50017 32.8393 5.83823 32.5068 6.29335L11.1735 35.6267C10.9062 36.013 10.7457 36.4631 10.7082 36.9313C10.6707 37.3996 10.7576 37.8695 10.9601 38.2933C11.1466 38.778 11.4705 39.1977 11.8921 39.5009C12.3137 39.804 12.8146 39.9775 13.3335 40L26.6668 40L26.6668 56C26.6672 56.5624 26.8454 57.1102 27.1758 57.5652C27.5063 58.0202 27.9721 58.359 28.5068 58.5334C28.7747 58.6164 29.053 58.6613 29.3335 58.6667C29.7542 58.6678 30.1693 58.5693 30.5447 58.3793C30.9201 58.1892 31.2452 57.9131 31.4935 57.5733L52.8268 28.24C53.1141 27.8421 53.286 27.3727 53.3237 26.8834C53.3613 26.394 53.2632 25.9038 53.0401 25.4667V25.4667ZM32.0001 47.7867L32.0001 37.3333C32.0001 36.6261 31.7192 35.9478 31.2191 35.4477C30.719 34.9476 30.0407 34.6667 29.3335 34.6667L18.6668 34.6667L32.0001 16.2133L32.0001 26.6667C32.0001 27.3739 32.2811 28.0522 32.7812 28.5523C33.2813 29.0524 33.9595 29.3333 34.6668 29.3333L45.3335 29.3333L32.0001 47.7867Z" fill="#533594"/>
</svg>
