<svg width="64" height="64" viewBox="0 0 64 64" fill="none" xmlns="http://www.w3.org/2000/svg">
<path d="M15.9998 16C15.9998 14.5855 16.5617 13.2289 17.5619 12.2287C18.5621 11.2285 19.9187 10.6666 21.3332 10.6666C22.0404 10.6666 22.7187 10.3857 23.2188 9.8856C23.7189 9.3855 23.9998 8.70722 23.9998 7.99998C23.9998 7.29273 23.7189 6.61446 23.2188 6.11436C22.7187 5.61426 22.0404 5.33331 21.3332 5.33331C18.5042 5.33331 15.7911 6.45712 13.7907 8.45751C11.7903 10.4579 10.6665 13.171 10.6665 16L10.6665 24C10.6665 25.4145 10.1046 26.771 9.10441 27.7712C8.10421 28.7714 6.74766 29.3333 5.33317 29.3333C4.62593 29.3333 3.94765 29.6143 3.44755 30.1144C2.94746 30.6145 2.6665 31.2927 2.6665 32C2.6665 32.7072 2.94746 33.3855 3.44755 33.8856C3.94765 34.3857 4.62593 34.6666 5.33317 34.6666C6.74766 34.6666 8.10421 35.2286 9.10441 36.2287C10.1046 37.2289 10.6665 38.5855 10.6665 40L10.6665 48C10.6665 50.829 11.7903 53.5421 13.7907 55.5425C15.7911 57.5428 18.5042 58.6666 21.3332 58.6666C22.0404 58.6666 22.7187 58.3857 23.2188 57.8856C23.7189 57.3855 23.9998 56.7072 23.9998 56C23.9998 55.2927 23.7189 54.6145 23.2188 54.1144C22.7187 53.6143 22.0404 53.3333 21.3332 53.3333C19.9187 53.3333 18.5621 52.7714 17.5619 51.7712C16.5617 50.771 15.9998 49.4145 15.9998 48L15.9998 40C15.9913 38.4814 15.6585 36.9821 15.0239 35.6025C14.3893 34.2229 13.4674 32.9946 12.3198 32C13.4674 31.0053 14.3893 29.7771 15.0239 28.3975C15.6585 27.0178 15.9913 25.5186 15.9998 24L15.9998 16ZM58.6665 29.3333C57.252 29.3333 55.8955 28.7714 54.8953 27.7712C53.8951 26.771 53.3332 25.4145 53.3332 24L53.3332 16C53.3332 13.171 52.2094 10.4579 50.209 8.45751C48.2086 6.45712 45.4955 5.33331 42.6665 5.33331C41.9593 5.33331 41.281 5.61426 40.7809 6.11436C40.2808 6.61446 39.9998 7.29273 39.9998 7.99998C39.9998 8.70722 40.2808 9.3855 40.7809 9.8856C41.281 10.3857 41.9593 10.6666 42.6665 10.6666C44.081 10.6666 45.4375 11.2285 46.4377 12.2287C47.4379 13.2289 47.9998 14.5855 47.9998 16L47.9998 24C48.0084 25.5186 48.3411 27.0178 48.9758 28.3974C49.6104 29.7771 50.5323 31.0053 51.6798 32C50.5323 32.9946 49.6104 34.2229 48.9758 35.6025C48.3411 36.9821 48.0084 38.4814 47.9998 40L47.9998 48C47.9998 49.4145 47.4379 50.771 46.4377 51.7712C45.4375 52.7714 44.081 53.3333 42.6665 53.3333C41.9593 53.3333 41.281 53.6143 40.7809 54.1144C40.2808 54.6145 39.9998 55.2927 39.9998 56C39.9998 56.7072 40.2808 57.3855 40.7809 57.8856C41.281 58.3857 41.9593 58.6666 42.6665 58.6666C45.4955 58.6666 48.2086 57.5428 50.209 55.5424C52.2094 53.5421 53.3332 50.829 53.3332 48L53.3332 40C53.3332 38.5855 53.8951 37.2289 54.8953 36.2287C55.8955 35.2285 57.252 34.6666 58.6665 34.6666C59.3737 34.6666 60.052 34.3857 60.5521 33.8856C61.0522 33.3855 61.3332 32.7072 61.3332 32C61.3332 31.2927 61.0522 30.6145 60.5521 30.1144C60.052 29.6143 59.3737 29.3333 58.6665 29.3333Z" fill="#533594"/>
</svg>
