<svg width="72" height="72" viewBox="0 0 72 72" fill="none" xmlns="http://www.w3.org/2000/svg">
<path d="M46.9018 33.4413C50.1126 31.8071 52.1214 28.929 51.6522 24.1342C51.0202 17.5816 45.3576 15.3844 38.2092 14.7586L38.2079 5.66968H32.6693L32.6677 14.5196C31.2105 14.5196 29.725 14.5482 28.2462 14.5779L28.245 5.67088L22.7114 5.67037L22.7104 14.7571C21.5111 14.7816 20.3334 14.8048 19.1834 14.8048V14.7779L11.5439 14.7748L11.545 20.6827C11.545 20.6827 15.6351 20.6059 15.5677 20.6805C17.8103 20.682 18.5425 21.9832 18.7531 23.1062L18.7548 33.4605V48.0048C18.6561 48.7096 18.2406 49.8358 16.6725 49.8379C16.7439 49.9006 12.6436 49.8372 12.6436 49.8372L11.545 56.4435H18.7514C20.0942 56.4451 21.4136 56.4659 22.708 56.4763L22.7128 65.6681L28.245 65.6697L28.2434 56.5742C29.7655 56.6052 31.2346 56.6186 32.6696 56.6167L32.6681 65.6697H38.2065L38.2096 56.4932C47.5193 55.9589 54.0369 53.6157 54.8472 44.8806C55.5004 37.8479 52.1874 34.7087 46.9018 33.4413ZM28.3786 21.0815C31.5022 21.0815 41.3262 20.0877 41.3276 26.6072C41.3262 32.8575 31.5053 32.1273 28.3786 32.1273V21.0815ZM28.3761 49.8827L28.3786 37.7036C32.1316 37.7026 43.9031 36.6247 43.9046 43.7904C43.9062 50.6623 32.1316 49.8799 28.3761 49.8827Z" fill="#533594"/>
<path d="M46.9018 33.4413C50.1126 31.8071 52.1214 28.929 51.6522 24.1342C51.0202 17.5816 45.3576 15.3844 38.2092 14.7586L38.2079 5.66968H32.6693L32.6677 14.5196C31.2105 14.5196 29.725 14.5482 28.2462 14.5779L28.245 5.67088L22.7114 5.67037L22.7104 14.7571C21.5111 14.7816 20.3334 14.8048 19.1834 14.8048V14.7779L11.5439 14.7748L11.545 20.6827C11.545 20.6827 15.6351 20.6059 15.5677 20.6805C17.8103 20.682 18.5425 21.9832 18.7531 23.1062L18.7548 33.4605V48.0048C18.6561 48.7096 18.2406 49.8358 16.6725 49.8379C16.7439 49.9006 12.6436 49.8372 12.6436 49.8372L11.545 56.4435H18.7514C20.0942 56.4451 21.4136 56.4659 22.708 56.4763L22.7128 65.6681L28.245 65.6697L28.2434 56.5742C29.7655 56.6052 31.2346 56.6186 32.6696 56.6167L32.6681 65.6697H38.2065L38.2096 56.4932C47.5193 55.9589 54.0369 53.6157 54.8472 44.8806C55.5004 37.8479 52.1874 34.7087 46.9018 33.4413ZM28.3786 21.0815C31.5022 21.0815 41.3262 20.0877 41.3276 26.6072C41.3262 32.8575 31.5053 32.1273 28.3786 32.1273V21.0815ZM28.3761 49.8827L28.3786 37.7036C32.1316 37.7026 43.9031 36.6247 43.9046 43.7904C43.9062 50.6623 32.1316 49.8799 28.3761 49.8827Z" fill="white" fill-opacity="0.2"/>
</svg>
