<svg width="64" height="64" viewBox="0 0 64 64" fill="none" xmlns="http://www.w3.org/2000/svg">
<path d="M56.0002 53.3333L48.0002 53.3333C47.2929 53.3333 46.6147 53.0524 46.1146 52.5523C45.6145 52.0522 45.3335 51.3739 45.3335 50.6667L45.3335 42.6667C48.5165 42.6373 51.584 41.4702 53.9814 39.3763C56.3788 37.2823 57.9481 34.3998 58.4055 31.2497C58.8628 28.0997 58.1782 24.8899 56.4752 22.2006C54.7723 19.5113 52.1634 17.52 49.1202 16.5867C47.4908 12.8427 44.6788 9.73621 41.115 7.74327C37.5513 5.75034 33.4323 4.98089 29.3894 5.55283C25.3465 6.12477 21.6027 8.00655 18.7315 10.9098C15.8604 13.8131 14.0204 17.5776 13.4935 21.6267C10.9511 22.2355 8.72079 23.7569 7.22616 25.9018C5.73154 28.0468 5.07669 30.6659 5.38597 33.2619C5.69525 35.8579 6.94712 38.2499 8.90384 39.9836C10.8606 41.7174 13.3859 42.6722 16.0002 42.6667L18.6669 42.6667L18.6669 50.6667C18.6669 51.3739 18.3859 52.0522 17.8858 52.5523C17.3857 53.0524 16.7074 53.3333 16.0002 53.3333L8.0002 53.3333C7.29295 53.3333 6.61468 53.6143 6.11458 54.1144C5.61448 54.6145 5.33353 55.2928 5.33353 56C5.33353 56.7073 5.61448 57.3855 6.11458 57.8856C6.61468 58.3857 7.29295 58.6667 8.0002 58.6667L16.0002 58.6667C18.1219 58.6667 20.1568 57.8238 21.6571 56.3235C23.1573 54.8232 24.0002 52.7884 24.0002 50.6667L24.0002 42.6667L29.3335 42.6667L29.3335 56C29.3335 56.7072 29.6145 57.3855 30.1146 57.8856C30.6147 58.3857 31.2929 58.6667 32.0002 58.6667C32.7074 58.6667 33.3857 58.3857 33.8858 57.8856C34.3859 57.3855 34.6669 56.7072 34.6669 56L34.6669 42.6667L40.0002 42.6667L40.0002 50.6667C40.0002 52.7884 40.843 54.8232 42.3433 56.3235C43.8436 57.8238 45.8785 58.6667 48.0002 58.6667L56.0002 58.6667C56.7074 58.6667 57.3857 58.3857 57.8858 57.8856C58.3859 57.3855 58.6669 56.7072 58.6669 56C58.6669 55.2928 58.3859 54.6145 57.8858 54.1144C57.3857 53.6143 56.7074 53.3333 56.0002 53.3333ZM16.0002 37.3333C14.5857 37.3333 13.2292 36.7714 12.229 35.7712C11.2288 34.771 10.6669 33.4145 10.6669 32C10.6669 30.5855 11.2288 29.229 12.229 28.2288C13.2292 27.2286 14.5857 26.6667 16.0002 26.6667C16.7074 26.6667 17.3857 26.3857 17.8858 25.8856C18.3859 25.3855 18.6669 24.7072 18.6669 24C18.6737 20.8461 19.7983 17.7967 21.8409 15.3936C23.8835 12.9904 26.7119 11.3892 29.8235 10.8743C32.9351 10.3595 36.1285 10.9643 38.8364 12.5814C41.5442 14.1984 43.5911 16.723 44.6135 19.7067C44.766 20.1649 45.04 20.5732 45.4063 20.8878C45.7726 21.2025 46.2175 21.4118 46.6935 21.4933C48.5446 21.8126 50.2243 22.7732 51.4384 24.2066C52.6524 25.64 53.3233 27.4549 53.3335 29.3333C53.3335 31.4551 52.4907 33.4899 50.9904 34.9902C49.4901 36.4905 47.4553 37.3333 45.3335 37.3333L16.0002 37.3333Z" fill="#533594"/>
</svg>
