<svg width="151" height="28" viewBox="0 0 151 28" fill="none" xmlns="http://www.w3.org/2000/svg">
<path d="M1.4 1.5H4.13V23.515H11.13V26H1.4V1.5ZM23.307 14.8H17.322V23.515H24.672V26H14.592V1.5H24.672V3.985H17.322V12.35H23.307V14.8ZM33.8893 1.255C35.7326 1.255 37.1093 1.80333 38.0193 2.9C38.9526 3.99667 39.4193 5.50167 39.4193 7.415V9.515H36.8293V7.275C36.8293 4.91833 35.8726 3.74 33.9593 3.74C33.0026 3.74 32.2793 4.055 31.7893 4.685C31.3226 5.29167 31.0893 6.155 31.0893 7.275V20.225C31.0893 21.345 31.3226 22.22 31.7893 22.85C32.2793 23.4567 33.0026 23.76 33.9593 23.76C35.8726 23.76 36.8293 22.5817 36.8293 20.225V15.325H34.3093V12.875H39.4193V20.085C39.4193 21.9983 38.9526 23.5033 38.0193 24.6C37.1093 25.6967 35.7326 26.245 33.8893 26.245C32.0693 26.245 30.6926 25.6967 29.7593 24.6C28.8493 23.5033 28.3943 21.9983 28.3943 20.085V7.415C28.3943 5.50167 28.8493 3.99667 29.7593 2.9C30.6926 1.80333 32.0693 1.255 33.8893 1.255ZM45.1886 26H42.6686L47.3586 1.5H51.3136L56.0036 26H53.2736L52.3286 21.065H46.1336L45.1886 26ZM51.9436 18.72L49.1786 4.58L46.4836 18.72H51.9436ZM59.5342 1.5H62.2642V23.515H69.2642V26H59.5342V1.5ZM85.0557 1.5C86.9224 1.5 88.2757 1.94333 89.1157 2.83C89.9557 3.71667 90.3757 5.08167 90.3757 6.925V8.08C90.3757 9.43333 90.1541 10.5067 89.7107 11.3C89.2674 12.07 88.5324 12.6183 87.5057 12.945C89.6991 13.5517 90.7957 15.3017 90.7957 18.195V20.26C90.7957 22.1267 90.3291 23.55 89.3957 24.53C88.4857 25.51 87.0857 26 85.1957 26H79.5607V1.5H85.0557ZM84.3907 11.895C85.5341 11.895 86.3624 11.6617 86.8757 11.195C87.4124 10.7283 87.6807 9.87667 87.6807 8.64V7.205C87.6807 6.10833 87.4707 5.30333 87.0507 4.79C86.6307 4.25333 85.9424 3.985 84.9857 3.985H82.2907V11.895H84.3907ZM85.1957 23.515C86.1991 23.515 86.9341 23.2467 87.4007 22.71C87.8674 22.1733 88.1007 21.3333 88.1007 20.19V18.02C88.1007 16.69 87.8324 15.7567 87.2957 15.22C86.7591 14.66 85.8841 14.38 84.6707 14.38H82.2907V23.515H85.1957ZM94.6668 1.5H97.3968V23.515H104.397V26H94.6668V1.5ZM107.649 7.415C107.649 5.50167 108.115 3.99667 109.049 2.9C110.005 1.80333 111.405 1.255 113.249 1.255C115.092 1.255 116.492 1.80333 117.449 2.9C118.405 3.99667 118.884 5.50167 118.884 7.415V20.085C118.884 21.9983 118.405 23.5033 117.449 24.6C116.492 25.6967 115.092 26.245 113.249 26.245C111.429 26.245 110.04 25.6967 109.084 24.6C108.127 23.5033 107.649 21.9983 107.649 20.085V7.415ZM110.344 20.225C110.344 21.3683 110.589 22.2433 111.079 22.85C111.569 23.4567 112.292 23.76 113.249 23.76C115.185 23.76 116.154 22.5817 116.154 20.225V7.275C116.154 6.155 115.909 5.29167 115.419 4.685C114.952 4.055 114.229 3.74 113.249 3.74C112.292 3.74 111.569 4.055 111.079 4.685C110.589 5.29167 110.344 6.155 110.344 7.275V20.225ZM128.147 1.255C129.991 1.255 131.367 1.80333 132.277 2.9C133.211 3.99667 133.677 5.50167 133.677 7.415V9.62H131.087V7.275C131.087 4.91833 130.131 3.74 128.217 3.74C127.261 3.74 126.537 4.055 126.047 4.685C125.581 5.29167 125.347 6.155 125.347 7.275V20.225C125.347 21.345 125.581 22.22 126.047 22.85C126.537 23.4567 127.261 23.76 128.217 23.76C130.131 23.76 131.087 22.5817 131.087 20.225V17.04H133.677V20.085C133.677 21.9983 133.211 23.5033 132.277 24.6C131.367 25.6967 129.991 26.245 128.147 26.245C126.327 26.245 124.951 25.6967 124.017 24.6C123.107 23.5033 122.652 21.9983 122.652 20.085V7.415C122.652 5.50167 123.107 3.99667 124.017 2.9C124.951 1.80333 126.327 1.255 128.147 1.255ZM140.288 17.775V26H137.558V1.5H140.288V13.33L146.798 1.5H149.563L143.368 12.665L149.773 26H146.973L141.723 15.36L140.288 17.775Z" fill="white"/>
</svg>
