<svg width="546" height="820" viewBox="0 0 546 820" fill="none" xmlns="http://www.w3.org/2000/svg">
<g opacity="0.3">
<mask id="path-1-outside-1_383_1833" maskUnits="userSpaceOnUse" x="0" y="0" width="546" height="827" fill="black">
<rect fill="white" width="546" height="827"/>
<path fill-rule="evenodd" clip-rule="evenodd" d="M307.128 480.852L373.635 516.964L233.365 657.457L307.128 480.852ZM375.056 518.286L480.18 642.329L385.695 713.473L375.056 518.286ZM309.753 341.763L307.346 479.78L373.511 515.707L309.753 341.763ZM361.805 451.439L374.925 516.557C374.933 516.569 374.939 516.581 374.945 516.594C374.953 516.61 374.959 516.627 374.964 516.644L476.984 637.017L361.805 451.439ZM2.63165 186.727L78.0277 380.791L171.356 319.867L2.63165 186.727ZM308.797 339.563L173.452 320.61L306.375 478.735L308.797 339.563ZM309.917 339.224L414.055 254.577L360.658 447.44L309.917 339.224ZM2.23236 185.133L71.0104 124.177L170.723 318.086L2.23236 185.133ZM19.5253 3.46447L70.5347 123.203V123.243L2.0722 183.937L19.5253 3.46447ZM172.217 318.82L72.0376 123.995L263.194 152.581L263.188 152.592L263.159 152.621L172.217 318.82ZM308.645 338.516L263.752 153.572L172.978 319.511L308.645 338.516ZM500.241 265.94L415.329 253.786L361.935 446.554L500.241 265.94ZM543.947 473.493L500.875 266.738L361.715 448.473L543.947 473.493ZM172.049 320.578L304.948 478.705L78.8407 381.436L172.049 320.578ZM360.302 449.103L313.668 349.563L372.642 510.393L360.302 449.103ZM361.778 449.54L543.897 474.521L480.813 641.321L361.778 449.54ZM196.111 603.32L13.4197 532.172L77.8009 382.73L196.111 603.32ZM78.9215 382.619L306.02 480.297L197.319 603.4L78.9215 382.619ZM305.226 482.682L231.793 658.556L197.82 604.317L305.226 482.682ZM480.345 643.493L472.989 824.099L386.001 714.539L480.345 643.493ZM374.066 517.957L384.746 713.711L232.782 659.467L374.066 517.957Z"/>
</mask>
<path d="M196.863 604.669L196.936 604.483L196.998 604.507L197.033 604.563L196.863 604.669ZM231.4 659.82L231.57 659.714L231.592 659.749L231.598 659.791L231.4 659.82ZM231.714 660.14L231.763 659.946L231.772 659.948L231.781 659.952L231.714 660.14ZM384.957 714.847L385.024 714.659L385.078 714.678L385.114 714.723L384.957 714.847ZM472.91 825.603L473.066 825.478L473.099 825.519L473.107 825.57L472.91 825.603ZM473.229 825.942L473.278 825.748L473.297 825.753L473.315 825.761L473.229 825.942ZM473.464 826L473.605 825.858L473.948 826.2H473.464V826ZM473.424 825.961L473.283 826.102L472.94 825.76H473.424V825.961ZM473.582 825.961L473.661 826.144L473.623 826.161H473.582V825.961ZM501.625 265.584L501.43 265.625L501.426 265.607L501.425 265.588L501.625 265.584ZM501.625 265.564L501.425 265.568L501.425 265.551L501.427 265.534L501.625 265.564ZM501.634 265.451L501.833 265.446L501.833 265.447L501.634 265.451ZM501.632 265.42L501.83 265.397L501.831 265.399L501.632 265.42ZM501.626 265.386L501.805 265.296L501.814 265.316L501.819 265.336L501.626 265.386ZM501.23 265.069L501.259 264.871L501.269 264.873L501.23 265.069ZM415.043 252.716V252.516H415.058L415.072 252.518L415.043 252.716ZM414.566 252.94L414.725 253.062L414.711 253.081L414.693 253.095L414.566 252.94ZM309.614 338.256L309.74 338.411L309.494 338.611L309.419 338.303L309.614 338.256ZM264.425 152.107L264.617 152.052L264.619 152.06L264.425 152.107ZM264.105 151.751L264.045 151.941L264.033 151.938L264.022 151.932L264.105 151.751ZM264.062 151.733L264.13 151.545L264.131 151.545L264.062 151.733ZM263.99 151.711L264.019 151.513L264.029 151.514L264.038 151.517L263.99 151.711ZM71.4672 122.886L71.4376 123.083L71.327 123.067L71.2832 122.964L71.4672 122.886ZM19.7166 1.44343L19.5327 1.52184L19.5166 1.48427V1.44343H19.7166ZM19.7086 1.37179L19.5145 1.42026L19.5085 1.3964V1.37179H19.7086ZM19.7031 1.32658L19.5085 1.37312V1.373L19.7031 1.32658ZM19.6957 1.30217L19.8824 1.2303L19.8839 1.23442L19.6957 1.30217ZM19.6921 1.29282L19.8764 1.21483L19.8787 1.22096L19.6921 1.29282ZM19.689 1.28553L19.8721 1.20495L19.8732 1.20758L19.689 1.28553ZM19.6848 1.27579L19.8652 1.1893L19.8678 1.19522L19.6848 1.27579ZM19.629 1.19197L19.4764 1.32117L19.4623 1.30452L19.4521 1.28523L19.629 1.19197ZM19.6038 1.15053L19.7668 1.03472L19.7672 1.03516L19.6038 1.15053ZM19.5882 1.13045L19.7405 1.00081L19.7405 1.00083L19.5882 1.13045ZM19.5505 1.09459L19.4304 1.25457L19.4274 1.25219L19.5505 1.09459ZM19.5421 1.08803L19.6622 0.928044L19.6652 0.930422L19.5421 1.08803ZM19.5333 1.08146L19.6517 0.920241L19.6534 0.921511L19.5333 1.08146ZM19.5229 1.07378L19.6377 0.909942L19.6412 0.912571L19.5229 1.07378ZM19.4963 1.05632L19.6016 0.8863L19.6017 0.88635L19.4963 1.05632ZM19.4474 1.02938L19.5312 0.847739L19.5346 0.849385L19.4474 1.02938ZM19.4332 1.02282L19.5116 0.838713L19.517 0.841208L19.4332 1.02282ZM19.4149 1.01501L19.4871 0.828403L19.4932 0.830987L19.4149 1.01501ZM19.3986 1.00871L19.4664 0.820474L19.4708 0.822199L19.3986 1.00871ZM19.3888 1.00519L19.4514 0.815141L19.4565 0.81701L19.3888 1.00519ZM77.1338 381.768L77.2384 381.597L77.386 381.688L77.3175 381.847L77.1338 381.768ZM77.1103 381.753V381.553H77.1668L77.2149 381.583L77.1103 381.753ZM196.791 604.855L13.0958 533.32L13.2409 532.948L196.936 604.483L196.791 604.855ZM231.231 659.926L196.694 604.775L197.033 604.563L231.57 659.714L231.231 659.926ZM231.665 660.334C231.553 660.306 231.449 660.242 231.369 660.163C231.291 660.084 231.221 659.976 231.203 659.849L231.598 659.791C231.601 659.81 231.616 659.843 231.652 659.879C231.687 659.914 231.729 659.938 231.763 659.946L231.665 660.334ZM384.89 715.036L231.647 660.328L231.781 659.952L385.024 714.659L384.89 715.036ZM472.753 825.727L384.801 714.972L385.114 714.723L473.066 825.478L472.753 825.727ZM473.179 826.136C472.948 826.077 472.757 825.906 472.712 825.635L473.107 825.57C473.123 825.665 473.181 825.723 473.278 825.748L473.179 826.136ZM473.464 826.2C473.324 826.2 473.223 826.16 473.143 826.122L473.315 825.761C473.367 825.786 473.408 825.8 473.464 825.8V826.2ZM473.565 825.819L473.605 825.858L473.322 826.142L473.283 826.102L473.565 825.819ZM473.582 826.161H473.424V825.76H473.582V826.161ZM473.672 826.14L473.661 826.144L473.503 825.777L473.514 825.772L473.672 826.14ZM501.821 265.543L545.196 473.703L544.804 473.784L501.43 265.625L501.821 265.543ZM501.825 265.56L501.825 265.579L501.425 265.588L501.425 265.568L501.825 265.56ZM501.833 265.447C501.835 265.497 501.83 265.547 501.823 265.594L501.427 265.534C501.432 265.503 501.434 265.476 501.434 265.456L501.833 265.447ZM501.831 265.399C501.832 265.416 501.833 265.432 501.833 265.446L501.434 265.456C501.433 265.448 501.433 265.444 501.433 265.441L501.831 265.399ZM501.819 265.336C501.825 265.358 501.828 265.378 501.83 265.397L501.433 265.442C501.432 265.437 501.432 265.435 501.432 265.435L501.819 265.336ZM501.269 264.873C501.542 264.927 501.705 265.097 501.805 265.296L501.447 265.475C501.388 265.358 501.314 265.29 501.191 265.265L501.269 264.873ZM415.072 252.518L501.258 264.871L501.202 265.267L415.015 252.914L415.072 252.518ZM414.408 252.818C414.558 252.624 414.815 252.516 415.043 252.516V252.916C414.924 252.916 414.79 252.978 414.725 253.062L414.408 252.818ZM309.487 338.101L414.44 252.785L414.693 253.095L309.74 338.411L309.487 338.101ZM264.619 152.06L309.808 338.209L309.419 338.303L264.23 152.154L264.619 152.06ZM264.166 151.56C264.392 151.632 264.551 151.82 264.617 152.052L264.232 152.162C264.196 152.035 264.121 151.965 264.045 151.941L264.166 151.56ZM264.131 151.545C264.15 151.552 264.17 151.56 264.189 151.569L264.022 151.932C264.013 151.928 264.003 151.924 263.993 151.92L264.131 151.545ZM264.038 151.517C264.069 151.525 264.1 151.534 264.13 151.545L263.993 151.921C263.977 151.915 263.96 151.91 263.941 151.905L264.038 151.517ZM71.4968 122.688L264.019 151.513L263.96 151.909L71.4376 123.083L71.4968 122.688ZM19.9006 1.36503L71.6512 122.807L71.2832 122.964L19.5327 1.52184L19.9006 1.36503ZM19.9026 1.32333C19.913 1.36507 19.9166 1.40603 19.9166 1.44343H19.5166C19.5166 1.43107 19.5154 1.42366 19.5145 1.42026L19.9026 1.32333ZM19.8976 1.28004C19.9045 1.30917 19.9086 1.33988 19.9086 1.37179H19.5085C19.5085 1.3735 19.5088 1.37405 19.5085 1.37312L19.8976 1.28004ZM19.8839 1.23442C19.8889 1.24827 19.8937 1.26361 19.8976 1.28016L19.5085 1.373C19.5086 1.37325 19.5084 1.37227 19.5075 1.36993L19.8839 1.23442ZM19.8787 1.22096L19.8823 1.23031L19.509 1.37403L19.5054 1.36468L19.8787 1.22096ZM19.8732 1.20758L19.8763 1.21488L19.5079 1.37076L19.5048 1.36347L19.8732 1.20758ZM19.8678 1.19522L19.8721 1.20495L19.506 1.3661L19.5017 1.35636L19.8678 1.19522ZM19.7817 1.06276C19.8127 1.09943 19.8423 1.14178 19.8651 1.18934L19.5044 1.36224C19.4996 1.3522 19.4908 1.33826 19.4764 1.32117L19.7817 1.06276ZM19.7672 1.03516C19.782 1.05616 19.7949 1.07763 19.806 1.09871L19.4521 1.28523C19.4478 1.27716 19.4439 1.27078 19.4404 1.2659L19.7672 1.03516ZM19.7405 1.00083C19.7499 1.01184 19.7587 1.02316 19.7668 1.03472L19.4407 1.26634C19.439 1.26394 19.4374 1.26186 19.4359 1.26007L19.7405 1.00083ZM19.6705 0.934637C19.6976 0.954941 19.7208 0.977604 19.7405 1.00081L19.4359 1.26009C19.4327 1.25635 19.4308 1.25482 19.4304 1.25454L19.6705 0.934637ZM19.6652 0.930422L19.6736 0.936986L19.4274 1.25219L19.4189 1.24563L19.6652 0.930422ZM19.6534 0.921511L19.6622 0.928074L19.422 1.24798L19.4133 1.24141L19.6534 0.921511ZM19.6412 0.912571L19.6517 0.92025L19.415 1.24268L19.4045 1.235L19.6412 0.912571ZM19.6017 0.88635C19.6132 0.893451 19.6252 0.901299 19.6376 0.909983L19.4081 1.23759C19.403 1.23401 19.3973 1.23029 19.3909 1.2263L19.6017 0.88635ZM19.5346 0.849385C19.5578 0.860608 19.5801 0.872988 19.6016 0.8863L19.391 1.22635C19.3806 1.21991 19.3704 1.21427 19.3603 1.20938L19.5346 0.849385ZM19.517 0.841208L19.5312 0.847772L19.3637 1.211L19.3494 1.20443L19.517 0.841208ZM19.4932 0.830987L19.5115 0.838794L19.3549 1.20685L19.3365 1.19904L19.4932 0.830987ZM19.4708 0.822199L19.4871 0.828505L19.3427 1.20152L19.3264 1.19522L19.4708 0.822199ZM19.4565 0.81701L19.4663 0.820528L19.3309 1.19689L19.3211 1.19337L19.4565 0.81701ZM19.4355 0.810022L19.4514 0.815213L19.3263 1.19517L19.3105 1.18998L19.4355 0.810022ZM77.0292 381.938L77.0057 381.924L77.2149 381.583L77.2384 381.597L77.0292 381.938ZM12.7427 530.737L76.9501 381.689L77.3175 381.847L13.1101 530.895L12.7427 530.737ZM77.1103 381.953H77.1004V381.553H77.1103V381.953ZM1.71997 186.707L76.9168 380.22L76.5439 380.365L1.34711 186.851L1.71997 186.707ZM0.800903 184.594L18.32 3.36385L18.7181 3.40234L1.19904 184.633L0.800903 184.594ZM481.345 642.133L544.359 475.572L544.733 475.714L481.719 642.275L481.345 642.133ZM481.583 643.393L474.174 824.644L473.775 824.628L481.183 643.377L481.583 643.393ZM373.635 516.964L373.826 516.612L374.296 516.868L373.918 517.247L373.635 516.964ZM307.128 480.852L306.759 480.698L306.93 480.289L307.319 480.5L307.128 480.852ZM233.365 657.457L233.648 657.74L232.996 657.303L233.365 657.457ZM480.18 642.329L480.485 642.07L480.759 642.393L480.42 642.648L480.18 642.329ZM375.056 518.286L374.656 518.308L374.591 517.12L375.361 518.028L375.056 518.286ZM385.695 713.473L385.935 713.793L385.336 714.244L385.295 713.495L385.695 713.473ZM307.346 479.78L307.155 480.132L306.942 480.016L306.946 479.773L307.346 479.78ZM309.753 341.763L309.353 341.756L310.128 341.625L309.753 341.763ZM373.511 515.707L373.886 515.569L374.251 516.564L373.32 516.058L373.511 515.707ZM374.925 516.557L374.584 516.764L374.547 516.704L374.533 516.636L374.925 516.557ZM361.805 451.439L361.413 451.518L362.145 451.228L361.805 451.439ZM374.945 516.594L374.582 516.762L374.582 516.762L374.945 516.594ZM374.964 516.644L374.659 516.902L374.603 516.837L374.579 516.754L374.964 516.644ZM476.984 637.017L477.324 636.806L476.679 637.276L476.984 637.017ZM2.63165 186.727L2.25879 186.871L1.72729 185.503L2.87946 186.413L2.63165 186.727ZM78.0277 380.791L78.2464 381.126L77.8335 381.396L77.6549 380.936L78.0277 380.791ZM171.356 319.867L171.603 319.553L172.04 319.898L171.574 320.202L171.356 319.867ZM173.452 320.61L173.146 320.867L172.475 320.069L173.507 320.214L173.452 320.61ZM308.797 339.563L308.852 339.167L309.203 339.216L309.197 339.57L308.797 339.563ZM306.375 478.735L306.775 478.742L306.757 479.811L306.069 478.993L306.375 478.735ZM414.055 254.577L413.802 254.266L414.774 253.476L414.44 254.683L414.055 254.577ZM309.917 339.224L309.555 339.393L309.422 339.11L309.665 338.913L309.917 339.224ZM360.658 447.44L361.043 447.547L360.755 448.589L360.296 447.61L360.658 447.44ZM71.0104 124.177L70.7451 123.878L71.1306 123.536L71.3661 123.994L71.0104 124.177ZM2.23236 185.133L1.98456 185.447L1.60919 185.151L1.96704 184.834L2.23236 185.133ZM170.723 318.086L171.079 317.903L170.475 318.4L170.723 318.086ZM70.5347 123.203L70.9027 123.046L70.9347 123.122V123.203H70.5347ZM19.5253 3.46447L19.1271 3.42597L19.8933 3.3077L19.5253 3.46447ZM70.5347 123.243H70.9347V123.423L70.8 123.542L70.5347 123.243ZM2.0722 183.937L2.33759 184.236L1.57611 184.911L1.67407 183.899L2.0722 183.937ZM72.0376 123.995L71.6819 124.178L71.325 123.484L72.0967 123.599L72.0376 123.995ZM172.217 318.82L172.567 319.012L172.206 319.673L171.861 319.003L172.217 318.82ZM263.194 152.581L263.253 152.186L263.82 152.27L263.545 152.773L263.194 152.581ZM263.188 152.592L263.539 152.784L263.511 152.835L263.471 152.875L263.188 152.592ZM263.159 152.621L262.808 152.429L262.836 152.379L262.876 152.339L263.159 152.621ZM263.752 153.572L263.401 153.38L263.897 152.473L264.141 153.478L263.752 153.572ZM308.645 338.516L309.034 338.422L309.173 338.994L308.59 338.913L308.645 338.516ZM172.978 319.511L172.922 319.907L172.349 319.827L172.627 319.319L172.978 319.511ZM415.329 253.786L414.943 253.679L415.037 253.34L415.386 253.39L415.329 253.786ZM500.241 265.94L500.298 265.544L500.974 265.641L500.559 266.183L500.241 265.94ZM361.935 446.554L362.253 446.797L361.55 446.447L361.935 446.554ZM500.875 266.738L500.558 266.495L501.089 265.801L501.267 266.656L500.875 266.738ZM543.947 473.493L544.339 473.411L544.455 473.966L543.893 473.889L543.947 473.493ZM361.715 448.473L361.66 448.869L360.979 448.776L361.397 448.23L361.715 448.473ZM304.948 478.705L305.254 478.448L304.79 479.073L304.948 478.705ZM172.049 320.578L171.831 320.243L172.127 320.05L172.355 320.321L172.049 320.578ZM78.8407 381.436L78.6826 381.804L77.9977 381.509L78.622 381.101L78.8407 381.436ZM313.668 349.563L313.293 349.701L314.031 349.393L313.668 349.563ZM360.302 449.103L360.664 448.933L360.684 448.977L360.694 449.024L360.302 449.103ZM372.642 510.393L373.034 510.314L372.266 510.531L372.642 510.393ZM543.897 474.521L543.951 474.124L544.448 474.193L544.271 474.662L543.897 474.521ZM361.778 449.54L361.438 449.751L360.989 449.028L361.832 449.144L361.778 449.54ZM480.813 641.321L481.187 641.463L480.901 642.221L480.473 641.532L480.813 641.321ZM13.4197 532.172L13.2745 532.544L12.8884 532.394L13.0523 532.013L13.4197 532.172ZM196.111 603.32L196.463 603.131L196.975 604.086L195.966 603.693L196.111 603.32ZM77.8009 382.73L77.4335 382.572L77.7616 381.811L78.1534 382.541L77.8009 382.73ZM306.02 480.297L306.179 479.93L306.686 480.148L306.32 480.562L306.02 480.297ZM78.9215 382.619L78.569 382.808L78.028 381.8L79.0795 382.252L78.9215 382.619ZM197.319 603.4L197.618 603.665L197.238 604.096L196.966 603.589L197.319 603.4ZM231.793 658.556L232.162 658.71L231.865 659.424L231.454 658.768L231.793 658.556ZM305.226 482.682L304.926 482.417L305.595 482.836L305.226 482.682ZM197.82 604.317L197.481 604.529L197.323 604.276L197.52 604.052L197.82 604.317ZM472.989 824.099L473.389 824.116L473.345 825.191L472.676 824.348L472.989 824.099ZM480.345 643.493L480.104 643.174L480.779 642.666L480.745 643.509L480.345 643.493ZM386.001 714.539L385.688 714.788L385.432 714.467L385.76 714.22L386.001 714.539ZM384.746 713.711L385.145 713.689L385.178 714.29L384.611 714.088L384.746 713.711ZM374.066 517.957L373.783 517.675L374.417 517.04L374.466 517.935L374.066 517.957ZM232.782 659.467L232.647 659.844L232.053 659.631L232.499 659.184L232.782 659.467ZM373.444 517.315L306.937 481.203L307.319 480.5L373.826 516.612L373.444 517.315ZM233.082 657.174L373.352 516.681L373.918 517.247L233.648 657.74L233.082 657.174ZM307.497 481.006L233.734 657.611L232.996 657.303L306.759 480.698L307.497 481.006ZM479.875 642.587L374.751 518.545L375.361 518.028L480.485 642.07L479.875 642.587ZM385.454 713.154L479.939 642.009L480.42 642.648L385.935 713.793L385.454 713.154ZM375.455 518.264L386.094 713.452L385.295 713.495L374.656 518.308L375.455 518.264ZM306.946 479.773L309.353 341.756L310.153 341.77L307.746 479.787L306.946 479.773ZM373.32 516.058L307.155 480.132L307.537 479.429L373.702 515.355L373.32 516.058ZM310.128 341.625L373.886 515.569L373.135 515.844L309.377 341.901L310.128 341.625ZM374.533 516.636L361.413 451.518L362.197 451.36L375.317 516.478L374.533 516.636ZM374.582 516.762C374.584 516.765 374.584 516.766 374.584 516.764L375.267 516.349C375.281 516.372 375.295 516.398 375.309 516.426L374.582 516.762ZM374.579 516.754C374.58 516.757 374.581 516.759 374.582 516.762L375.308 516.426C375.324 516.461 375.338 516.497 375.348 516.534L374.579 516.754ZM476.679 637.276L374.659 516.902L375.269 516.385L477.289 636.758L476.679 637.276ZM362.145 451.228L477.324 636.806L476.644 637.228L361.465 451.65L362.145 451.228ZM77.6549 380.936L2.25879 186.871L3.00452 186.582L78.4006 380.647L77.6549 380.936ZM171.574 320.202L78.2464 381.126L77.8091 380.456L171.137 319.532L171.574 320.202ZM173.507 320.214L308.852 339.167L308.741 339.959L173.396 321.006L173.507 320.214ZM306.069 478.993L173.146 320.867L173.758 320.353L306.682 478.478L306.069 478.993ZM309.197 339.57L306.775 478.742L305.975 478.728L308.397 339.556L309.197 339.57ZM414.307 254.887L310.17 339.534L309.665 338.913L413.802 254.266L414.307 254.887ZM360.272 447.333L413.669 254.47L414.44 254.683L361.043 447.547L360.272 447.333ZM71.2758 124.476L2.49768 185.433L1.96704 184.834L70.7451 123.878L71.2758 124.476ZM170.367 318.269L70.6547 124.36L71.3661 123.994L171.079 317.903L170.367 318.269ZM2.48016 184.819L170.971 317.772L170.475 318.4L1.98456 185.447L2.48016 184.819ZM70.1667 123.36L19.1573 3.62124L19.8933 3.3077L70.9027 123.046L70.1667 123.36ZM70.1347 123.243V123.203H70.9347V123.243H70.1347ZM1.80688 183.638L70.2693 122.943L70.8 123.542L2.33759 184.236L1.80688 183.638ZM19.9234 3.50298L2.47034 183.976L1.67407 183.899L19.1271 3.42597L19.9234 3.50298ZM72.3933 123.812L172.572 318.637L171.861 319.003L71.6819 124.178L72.3933 123.812ZM263.135 152.977L71.9784 124.39L72.0967 123.599L263.253 152.186L263.135 152.977ZM262.837 152.4L262.843 152.389L263.545 152.773L263.539 152.784L262.837 152.4ZM262.876 152.339L262.905 152.31L263.471 152.875L263.442 152.904L262.876 152.339ZM171.866 318.628L262.808 152.429L263.51 152.813L172.567 319.012L171.866 318.628ZM264.141 153.478L309.034 338.422L308.257 338.611L263.364 153.666L264.141 153.478ZM172.627 319.319L263.401 153.38L264.103 153.764L173.328 319.703L172.627 319.319ZM308.59 338.913L172.922 319.907L173.033 319.115L308.701 338.12L308.59 338.913ZM415.386 253.39L500.298 265.544L500.185 266.336L415.272 254.182L415.386 253.39ZM361.55 446.447L414.943 253.679L415.714 253.893L362.321 446.66L361.55 446.447ZM500.559 266.183L362.253 446.797L361.618 446.31L499.924 265.697L500.559 266.183ZM501.267 266.656L544.339 473.411L543.556 473.574L500.484 266.819L501.267 266.656ZM361.397 448.23L500.558 266.495L501.193 266.981L362.032 448.716L361.397 448.23ZM543.893 473.889L361.66 448.869L361.769 448.077L544.002 473.096L543.893 473.889ZM304.642 478.963L171.743 320.836L172.355 320.321L305.254 478.448L304.642 478.963ZM78.9988 381.069L305.106 478.338L304.79 479.073L78.6826 381.804L78.9988 381.069ZM172.268 320.913L79.0594 381.771L78.622 381.101L171.831 320.243L172.268 320.913ZM314.031 349.393L360.664 448.933L359.94 449.273L313.306 349.733L314.031 349.393ZM372.266 510.531L313.293 349.701L314.044 349.425L373.017 510.255L372.266 510.531ZM360.694 449.024L373.034 510.314L372.25 510.472L359.91 449.182L360.694 449.024ZM543.842 474.917L361.723 449.936L361.832 449.144L543.951 474.124L543.842 474.917ZM480.439 641.18L543.523 474.379L544.271 474.662L481.187 641.463L480.439 641.18ZM362.117 449.329L481.153 641.11L480.473 641.532L361.438 449.751L362.117 449.329ZM13.5648 531.799L196.256 602.948L195.966 603.693L13.2745 532.544L13.5648 531.799ZM78.1682 382.889L13.787 532.33L13.0523 532.013L77.4335 382.572L78.1682 382.889ZM195.758 603.509L77.4484 382.919L78.1534 382.541L196.463 603.131L195.758 603.509ZM305.862 480.665L78.7634 382.987L79.0795 382.252L306.179 479.93L305.862 480.665ZM197.019 603.136L305.721 480.032L306.32 480.562L197.618 603.665L197.019 603.136ZM79.274 382.43L197.671 603.211L196.966 603.589L78.569 382.808L79.274 382.43ZM231.424 658.402L304.857 482.527L305.595 482.836L232.162 658.71L231.424 658.402ZM198.159 604.105L232.132 658.344L231.454 658.768L197.481 604.529L198.159 604.105ZM305.526 482.946L198.12 604.582L197.52 604.052L304.926 482.417L305.526 482.946ZM472.589 824.083L479.945 643.477L480.745 643.509L473.389 824.116L472.589 824.083ZM386.314 714.291L473.302 823.851L472.676 824.348L385.688 714.788L386.314 714.291ZM480.586 643.813L386.241 714.859L385.76 714.22L480.104 643.174L480.586 643.813ZM384.346 713.733L373.667 517.979L374.466 517.935L385.145 713.689L384.346 713.733ZM232.916 659.09L384.88 713.334L384.611 714.088L232.647 659.844L232.916 659.09ZM374.349 518.24L233.065 659.75L232.499 659.184L373.783 517.675L374.349 518.24ZM2.87946 186.413L171.603 319.553L171.108 320.181L2.38385 187.041L2.87946 186.413ZM310.279 339.054L361.02 447.27L360.296 447.61L309.555 339.393L310.279 339.054Z" fill="#533594" mask="url(#path-1-outside-1_383_1833)"/>
<path d="M196.863 604.669L196.936 604.483L196.998 604.507L197.033 604.563L196.863 604.669ZM231.4 659.82L231.57 659.714L231.592 659.749L231.598 659.791L231.4 659.82ZM231.714 660.14L231.763 659.946L231.772 659.948L231.781 659.952L231.714 660.14ZM384.957 714.847L385.024 714.659L385.078 714.678L385.114 714.723L384.957 714.847ZM472.91 825.603L473.066 825.478L473.099 825.519L473.107 825.57L472.91 825.603ZM473.229 825.942L473.278 825.748L473.297 825.753L473.315 825.761L473.229 825.942ZM473.464 826L473.605 825.858L473.948 826.2H473.464V826ZM473.424 825.961L473.283 826.102L472.94 825.76H473.424V825.961ZM473.582 825.961L473.661 826.144L473.623 826.161H473.582V825.961ZM501.625 265.584L501.43 265.625L501.426 265.607L501.425 265.588L501.625 265.584ZM501.625 265.564L501.425 265.568L501.425 265.551L501.427 265.534L501.625 265.564ZM501.634 265.451L501.833 265.446L501.833 265.447L501.634 265.451ZM501.632 265.42L501.83 265.397L501.831 265.399L501.632 265.42ZM501.626 265.386L501.805 265.296L501.814 265.316L501.819 265.336L501.626 265.386ZM501.23 265.069L501.259 264.871L501.269 264.873L501.23 265.069ZM415.043 252.716V252.516H415.058L415.072 252.518L415.043 252.716ZM414.566 252.94L414.725 253.062L414.711 253.081L414.693 253.095L414.566 252.94ZM309.614 338.256L309.74 338.411L309.494 338.611L309.419 338.303L309.614 338.256ZM264.425 152.107L264.617 152.052L264.619 152.06L264.425 152.107ZM264.105 151.751L264.045 151.941L264.033 151.938L264.022 151.932L264.105 151.751ZM264.062 151.733L264.13 151.545L264.131 151.545L264.062 151.733ZM263.99 151.711L264.019 151.513L264.029 151.514L264.038 151.517L263.99 151.711ZM71.4672 122.886L71.4376 123.083L71.327 123.067L71.2832 122.964L71.4672 122.886ZM19.7166 1.44343L19.5327 1.52184L19.5166 1.48427V1.44343H19.7166ZM19.7086 1.37179L19.5145 1.42026L19.5085 1.3964V1.37179H19.7086ZM19.7031 1.32658L19.5085 1.37312V1.373L19.7031 1.32658ZM19.6957 1.30217L19.8824 1.2303L19.8839 1.23442L19.6957 1.30217ZM19.6921 1.29282L19.8764 1.21483L19.8787 1.22096L19.6921 1.29282ZM19.689 1.28553L19.8721 1.20495L19.8732 1.20758L19.689 1.28553ZM19.6848 1.27579L19.8652 1.1893L19.8678 1.19522L19.6848 1.27579ZM19.629 1.19197L19.4764 1.32117L19.4623 1.30452L19.4521 1.28523L19.629 1.19197ZM19.6038 1.15053L19.7668 1.03472L19.7672 1.03516L19.6038 1.15053ZM19.5882 1.13045L19.7405 1.00081L19.7405 1.00083L19.5882 1.13045ZM19.5505 1.09459L19.4304 1.25457L19.4274 1.25219L19.5505 1.09459ZM19.5421 1.08803L19.6622 0.928044L19.6652 0.930422L19.5421 1.08803ZM19.5333 1.08146L19.6517 0.920241L19.6534 0.921511L19.5333 1.08146ZM19.5229 1.07378L19.6377 0.909942L19.6412 0.912571L19.5229 1.07378ZM19.4963 1.05632L19.6016 0.8863L19.6017 0.88635L19.4963 1.05632ZM19.4474 1.02938L19.5312 0.847739L19.5346 0.849385L19.4474 1.02938ZM19.4332 1.02282L19.5116 0.838713L19.517 0.841208L19.4332 1.02282ZM19.4149 1.01501L19.4871 0.828403L19.4932 0.830987L19.4149 1.01501ZM19.3986 1.00871L19.4664 0.820474L19.4708 0.822199L19.3986 1.00871ZM19.3888 1.00519L19.4514 0.815141L19.4565 0.81701L19.3888 1.00519ZM77.1338 381.768L77.2384 381.597L77.386 381.688L77.3175 381.847L77.1338 381.768ZM77.1103 381.753V381.553H77.1668L77.2149 381.583L77.1103 381.753ZM196.791 604.855L13.0958 533.32L13.2409 532.948L196.936 604.483L196.791 604.855ZM231.231 659.926L196.694 604.775L197.033 604.563L231.57 659.714L231.231 659.926ZM231.665 660.334C231.553 660.306 231.449 660.242 231.369 660.163C231.291 660.084 231.221 659.976 231.203 659.849L231.598 659.791C231.601 659.81 231.616 659.843 231.652 659.879C231.687 659.914 231.729 659.938 231.763 659.946L231.665 660.334ZM384.89 715.036L231.647 660.328L231.781 659.952L385.024 714.659L384.89 715.036ZM472.753 825.727L384.801 714.972L385.114 714.723L473.066 825.478L472.753 825.727ZM473.179 826.136C472.948 826.077 472.757 825.906 472.712 825.635L473.107 825.57C473.123 825.665 473.181 825.723 473.278 825.748L473.179 826.136ZM473.464 826.2C473.324 826.2 473.223 826.16 473.143 826.122L473.315 825.761C473.367 825.786 473.408 825.8 473.464 825.8V826.2ZM473.565 825.819L473.605 825.858L473.322 826.142L473.283 826.102L473.565 825.819ZM473.582 826.161H473.424V825.76H473.582V826.161ZM473.672 826.14L473.661 826.144L473.503 825.777L473.514 825.772L473.672 826.14ZM501.821 265.543L545.196 473.703L544.804 473.784L501.43 265.625L501.821 265.543ZM501.825 265.56L501.825 265.579L501.425 265.588L501.425 265.568L501.825 265.56ZM501.833 265.447C501.835 265.497 501.83 265.547 501.823 265.594L501.427 265.534C501.432 265.503 501.434 265.476 501.434 265.456L501.833 265.447ZM501.831 265.399C501.832 265.416 501.833 265.432 501.833 265.446L501.434 265.456C501.433 265.448 501.433 265.444 501.433 265.441L501.831 265.399ZM501.819 265.336C501.825 265.358 501.828 265.378 501.83 265.397L501.433 265.442C501.432 265.437 501.432 265.435 501.432 265.435L501.819 265.336ZM501.269 264.873C501.542 264.927 501.705 265.097 501.805 265.296L501.447 265.475C501.388 265.358 501.314 265.29 501.191 265.265L501.269 264.873ZM415.072 252.518L501.258 264.871L501.202 265.267L415.015 252.914L415.072 252.518ZM414.408 252.818C414.558 252.624 414.815 252.516 415.043 252.516V252.916C414.924 252.916 414.79 252.978 414.725 253.062L414.408 252.818ZM309.487 338.101L414.44 252.785L414.693 253.095L309.74 338.411L309.487 338.101ZM264.619 152.06L309.808 338.209L309.419 338.303L264.23 152.154L264.619 152.06ZM264.166 151.56C264.392 151.632 264.551 151.82 264.617 152.052L264.232 152.162C264.196 152.035 264.121 151.965 264.045 151.941L264.166 151.56ZM264.131 151.545C264.15 151.552 264.17 151.56 264.189 151.569L264.022 151.932C264.013 151.928 264.003 151.924 263.993 151.92L264.131 151.545ZM264.038 151.517C264.069 151.525 264.1 151.534 264.13 151.545L263.993 151.921C263.977 151.915 263.96 151.91 263.941 151.905L264.038 151.517ZM71.4968 122.688L264.019 151.513L263.96 151.909L71.4376 123.083L71.4968 122.688ZM19.9006 1.36503L71.6512 122.807L71.2832 122.964L19.5327 1.52184L19.9006 1.36503ZM19.9026 1.32333C19.913 1.36507 19.9166 1.40603 19.9166 1.44343H19.5166C19.5166 1.43107 19.5154 1.42366 19.5145 1.42026L19.9026 1.32333ZM19.8976 1.28004C19.9045 1.30917 19.9086 1.33988 19.9086 1.37179H19.5085C19.5085 1.3735 19.5088 1.37405 19.5085 1.37312L19.8976 1.28004ZM19.8839 1.23442C19.8889 1.24827 19.8937 1.26361 19.8976 1.28016L19.5085 1.373C19.5086 1.37325 19.5084 1.37227 19.5075 1.36993L19.8839 1.23442ZM19.8787 1.22096L19.8823 1.23031L19.509 1.37403L19.5054 1.36468L19.8787 1.22096ZM19.8732 1.20758L19.8763 1.21488L19.5079 1.37076L19.5048 1.36347L19.8732 1.20758ZM19.8678 1.19522L19.8721 1.20495L19.506 1.3661L19.5017 1.35636L19.8678 1.19522ZM19.7817 1.06276C19.8127 1.09943 19.8423 1.14178 19.8651 1.18934L19.5044 1.36224C19.4996 1.3522 19.4908 1.33826 19.4764 1.32117L19.7817 1.06276ZM19.7672 1.03516C19.782 1.05616 19.7949 1.07763 19.806 1.09871L19.4521 1.28523C19.4478 1.27716 19.4439 1.27078 19.4404 1.2659L19.7672 1.03516ZM19.7405 1.00083C19.7499 1.01184 19.7587 1.02316 19.7668 1.03472L19.4407 1.26634C19.439 1.26394 19.4374 1.26186 19.4359 1.26007L19.7405 1.00083ZM19.6705 0.934637C19.6976 0.954941 19.7208 0.977604 19.7405 1.00081L19.4359 1.26009C19.4327 1.25635 19.4308 1.25482 19.4304 1.25454L19.6705 0.934637ZM19.6652 0.930422L19.6736 0.936986L19.4274 1.25219L19.4189 1.24563L19.6652 0.930422ZM19.6534 0.921511L19.6622 0.928074L19.422 1.24798L19.4133 1.24141L19.6534 0.921511ZM19.6412 0.912571L19.6517 0.92025L19.415 1.24268L19.4045 1.235L19.6412 0.912571ZM19.6017 0.88635C19.6132 0.893451 19.6252 0.901299 19.6376 0.909983L19.4081 1.23759C19.403 1.23401 19.3973 1.23029 19.3909 1.2263L19.6017 0.88635ZM19.5346 0.849385C19.5578 0.860608 19.5801 0.872988 19.6016 0.8863L19.391 1.22635C19.3806 1.21991 19.3704 1.21427 19.3603 1.20938L19.5346 0.849385ZM19.517 0.841208L19.5312 0.847772L19.3637 1.211L19.3494 1.20443L19.517 0.841208ZM19.4932 0.830987L19.5115 0.838794L19.3549 1.20685L19.3365 1.19904L19.4932 0.830987ZM19.4708 0.822199L19.4871 0.828505L19.3427 1.20152L19.3264 1.19522L19.4708 0.822199ZM19.4565 0.81701L19.4663 0.820528L19.3309 1.19689L19.3211 1.19337L19.4565 0.81701ZM19.4355 0.810022L19.4514 0.815213L19.3263 1.19517L19.3105 1.18998L19.4355 0.810022ZM77.0292 381.938L77.0057 381.924L77.2149 381.583L77.2384 381.597L77.0292 381.938ZM12.7427 530.737L76.9501 381.689L77.3175 381.847L13.1101 530.895L12.7427 530.737ZM77.1103 381.953H77.1004V381.553H77.1103V381.953ZM1.71997 186.707L76.9168 380.22L76.5439 380.365L1.34711 186.851L1.71997 186.707ZM0.800903 184.594L18.32 3.36385L18.7181 3.40234L1.19904 184.633L0.800903 184.594ZM481.345 642.133L544.359 475.572L544.733 475.714L481.719 642.275L481.345 642.133ZM481.583 643.393L474.174 824.644L473.775 824.628L481.183 643.377L481.583 643.393ZM373.635 516.964L373.826 516.612L374.296 516.868L373.918 517.247L373.635 516.964ZM307.128 480.852L306.759 480.698L306.93 480.289L307.319 480.5L307.128 480.852ZM233.365 657.457L233.648 657.74L232.996 657.303L233.365 657.457ZM480.18 642.329L480.485 642.07L480.759 642.393L480.42 642.648L480.18 642.329ZM375.056 518.286L374.656 518.308L374.591 517.12L375.361 518.028L375.056 518.286ZM385.695 713.473L385.935 713.793L385.336 714.244L385.295 713.495L385.695 713.473ZM307.346 479.78L307.155 480.132L306.942 480.016L306.946 479.773L307.346 479.78ZM309.753 341.763L309.353 341.756L310.128 341.625L309.753 341.763ZM373.511 515.707L373.886 515.569L374.251 516.564L373.32 516.058L373.511 515.707ZM374.925 516.557L374.584 516.764L374.547 516.704L374.533 516.636L374.925 516.557ZM361.805 451.439L361.413 451.518L362.145 451.228L361.805 451.439ZM374.945 516.594L374.582 516.762L374.582 516.762L374.945 516.594ZM374.964 516.644L374.659 516.902L374.603 516.837L374.579 516.754L374.964 516.644ZM476.984 637.017L477.324 636.806L476.679 637.276L476.984 637.017ZM2.63165 186.727L2.25879 186.871L1.72729 185.503L2.87946 186.413L2.63165 186.727ZM78.0277 380.791L78.2464 381.126L77.8335 381.396L77.6549 380.936L78.0277 380.791ZM171.356 319.867L171.603 319.553L172.04 319.898L171.574 320.202L171.356 319.867ZM173.452 320.61L173.146 320.867L172.475 320.069L173.507 320.214L173.452 320.61ZM308.797 339.563L308.852 339.167L309.203 339.216L309.197 339.57L308.797 339.563ZM306.375 478.735L306.775 478.742L306.757 479.811L306.069 478.993L306.375 478.735ZM414.055 254.577L413.802 254.266L414.774 253.476L414.44 254.683L414.055 254.577ZM309.917 339.224L309.555 339.393L309.422 339.11L309.665 338.913L309.917 339.224ZM360.658 447.44L361.043 447.547L360.755 448.589L360.296 447.61L360.658 447.44ZM71.0104 124.177L70.7451 123.878L71.1306 123.536L71.3661 123.994L71.0104 124.177ZM2.23236 185.133L1.98456 185.447L1.60919 185.151L1.96704 184.834L2.23236 185.133ZM170.723 318.086L171.079 317.903L170.475 318.4L170.723 318.086ZM70.5347 123.203L70.9027 123.046L70.9347 123.122V123.203H70.5347ZM19.5253 3.46447L19.1271 3.42597L19.8933 3.3077L19.5253 3.46447ZM70.5347 123.243H70.9347V123.423L70.8 123.542L70.5347 123.243ZM2.0722 183.937L2.33759 184.236L1.57611 184.911L1.67407 183.899L2.0722 183.937ZM72.0376 123.995L71.6819 124.178L71.325 123.484L72.0967 123.599L72.0376 123.995ZM172.217 318.82L172.567 319.012L172.206 319.673L171.861 319.003L172.217 318.82ZM263.194 152.581L263.253 152.186L263.82 152.27L263.545 152.773L263.194 152.581ZM263.188 152.592L263.539 152.784L263.511 152.835L263.471 152.875L263.188 152.592ZM263.159 152.621L262.808 152.429L262.836 152.379L262.876 152.339L263.159 152.621ZM263.752 153.572L263.401 153.38L263.897 152.473L264.141 153.478L263.752 153.572ZM308.645 338.516L309.034 338.422L309.173 338.994L308.59 338.913L308.645 338.516ZM172.978 319.511L172.922 319.907L172.349 319.827L172.627 319.319L172.978 319.511ZM415.329 253.786L414.943 253.679L415.037 253.34L415.386 253.39L415.329 253.786ZM500.241 265.94L500.298 265.544L500.974 265.641L500.559 266.183L500.241 265.94ZM361.935 446.554L362.253 446.797L361.55 446.447L361.935 446.554ZM500.875 266.738L500.558 266.495L501.089 265.801L501.267 266.656L500.875 266.738ZM543.947 473.493L544.339 473.411L544.455 473.966L543.893 473.889L543.947 473.493ZM361.715 448.473L361.66 448.869L360.979 448.776L361.397 448.23L361.715 448.473ZM304.948 478.705L305.254 478.448L304.79 479.073L304.948 478.705ZM172.049 320.578L171.831 320.243L172.127 320.05L172.355 320.321L172.049 320.578ZM78.8407 381.436L78.6826 381.804L77.9977 381.509L78.622 381.101L78.8407 381.436ZM313.668 349.563L313.293 349.701L314.031 349.393L313.668 349.563ZM360.302 449.103L360.664 448.933L360.684 448.977L360.694 449.024L360.302 449.103ZM372.642 510.393L373.034 510.314L372.266 510.531L372.642 510.393ZM543.897 474.521L543.951 474.124L544.448 474.193L544.271 474.662L543.897 474.521ZM361.778 449.54L361.438 449.751L360.989 449.028L361.832 449.144L361.778 449.54ZM480.813 641.321L481.187 641.463L480.901 642.221L480.473 641.532L480.813 641.321ZM13.4197 532.172L13.2745 532.544L12.8884 532.394L13.0523 532.013L13.4197 532.172ZM196.111 603.32L196.463 603.131L196.975 604.086L195.966 603.693L196.111 603.32ZM77.8009 382.73L77.4335 382.572L77.7616 381.811L78.1534 382.541L77.8009 382.73ZM306.02 480.297L306.179 479.93L306.686 480.148L306.32 480.562L306.02 480.297ZM78.9215 382.619L78.569 382.808L78.028 381.8L79.0795 382.252L78.9215 382.619ZM197.319 603.4L197.618 603.665L197.238 604.096L196.966 603.589L197.319 603.4ZM231.793 658.556L232.162 658.71L231.865 659.424L231.454 658.768L231.793 658.556ZM305.226 482.682L304.926 482.417L305.595 482.836L305.226 482.682ZM197.82 604.317L197.481 604.529L197.323 604.276L197.52 604.052L197.82 604.317ZM472.989 824.099L473.389 824.116L473.345 825.191L472.676 824.348L472.989 824.099ZM480.345 643.493L480.104 643.174L480.779 642.666L480.745 643.509L480.345 643.493ZM386.001 714.539L385.688 714.788L385.432 714.467L385.76 714.22L386.001 714.539ZM384.746 713.711L385.145 713.689L385.178 714.29L384.611 714.088L384.746 713.711ZM374.066 517.957L373.783 517.675L374.417 517.04L374.466 517.935L374.066 517.957ZM232.782 659.467L232.647 659.844L232.053 659.631L232.499 659.184L232.782 659.467ZM373.444 517.315L306.937 481.203L307.319 480.5L373.826 516.612L373.444 517.315ZM233.082 657.174L373.352 516.681L373.918 517.247L233.648 657.74L233.082 657.174ZM307.497 481.006L233.734 657.611L232.996 657.303L306.759 480.698L307.497 481.006ZM479.875 642.587L374.751 518.545L375.361 518.028L480.485 642.07L479.875 642.587ZM385.454 713.154L479.939 642.009L480.42 642.648L385.935 713.793L385.454 713.154ZM375.455 518.264L386.094 713.452L385.295 713.495L374.656 518.308L375.455 518.264ZM306.946 479.773L309.353 341.756L310.153 341.77L307.746 479.787L306.946 479.773ZM373.32 516.058L307.155 480.132L307.537 479.429L373.702 515.355L373.32 516.058ZM310.128 341.625L373.886 515.569L373.135 515.844L309.377 341.901L310.128 341.625ZM374.533 516.636L361.413 451.518L362.197 451.36L375.317 516.478L374.533 516.636ZM374.582 516.762C374.584 516.765 374.584 516.766 374.584 516.764L375.267 516.349C375.281 516.372 375.295 516.398 375.309 516.426L374.582 516.762ZM374.579 516.754C374.58 516.757 374.581 516.759 374.582 516.762L375.308 516.426C375.324 516.461 375.338 516.497 375.348 516.534L374.579 516.754ZM476.679 637.276L374.659 516.902L375.269 516.385L477.289 636.758L476.679 637.276ZM362.145 451.228L477.324 636.806L476.644 637.228L361.465 451.65L362.145 451.228ZM77.6549 380.936L2.25879 186.871L3.00452 186.582L78.4006 380.647L77.6549 380.936ZM171.574 320.202L78.2464 381.126L77.8091 380.456L171.137 319.532L171.574 320.202ZM173.507 320.214L308.852 339.167L308.741 339.959L173.396 321.006L173.507 320.214ZM306.069 478.993L173.146 320.867L173.758 320.353L306.682 478.478L306.069 478.993ZM309.197 339.57L306.775 478.742L305.975 478.728L308.397 339.556L309.197 339.57ZM414.307 254.887L310.17 339.534L309.665 338.913L413.802 254.266L414.307 254.887ZM360.272 447.333L413.669 254.47L414.44 254.683L361.043 447.547L360.272 447.333ZM71.2758 124.476L2.49768 185.433L1.96704 184.834L70.7451 123.878L71.2758 124.476ZM170.367 318.269L70.6547 124.36L71.3661 123.994L171.079 317.903L170.367 318.269ZM2.48016 184.819L170.971 317.772L170.475 318.4L1.98456 185.447L2.48016 184.819ZM70.1667 123.36L19.1573 3.62124L19.8933 3.3077L70.9027 123.046L70.1667 123.36ZM70.1347 123.243V123.203H70.9347V123.243H70.1347ZM1.80688 183.638L70.2693 122.943L70.8 123.542L2.33759 184.236L1.80688 183.638ZM19.9234 3.50298L2.47034 183.976L1.67407 183.899L19.1271 3.42597L19.9234 3.50298ZM72.3933 123.812L172.572 318.637L171.861 319.003L71.6819 124.178L72.3933 123.812ZM263.135 152.977L71.9784 124.39L72.0967 123.599L263.253 152.186L263.135 152.977ZM262.837 152.4L262.843 152.389L263.545 152.773L263.539 152.784L262.837 152.4ZM262.876 152.339L262.905 152.31L263.471 152.875L263.442 152.904L262.876 152.339ZM171.866 318.628L262.808 152.429L263.51 152.813L172.567 319.012L171.866 318.628ZM264.141 153.478L309.034 338.422L308.257 338.611L263.364 153.666L264.141 153.478ZM172.627 319.319L263.401 153.38L264.103 153.764L173.328 319.703L172.627 319.319ZM308.59 338.913L172.922 319.907L173.033 319.115L308.701 338.12L308.59 338.913ZM415.386 253.39L500.298 265.544L500.185 266.336L415.272 254.182L415.386 253.39ZM361.55 446.447L414.943 253.679L415.714 253.893L362.321 446.66L361.55 446.447ZM500.559 266.183L362.253 446.797L361.618 446.31L499.924 265.697L500.559 266.183ZM501.267 266.656L544.339 473.411L543.556 473.574L500.484 266.819L501.267 266.656ZM361.397 448.23L500.558 266.495L501.193 266.981L362.032 448.716L361.397 448.23ZM543.893 473.889L361.66 448.869L361.769 448.077L544.002 473.096L543.893 473.889ZM304.642 478.963L171.743 320.836L172.355 320.321L305.254 478.448L304.642 478.963ZM78.9988 381.069L305.106 478.338L304.79 479.073L78.6826 381.804L78.9988 381.069ZM172.268 320.913L79.0594 381.771L78.622 381.101L171.831 320.243L172.268 320.913ZM314.031 349.393L360.664 448.933L359.94 449.273L313.306 349.733L314.031 349.393ZM372.266 510.531L313.293 349.701L314.044 349.425L373.017 510.255L372.266 510.531ZM360.694 449.024L373.034 510.314L372.25 510.472L359.91 449.182L360.694 449.024ZM543.842 474.917L361.723 449.936L361.832 449.144L543.951 474.124L543.842 474.917ZM480.439 641.18L543.523 474.379L544.271 474.662L481.187 641.463L480.439 641.18ZM362.117 449.329L481.153 641.11L480.473 641.532L361.438 449.751L362.117 449.329ZM13.5648 531.799L196.256 602.948L195.966 603.693L13.2745 532.544L13.5648 531.799ZM78.1682 382.889L13.787 532.33L13.0523 532.013L77.4335 382.572L78.1682 382.889ZM195.758 603.509L77.4484 382.919L78.1534 382.541L196.463 603.131L195.758 603.509ZM305.862 480.665L78.7634 382.987L79.0795 382.252L306.179 479.93L305.862 480.665ZM197.019 603.136L305.721 480.032L306.32 480.562L197.618 603.665L197.019 603.136ZM79.274 382.43L197.671 603.211L196.966 603.589L78.569 382.808L79.274 382.43ZM231.424 658.402L304.857 482.527L305.595 482.836L232.162 658.71L231.424 658.402ZM198.159 604.105L232.132 658.344L231.454 658.768L197.481 604.529L198.159 604.105ZM305.526 482.946L198.12 604.582L197.52 604.052L304.926 482.417L305.526 482.946ZM472.589 824.083L479.945 643.477L480.745 643.509L473.389 824.116L472.589 824.083ZM386.314 714.291L473.302 823.851L472.676 824.348L385.688 714.788L386.314 714.291ZM480.586 643.813L386.241 714.859L385.76 714.22L480.104 643.174L480.586 643.813ZM384.346 713.733L373.667 517.979L374.466 517.935L385.145 713.689L384.346 713.733ZM232.916 659.09L384.88 713.334L384.611 714.088L232.647 659.844L232.916 659.09ZM374.349 518.24L233.065 659.75L232.499 659.184L373.783 517.675L374.349 518.24ZM2.87946 186.413L171.603 319.553L171.108 320.181L2.38385 187.041L2.87946 186.413ZM310.279 339.054L361.02 447.27L360.296 447.61L309.555 339.393L310.279 339.054Z" fill="white" fill-opacity="0.9" mask="url(#path-1-outside-1_383_1833)"/>
</g>
</svg>
