<svg width="180" height="31" viewBox="0 0 180 31" fill="none" xmlns="http://www.w3.org/2000/svg">
<g clip-path="url(#clip0_19_79)">
<path d="M7.92789 10.7763C8.507 9.39855 9.87304 8.5 11.3885 8.5H14.6089L9.05225 21.7196C8.8537 22.1919 8.38534 22.5 7.86577 22.5H3L7.92789 10.7763Z" fill="white"/>
<path d="M16.8619 10.7763C17.441 9.39855 18.8071 8.5 20.3225 8.5H23.5429L17.9863 21.7196C17.7877 22.1919 17.3194 22.5 16.7998 22.5H11.934L16.8619 10.7763Z" fill="white"/>
<path d="M21.0515 22.0635L23.1689 17.0263C25.8955 17.0263 27.7476 19.7516 26.7056 22.2305L26.5923 22.5H21.3482C21.1195 22.5 20.9642 22.2714 21.0515 22.0635Z" fill="white"/>
<path d="M141.443 23.5C140.902 23.5 140.486 23.3525 140.194 23.0574C139.916 22.7623 139.777 22.3419 139.777 21.796V9.20401C139.777 8.64338 139.916 8.22291 140.194 7.9426C140.486 7.64753 140.902 7.5 141.443 7.5C141.969 7.5 142.371 7.64753 142.648 7.9426C142.941 8.22291 143.087 8.64338 143.087 9.20401V16.9274H143.131L146.309 13.3645C146.63 12.9956 146.922 12.7227 147.185 12.5456C147.463 12.3538 147.828 12.258 148.281 12.258C148.734 12.258 149.077 12.376 149.311 12.612C149.56 12.8481 149.684 13.1358 149.684 13.4751C149.698 13.7997 149.56 14.1316 149.267 14.471L145.914 18.2552V16.9938L149.64 21.3313C149.918 21.6706 150.034 22.0099 149.991 22.3492C149.961 22.6886 149.815 22.9689 149.552 23.1902C149.289 23.3967 148.953 23.5 148.544 23.5C148.047 23.5 147.645 23.4041 147.339 23.2123C147.046 23.0205 146.747 22.7254 146.44 22.3271L143.131 18.6093H143.087V21.796C143.087 22.932 142.539 23.5 141.443 23.5Z" fill="white"/>
<path d="M134.801 23.5C133.647 23.5 132.638 23.2758 131.772 22.8273C130.921 22.3643 130.265 21.7133 129.804 20.8742C129.342 20.035 129.111 19.044 129.111 17.9011C129.111 17.0475 129.241 16.2807 129.501 15.6007C129.76 14.9207 130.135 14.342 130.626 13.8646C131.131 13.3872 131.736 13.0255 132.443 12.7795C133.15 12.5191 133.936 12.3889 134.801 12.3889C135.248 12.3889 135.724 12.4468 136.229 12.5625C136.734 12.6638 137.232 12.8446 137.722 13.1051C138.011 13.2353 138.205 13.4233 138.306 13.6693C138.422 13.9008 138.465 14.1467 138.436 14.4071C138.407 14.6531 138.313 14.8773 138.155 15.0799C138.011 15.268 137.823 15.3982 137.592 15.4705C137.361 15.5284 137.102 15.485 136.813 15.3403C136.539 15.1812 136.251 15.0654 135.948 14.9931C135.66 14.9207 135.385 14.8846 135.126 14.8846C134.693 14.8846 134.311 14.9569 133.979 15.1016C133.647 15.2318 133.366 15.4271 133.135 15.6875C132.919 15.9335 132.746 16.2445 132.616 16.6207C132.501 16.9968 132.443 17.4309 132.443 17.9228C132.443 18.8776 132.674 19.6299 133.135 20.1797C133.611 20.715 134.275 20.9827 135.126 20.9827C135.385 20.9827 135.66 20.9537 135.948 20.8959C136.236 20.8235 136.525 20.7078 136.813 20.5486C137.102 20.404 137.361 20.3678 137.592 20.4401C137.823 20.5125 138.003 20.6499 138.133 20.8525C138.277 21.0405 138.357 21.2648 138.371 21.5252C138.4 21.7712 138.357 22.0171 138.241 22.263C138.14 22.4945 137.953 22.6754 137.679 22.8056C137.188 23.0515 136.698 23.2251 136.208 23.3264C135.717 23.4422 135.248 23.5 134.801 23.5Z" fill="white"/>
<path d="M121.768 23.4998C120.644 23.4998 119.663 23.2755 118.824 22.827C118 22.3785 117.36 21.7347 116.905 20.8956C116.45 20.0565 116.223 19.0655 116.223 17.9225C116.223 17.0689 116.351 16.3022 116.607 15.6222C116.862 14.9422 117.232 14.3635 117.716 13.8861C118.213 13.3942 118.803 13.0252 119.486 12.7793C120.168 12.5189 120.929 12.3887 121.768 12.3887C122.891 12.3887 123.865 12.6129 124.689 13.0614C125.528 13.5099 126.175 14.1465 126.63 14.9711C127.099 15.7958 127.334 16.7796 127.334 17.9225C127.334 18.7906 127.199 19.5646 126.929 20.2446C126.673 20.9246 126.303 21.5105 125.82 22.0024C125.336 22.4943 124.746 22.8704 124.049 23.1309C123.367 23.3768 122.606 23.4998 121.768 23.4998ZM121.768 21.0475C122.237 21.0475 122.642 20.9318 122.983 20.7003C123.324 20.4688 123.595 20.1288 123.794 19.6803C123.993 19.2174 124.092 18.6314 124.092 17.9225C124.092 16.8664 123.879 16.0924 123.452 15.6005C123.026 15.0941 122.464 14.8409 121.768 14.8409C121.313 14.8409 120.907 14.9494 120.552 15.1664C120.211 15.3835 119.941 15.7235 119.742 16.1864C119.557 16.6349 119.464 17.2136 119.464 17.9225C119.464 18.9787 119.678 19.7671 120.104 20.288C120.531 20.7943 121.085 21.0475 121.768 21.0475Z" fill="white"/>
<path d="M113.574 23.5C112.227 23.5 111.22 23.1395 110.554 22.4186C109.888 21.683 109.555 20.5943 109.555 19.1524V9.19931C109.555 8.64023 109.699 8.22092 109.986 7.94138C110.289 7.64713 110.72 7.5 111.281 7.5C111.826 7.5 112.242 7.64713 112.53 7.94138C112.832 8.22092 112.984 8.64023 112.984 9.19931V19.02C112.984 19.6232 113.112 20.072 113.37 20.3662C113.642 20.6457 113.998 20.7855 114.437 20.7855C114.558 20.7855 114.672 20.7782 114.778 20.7634C114.884 20.7487 114.997 20.7414 115.118 20.7414C115.361 20.712 115.527 20.7855 115.618 20.9621C115.724 21.1239 115.777 21.4549 115.777 21.9552C115.777 22.3966 115.686 22.7349 115.504 22.9703C115.323 23.191 115.043 23.3382 114.664 23.4117C114.513 23.4264 114.339 23.4411 114.142 23.4559C113.945 23.4853 113.756 23.5 113.574 23.5Z" fill="white"/>
<path d="M96.6326 23.0556C96.0728 23.0556 95.6422 22.9055 95.3408 22.6054C95.0394 22.3054 94.8887 21.8767 94.8887 21.3194V9.68063C94.8887 9.12334 95.0394 8.69465 95.3408 8.39458C95.6422 8.0945 96.0728 7.94446 96.6326 7.94446H101.843C102.919 7.94446 103.838 8.10164 104.599 8.41601C105.36 8.73038 105.934 9.1805 106.321 9.76637C106.723 10.3522 106.924 11.0524 106.924 11.8669C106.924 12.7672 106.666 13.5316 106.149 14.1604C105.632 14.7891 104.922 15.2107 104.017 15.425V15.082C105.065 15.2678 105.876 15.6822 106.45 16.3252C107.039 16.954 107.333 17.7756 107.333 18.7902C107.333 20.1334 106.867 21.1836 105.934 21.941C105.001 22.684 103.716 23.0556 102.08 23.0556H96.6326ZM98.0751 20.5906H101.628C102.489 20.5906 103.12 20.4263 103.522 20.0976C103.924 19.7547 104.125 19.2546 104.125 18.5973C104.125 17.9399 103.924 17.447 103.522 17.1183C103.12 16.7896 102.489 16.6253 101.628 16.6253H98.0751V20.5906ZM98.0751 14.1604H101.262C102.094 14.1604 102.711 14.0032 103.113 13.6888C103.515 13.3745 103.716 12.9029 103.716 12.2742C103.716 11.6597 103.515 11.1953 103.113 10.8809C102.711 10.5666 102.094 10.4094 101.262 10.4094H98.0751V14.1604Z" fill="white"/>
<path d="M91.0663 23.5C89.8152 23.5 88.8803 23.1395 88.2618 22.4186C87.6433 21.683 87.334 20.5943 87.334 19.1524V9.19931C87.334 8.64023 87.4675 8.22092 87.7346 7.94138C88.0158 7.64713 88.4164 7.5 88.9366 7.5C89.4427 7.5 89.8293 7.64713 90.0964 7.94138C90.3775 8.22092 90.5181 8.64023 90.5181 9.19931V19.02C90.5181 19.6232 90.6376 20.072 90.8766 20.3662C91.1296 20.6457 91.46 20.7855 91.8676 20.7855C91.9801 20.7855 92.0855 20.7782 92.1839 20.7634C92.2824 20.7487 92.3878 20.7414 92.5002 20.7414C92.7252 20.712 92.8798 20.7855 92.9642 20.9621C93.0626 21.1239 93.1118 21.4549 93.1118 21.9552C93.1118 22.3966 93.0274 22.7349 92.8587 22.9703C92.69 23.191 92.43 23.3382 92.0785 23.4117C91.9379 23.4264 91.7763 23.4411 91.5935 23.4559C91.4108 23.4853 91.235 23.5 91.0663 23.5Z" fill="white"/>
<path d="M79.0127 23.5C78.223 23.5 77.5137 23.3481 76.8849 23.0443C76.256 22.7405 75.7661 22.3282 75.4151 21.8073C75.0642 21.2865 74.8887 20.7005 74.8887 20.0495C74.8887 19.2683 75.0934 18.6534 75.5029 18.2049C75.9124 17.7419 76.5778 17.4164 77.4991 17.2283C78.4204 17.0258 79.6415 16.9245 81.1624 16.9245H82.325V18.6172H81.1843C80.4385 18.6172 79.8316 18.6606 79.3636 18.7474C78.9103 18.8198 78.5813 18.95 78.3765 19.138C78.1864 19.3261 78.0913 19.5865 78.0913 19.9193C78.0913 20.3244 78.2303 20.6571 78.5081 20.9176C78.8006 21.178 79.2174 21.3082 79.7585 21.3082C80.1826 21.3082 80.5555 21.2141 80.8772 21.0261C81.2136 20.8235 81.4768 20.5559 81.6669 20.2231C81.857 19.8759 81.9521 19.4853 81.9521 19.0512V16.5556C81.9521 15.919 81.8059 15.4705 81.5134 15.2101C81.2209 14.9352 80.7237 14.7978 80.0217 14.7978C79.6269 14.7978 79.1955 14.8484 78.7275 14.9497C78.2741 15.0365 77.7696 15.1884 77.2139 15.4054C76.8922 15.5501 76.607 15.5863 76.3584 15.5139C76.1098 15.4271 75.9197 15.2824 75.7881 15.0799C75.6564 14.8629 75.5906 14.6314 75.5906 14.3854C75.5906 14.125 75.6637 13.8791 75.81 13.6476C75.9562 13.4016 76.1975 13.2208 76.5339 13.1051C77.2212 12.8302 77.8647 12.6421 78.4643 12.5408C79.0785 12.4396 79.6415 12.3889 80.1533 12.3889C81.2794 12.3889 82.2007 12.5553 82.9173 12.888C83.6485 13.2063 84.1969 13.7055 84.5625 14.3854C84.9281 15.051 85.1109 15.9118 85.1109 16.9679V21.7856C85.1109 22.3209 84.9793 22.7332 84.716 23.0226C84.4528 23.3119 84.0726 23.4566 83.5754 23.4566C83.0781 23.4566 82.6906 23.3119 82.4128 23.0226C82.1495 22.7332 82.0179 22.3209 82.0179 21.7856V20.9827L82.1715 21.1129C82.0837 21.6048 81.8936 22.0316 81.6011 22.3933C81.3233 22.7405 80.965 23.0154 80.5263 23.2179C80.0875 23.406 79.583 23.5 79.0127 23.5Z" fill="white"/>
<path d="M67.089 27.4998C66.3227 27.4998 65.5848 27.4343 64.8752 27.3033C64.1799 27.1722 63.5626 26.9757 63.0234 26.7137C62.697 26.5681 62.4629 26.3788 62.321 26.1459C62.1933 25.913 62.1365 25.6655 62.1507 25.4034C62.1791 25.1414 62.2642 24.9085 62.4061 24.7047C62.5622 24.5009 62.7538 24.3553 62.9808 24.2679C63.2079 24.1951 63.4491 24.217 63.7045 24.3334C64.3289 24.6246 64.9036 24.8138 65.4287 24.9012C65.9679 24.9885 66.4291 25.0322 66.8122 25.0322C67.7204 25.0322 68.4016 24.8211 68.8557 24.3989C69.3098 23.9768 69.5368 23.3289 69.5368 22.4555V20.7959H69.7284C69.5155 21.4655 69.0756 22.0115 68.4087 22.4336C67.7417 22.8558 67.0038 23.0669 66.195 23.0669C65.2584 23.0669 64.4424 22.8485 63.7471 22.4118C63.0518 21.9605 62.5125 21.3345 62.1294 20.5338C61.7463 19.7186 61.5547 18.7796 61.5547 17.7169C61.5547 16.9162 61.6611 16.1883 61.874 15.5332C62.101 14.8781 62.4132 14.3176 62.8105 13.8517C63.2221 13.3859 63.7116 13.0292 64.2792 12.7817C64.8611 12.5197 65.4996 12.3887 66.195 12.3887C67.0322 12.3887 67.7701 12.5998 68.4087 13.0219C69.0614 13.4296 69.4942 13.9682 69.7071 14.6379L69.4942 15.3366V14.0919C69.4942 13.5533 69.629 13.1457 69.8987 12.8691C70.1825 12.5779 70.5798 12.4323 71.0907 12.4323C71.6015 12.4323 71.9917 12.5779 72.2614 12.8691C72.531 13.1457 72.6658 13.5533 72.6658 14.0919V22.0842C72.6658 23.8749 72.1833 25.2215 71.2184 26.1241C70.2676 27.0412 68.8911 27.4998 67.089 27.4998ZM67.1528 20.5993C67.6353 20.5993 68.0468 20.4829 68.3874 20.2499C68.7421 20.017 69.0189 19.6895 69.2175 19.2673C69.4162 18.8305 69.5155 18.3137 69.5155 17.7169C69.5155 16.8143 69.2956 16.1155 68.8557 15.6205C68.43 15.111 67.8623 14.8562 67.1528 14.8562C66.6703 14.8562 66.2517 14.9727 65.897 15.2056C65.5422 15.424 65.2655 15.7515 65.0668 16.1883C64.8823 16.6105 64.7901 17.12 64.7901 17.7169C64.7901 18.6195 65.003 19.3255 65.4287 19.835C65.8544 20.3446 66.4291 20.5993 67.1528 20.5993Z" fill="white"/>
<path d="M55.6908 23.4998C54.4152 23.4998 53.3155 23.2755 52.3918 22.827C51.4828 22.3641 50.779 21.7203 50.2805 20.8956C49.7966 20.0565 49.5547 19.0727 49.5547 17.9442C49.5547 16.8447 49.7893 15.8826 50.2585 15.0579C50.7277 14.2188 51.3801 13.5678 52.2159 13.1048C53.0663 12.6274 54.0266 12.3887 55.097 12.3887C55.874 12.3887 56.5778 12.5189 57.2083 12.7793C57.8388 13.0252 58.3813 13.3869 58.8358 13.8644C59.2903 14.3273 59.6349 14.8988 59.8695 15.5788C60.1041 16.2443 60.2214 16.9894 60.2214 17.814C60.2214 18.0889 60.1334 18.2987 59.9574 18.4434C59.7815 18.5736 59.5249 18.6387 59.1877 18.6387H52.2818V16.946H57.8241L57.4722 17.2498C57.4722 16.6566 57.3842 16.1647 57.2083 15.7741C57.0324 15.369 56.7758 15.0652 56.4385 14.8626C56.116 14.6601 55.7128 14.5588 55.2289 14.5588C54.6864 14.5588 54.2246 14.6818 53.8433 14.9277C53.4621 15.1737 53.1689 15.5281 52.9636 15.9911C52.7584 16.4541 52.6557 17.0111 52.6557 17.6621V17.8357C52.6557 18.9353 52.9123 19.7454 53.4255 20.2663C53.9533 20.7871 54.7304 21.0475 55.7567 21.0475C56.1086 21.0475 56.5118 21.0041 56.9664 20.9173C57.4209 20.8305 57.8461 20.6931 58.242 20.505C58.5792 20.3458 58.8798 20.2952 59.1437 20.3531C59.4076 20.3965 59.6129 20.5122 59.7595 20.7003C59.9061 20.8884 59.9868 21.1054 60.0014 21.3513C60.0307 21.5973 59.9794 21.8432 59.8475 22.0892C59.7155 22.3207 59.4956 22.516 59.1877 22.6751C58.6892 22.95 58.1247 23.1526 57.4942 23.2828C56.8784 23.4274 56.2773 23.4998 55.6908 23.4998Z" fill="white"/>
<path d="M39.7197 23.0556C39.1683 23.0556 38.7401 22.906 38.4354 22.6067C38.1451 22.3075 38 21.8943 38 21.3671V9.63297C38 9.07726 38.1451 8.65691 38.4354 8.37193C38.7256 8.08695 39.1465 7.94446 39.698 7.94446C40.2349 7.94446 40.6485 8.08695 40.9388 8.37193C41.229 8.65691 41.3741 9.07726 41.3741 9.63297V20.2556H47.2082C47.6726 20.2556 48.0281 20.3767 48.2748 20.619C48.5361 20.8612 48.6667 21.2032 48.6667 21.6449C48.6667 22.1009 48.5361 22.45 48.2748 22.6922C48.0281 22.9345 47.6726 23.0556 47.2082 23.0556H39.7197Z" fill="white"/>
</g>
<defs>
<clipPath id="clip0_19_79">
<rect width="152" height="30" fill="white" transform="translate(0 0.5)"/>
</clipPath>
</defs>
</svg>
