<svg width="50" height="50" viewBox="0 0 50 50" fill="none" xmlns="http://www.w3.org/2000/svg">
<path d="M0 11.1111L33.3333 0V11.1111L0 22.2222V11.1111Z" fill="#0318C8"/>
<path d="M5.55554 9.25939L16.6667 5.55554V16.6667L5.55554 20.3799V9.25939Z" fill="#3A4EFC"/>
<path d="M5.55554 9.25946L16.6667 16.6667V34.4445L5.55554 38.1578V9.25946Z" fill="#0B24FB"/>
<path d="M33.3333 11.1111V0L50 11.1111V22.2222L33.3333 11.1111Z" fill="#3A4EFC"/>
<path d="M16.6667 34.4445L33.0556 45.1852L22.2222 50L5.55554 38.1496L16.6667 34.4445Z" fill="#3A4EFC"/>
<path d="M22.2222 22.2222L50 11.1111V22.2222L38.8889 27.2222V35.5555L48.1482 31.574V38.8889L22.2222 50V22.2222Z" fill="#0B24FB"/>
<path d="M38.8889 35.5556V27.2222L48.1481 31.5741L38.8889 35.5556Z" fill="#0318C8"/>
<path d="M27.7778 31.3889L38.8889 27.2222V35.5556L27.7778 40V31.3889Z" fill="black"/>
</svg>
