<svg width="64" height="64" viewBox="0 0 64 64" fill="none" xmlns="http://www.w3.org/2000/svg">
<path d="M21.3335 16C21.8609 16 22.3765 15.8436 22.815 15.5506C23.2535 15.2576 23.5953 14.8411 23.7972 14.3538C23.999 13.8666 24.0518 13.3304 23.9489 12.8131C23.846 12.2958 23.5921 11.8207 23.2191 11.4477C22.8462 11.0748 22.371 10.8208 21.8537 10.7179C21.3365 10.615 20.8003 10.6678 20.313 10.8697C19.8257 11.0715 19.4093 11.4133 19.1162 11.8518C18.8232 12.2904 18.6668 12.8059 18.6668 13.3334C18.6668 14.0406 18.9478 14.7189 19.4479 15.219C19.948 15.7191 20.6263 16 21.3335 16ZM56.0002 50.6667L39.5202 50.6667C39.122 49.5483 38.4799 48.5325 37.6404 47.6931C36.801 46.8536 35.7852 46.2115 34.6668 45.8134L34.6668 40L45.3335 40C47.4552 40 49.4901 39.1572 50.9903 37.6569C52.4906 36.1566 53.3335 34.1217 53.3335 32L53.3335 26.6667C53.3217 24.6932 52.5809 22.7937 51.2535 21.3334C52.5809 19.873 53.3217 17.9735 53.3335 16L53.3335 10.6667C53.3335 8.54495 52.4906 6.51012 50.9903 5.00983C49.4901 3.50954 47.4552 2.66669 45.3335 2.66669L18.6668 2.66669C16.5451 2.66669 14.5103 3.50954 13.01 5.00983C11.5097 6.51012 10.6668 8.54495 10.6668 10.6667L10.6668 16C10.6786 17.9735 11.4194 19.873 12.7468 21.3334C11.4194 22.7937 10.6786 24.6932 10.6668 26.6667L10.6668 32C10.6668 34.1218 11.5097 36.1566 13.01 37.6569C14.5103 39.1572 16.5451 40 18.6668 40L29.3335 40L29.3335 45.8134C28.2151 46.2115 27.1993 46.8536 26.3599 47.6931C25.5204 48.5325 24.8783 49.5483 24.4802 50.6667L8.00016 50.6667C7.29292 50.6667 6.61464 50.9476 6.11455 51.4477C5.61445 51.9478 5.3335 52.6261 5.3335 53.3334C5.3335 54.0406 5.61445 54.7189 6.11455 55.219C6.61464 55.7191 7.29292 56 8.00016 56L24.4802 56C25.0407 57.5444 26.0632 58.8788 27.4086 59.8218C28.754 60.7648 30.3572 61.2706 32.0002 61.2706C33.6431 61.2706 35.2463 60.7648 36.5917 59.8218C37.9372 58.8788 38.9596 57.5444 39.5202 56L56.0002 56C56.7074 56 57.3857 55.7191 57.8858 55.219C58.3859 54.7189 58.6668 54.0406 58.6668 53.3333C58.6668 52.6261 58.3859 51.9478 57.8858 51.4477C57.3857 50.9476 56.7074 50.6667 56.0002 50.6667ZM16.0002 10.6667C16.0002 9.95944 16.2811 9.28117 16.7812 8.78107C17.2813 8.28097 17.9596 8.00002 18.6668 8.00002L45.3335 8.00002C46.0407 8.00002 46.719 8.28097 47.2191 8.78107C47.7192 9.28116 48.0002 9.95944 48.0002 10.6667L48.0002 16C48.0002 16.7073 47.7192 17.3855 47.2191 17.8856C46.719 18.3857 46.0407 18.6667 45.3335 18.6667L18.6668 18.6667C17.9596 18.6667 17.2813 18.3857 16.7812 17.8856C16.2811 17.3855 16.0002 16.7073 16.0002 16L16.0002 10.6667ZM18.6668 34.6667C17.9596 34.6667 17.2813 34.3857 16.7812 33.8856C16.2811 33.3855 16.0002 32.7073 16.0002 32L16.0002 26.6667C16.0002 25.9594 16.2811 25.2812 16.7812 24.7811C17.2813 24.281 17.9596 24 18.6668 24L45.3335 24C46.0407 24 46.719 24.281 47.2191 24.7811C47.7192 25.2812 48.0002 25.9594 48.0002 26.6667L48.0002 32C48.0002 32.7073 47.7192 33.3855 47.2191 33.8856C46.719 34.3857 46.0407 34.6667 45.3335 34.6667L18.6668 34.6667ZM32.0002 56C31.4727 56 30.9572 55.8436 30.5186 55.5506C30.0801 55.2576 29.7383 54.8411 29.5365 54.3538C29.3347 53.8666 29.2818 53.3304 29.3847 52.8131C29.4876 52.2958 29.7416 51.8207 30.1145 51.4477C30.4875 51.0748 30.9626 50.8208 31.4799 50.7179C31.9972 50.615 32.5334 50.6678 33.0207 50.8697C33.5079 51.0715 33.9244 51.4133 34.2174 51.8518C34.5104 52.2904 34.6668 52.8059 34.6668 53.3333C34.6668 54.0406 34.3859 54.7189 33.8858 55.219C33.3857 55.7191 32.7074 56 32.0002 56ZM21.3335 26.6667C20.8061 26.6667 20.2905 26.8231 19.852 27.1161C19.4134 27.4091 19.0717 27.8256 18.8698 28.3129C18.668 28.8001 18.6152 29.3363 18.7181 29.8536C18.821 30.3709 19.0749 30.846 19.4479 31.219C19.8208 31.5919 20.296 31.8459 20.8133 31.9488C21.3305 32.0517 21.8667 31.9989 22.354 31.797C22.8413 31.5952 23.2577 31.2534 23.5507 30.8149C23.8438 30.3763 24.0002 29.8608 24.0002 29.3334C24.0002 28.6261 23.7192 27.9478 23.2191 27.4477C22.719 26.9476 22.0407 26.6667 21.3335 26.6667V26.6667Z" fill="#533594"/>
</svg>
