<svg width="435" height="372" viewBox="0 0 435 372" fill="none" xmlns="http://www.w3.org/2000/svg">
<path d="M293.593 339.317L190.239 323.429L159.755 339.585C159.706 339.646 159.603 339.671 159.526 339.649L74.6225 324.114L4.86112 351.626C4.7986 351.702 4.71114 351.722 4.62458 351.697C4.58581 351.694 4.54614 351.688 4.50129 351.662L4.52995 351.654L4.45724 351.612L4.45366 351.607M64.9942 170.984L140.09 86.9346L140.096 86.9257C140.103 86.9062 140.112 86.8876 140.122 86.8716C140.125 86.8667 140.128 86.862 140.131 86.8577C140.135 86.8526 140.139 86.8479 140.143 86.8437C140.221 86.792 140.307 86.7689 140.408 86.8032L183.279 103.994C183.359 104.04 183.426 104.131 183.439 104.223L209.046 171.226L279.142 97.7614C279.213 97.6928 279.301 97.6644 279.383 97.6825C279.391 97.6832 279.4 97.6844 279.408 97.6858C279.421 97.6881 279.434 97.6911 279.447 97.6949L375.537 135.53L431.499 93.509C431.505 93.4976 431.513 93.4871 431.521 93.4782C431.525 93.4713 431.53 93.4649 431.536 93.4589C431.539 93.4557 431.542 93.4526 431.546 93.4497L431.55 93.4464L431.553 93.4438L431.558 93.4405C431.572 93.4309 431.588 93.4231 431.605 93.4168C431.613 93.4121 431.62 93.408 431.628 93.4045C431.632 93.4026 431.636 93.4009 431.64 93.3994C431.649 93.3962 431.658 93.394 431.667 93.3929L431.673 93.3921L431.679 93.3914L431.685 93.3907C431.691 93.3902 431.697 93.3899 431.702 93.3897C431.712 93.3894 431.722 93.3896 431.732 93.3903L431.74 93.3911L431.751 93.3924L431.76 93.3938L431.765 93.3948L431.774 93.3966M294.318 338.317L304.322 252.865L304.336 252.865L304.341 252.868M390.733 183.41L304.898 252.295M431.535 94.717L391.552 182.557M49.5059 265.15L64.6994 171.977M49.2613 265.732L4.62815 350.9M132.27 236.279L172.396 237.343L159.479 337.979L132.27 236.279ZM50.0943 265.567L131.266 236.51L74.6478 323.288L50.0943 265.567ZM172.579 236.794L208.052 172.799L132.66 235.735L172.579 236.794ZM131.785 235.75L155.071 209.338L52.9703 263.976L131.744 235.78C131.751 235.773 131.758 235.767 131.765 235.762C131.772 235.758 131.778 235.754 131.785 235.75ZM390.242 183.094L304.17 252.18L277.439 199.458L390.242 183.094ZM276.279 199.243L209.075 172.043L173.302 236.571L276.279 199.243ZM183.24 105.11L208.65 171.59L156.658 207.807L183.24 105.11ZM375.404 136.244L390.848 182.469L278.202 198.808L375.404 136.244ZM375.881 135.923L431.051 94.4875L391.238 181.962L375.871 135.941L375.881 135.923ZM374.981 135.888L277.321 198.749L279.587 98.3332L279.582 98.3122L279.582 98.3055L374.981 135.888ZM279.063 98.6122L209.422 171.602L276.788 198.864L279.063 98.6122ZM182.864 104.409L140.632 87.4654L156.306 207.061L182.864 104.409ZM140.129 87.6634L65.5442 171.149L155.898 208.001L140.129 87.6634ZM173.966 236.936L276.932 199.6L303.625 252.261L173.966 236.936ZM204.186 175.341L156.38 208.665L134.467 233.527L204.186 175.341ZM65.295 171.634L155.586 208.474L50.0702 264.936L65.295 171.634ZM293.732 338.808L190.942 323.01L303.76 253.13L293.732 338.808ZM173.051 237.383L303.275 252.782L190.366 322.726L173.051 237.383ZM159.909 338.901L172.784 238.688L189.893 323.014L159.909 338.901ZM5.2231 350.915L49.7097 266.057L74.2247 323.696L5.2231 350.915ZM75.021 323.648L131.808 236.621L159.214 339.056L75.021 323.648Z" stroke="#533594" stroke-width="2"/>
<path d="M293.593 339.317L190.239 323.429L159.755 339.585C159.706 339.646 159.603 339.671 159.526 339.649L74.6225 324.114L4.86112 351.626C4.7986 351.702 4.71114 351.722 4.62458 351.697C4.58581 351.694 4.54614 351.688 4.50129 351.662L4.52995 351.654L4.45724 351.612L4.45366 351.607M64.9942 170.984L140.09 86.9346L140.096 86.9257C140.103 86.9062 140.112 86.8876 140.122 86.8716C140.125 86.8667 140.128 86.862 140.131 86.8577C140.135 86.8526 140.139 86.8479 140.143 86.8437C140.221 86.792 140.307 86.7689 140.408 86.8032L183.279 103.994C183.359 104.04 183.426 104.131 183.439 104.223L209.046 171.226L279.142 97.7614C279.213 97.6928 279.301 97.6644 279.383 97.6825C279.391 97.6832 279.4 97.6844 279.408 97.6858C279.421 97.6881 279.434 97.6911 279.447 97.6949L375.537 135.53L431.499 93.509C431.505 93.4976 431.513 93.4871 431.521 93.4782C431.525 93.4713 431.53 93.4649 431.536 93.4589C431.539 93.4557 431.542 93.4526 431.546 93.4497L431.55 93.4464L431.553 93.4438L431.558 93.4405C431.572 93.4309 431.588 93.4231 431.605 93.4168C431.613 93.4121 431.62 93.408 431.628 93.4045C431.632 93.4026 431.636 93.4009 431.64 93.3994C431.649 93.3962 431.658 93.394 431.667 93.3929L431.673 93.3921L431.679 93.3914L431.685 93.3907C431.691 93.3902 431.697 93.3899 431.702 93.3897C431.712 93.3894 431.722 93.3896 431.732 93.3903L431.74 93.3911L431.751 93.3924L431.76 93.3938L431.765 93.3948L431.774 93.3966M294.318 338.317L304.322 252.865L304.336 252.865L304.341 252.868M390.733 183.41L304.898 252.295M431.535 94.717L391.552 182.557M49.5059 265.15L64.6994 171.977M49.2613 265.732L4.62815 350.9M132.27 236.279L172.396 237.343L159.479 337.979L132.27 236.279ZM50.0943 265.567L131.266 236.51L74.6478 323.288L50.0943 265.567ZM172.579 236.794L208.052 172.799L132.66 235.735L172.579 236.794ZM131.785 235.75L155.071 209.338L52.9703 263.976L131.744 235.78C131.751 235.773 131.758 235.767 131.765 235.762C131.772 235.758 131.778 235.754 131.785 235.75ZM390.242 183.094L304.17 252.18L277.439 199.458L390.242 183.094ZM276.279 199.243L209.075 172.043L173.302 236.571L276.279 199.243ZM183.24 105.11L208.65 171.59L156.658 207.807L183.24 105.11ZM375.404 136.244L390.848 182.469L278.202 198.808L375.404 136.244ZM375.881 135.923L431.051 94.4875L391.238 181.962L375.871 135.941L375.881 135.923ZM374.981 135.888L277.321 198.749L279.587 98.3332L279.582 98.3122L279.582 98.3055L374.981 135.888ZM279.063 98.6122L209.422 171.602L276.788 198.864L279.063 98.6122ZM182.864 104.409L140.632 87.4654L156.306 207.061L182.864 104.409ZM140.129 87.6634L65.5442 171.149L155.898 208.001L140.129 87.6634ZM173.966 236.936L276.932 199.6L303.625 252.261L173.966 236.936ZM204.186 175.341L156.38 208.665L134.467 233.527L204.186 175.341ZM65.295 171.634L155.586 208.474L50.0702 264.936L65.295 171.634ZM293.732 338.808L190.942 323.01L303.76 253.13L293.732 338.808ZM173.051 237.383L303.275 252.782L190.366 322.726L173.051 237.383ZM159.909 338.901L172.784 238.688L189.893 323.014L159.909 338.901ZM5.2231 350.915L49.7097 266.057L74.2247 323.696L5.2231 350.915ZM75.021 323.648L131.808 236.621L159.214 339.056L75.021 323.648Z" stroke="white" stroke-opacity="0.45" stroke-width="2"/>
<path d="M138.818 89.6412C140.243 90.464 142.066 89.9754 142.888 88.55C143.711 87.1246 143.223 85.3021 141.798 84.4793C140.373 83.6565 138.551 84.145 137.728 85.5704C136.905 86.9958 137.393 88.8184 138.818 89.6412Z" fill="white"/>
<path d="M184.782 101.517C183.273 100.646 181.335 101.15 180.453 102.677C179.572 104.204 180.086 106.124 181.612 107.006C183.139 107.887 185.06 107.372 185.941 105.845C186.822 104.319 186.308 102.398 184.782 101.517Z" fill="white"/>
<path d="M281.354 94.4337C279.41 93.3111 276.944 93.9719 275.821 95.9167C274.699 97.8615 275.359 100.327 277.303 101.449C279.248 102.572 281.713 101.911 282.836 99.9664C283.959 98.0216 283.298 95.5563 281.354 94.4337Z" fill="white"/>
<path d="M373.552 139.328C375.479 140.44 377.943 139.78 379.056 137.853C380.169 135.925 379.509 133.461 377.582 132.348C375.655 131.236 373.191 131.896 372.078 133.824C370.965 135.751 371.625 138.215 373.552 139.328Z" fill="white"/>
<path d="M279.544 194.93C277.164 193.555 274.125 194.37 272.75 196.751C271.376 199.132 272.19 202.171 274.57 203.545C276.951 204.919 279.989 204.105 281.364 201.724C282.738 199.343 281.925 196.304 279.544 194.93Z" fill="white"/>
<path d="M434.052 95.012C434.797 93.7215 434.359 92.0875 433.069 91.3426C431.779 90.5977 430.145 91.0357 429.4 92.3261C428.655 93.6166 429.093 95.2506 430.383 95.9955C431.673 96.7404 433.307 96.3024 434.052 95.012Z" fill="white"/>
<path d="M67.5614 166.982C65.199 165.618 62.1892 166.425 60.825 168.788C59.4608 171.15 60.267 174.16 62.6294 175.524C64.9917 176.888 68.0016 176.081 69.3658 173.719C70.73 171.356 69.9237 168.346 67.5614 166.982Z" fill="white"/>
<path d="M158.271 204.885C156.309 203.752 153.815 204.421 152.681 206.384C151.548 208.347 152.216 210.841 154.179 211.974C156.141 213.107 158.635 212.438 159.768 210.475C160.902 208.512 160.234 206.018 158.271 204.885Z" fill="white"/>
<path d="M213.353 174.235C214.759 171.8 213.93 168.704 211.495 167.298C209.06 165.892 205.964 166.722 204.558 169.158C203.152 171.593 203.981 174.689 206.416 176.095C208.851 177.501 211.947 176.671 213.353 174.235Z" fill="white"/>
<path d="M389.004 186.466C391.094 187.673 393.76 186.958 394.967 184.868C396.173 182.778 395.459 180.112 393.37 178.905C391.28 177.699 388.614 178.413 387.407 180.503C386.2 182.594 386.914 185.26 389.004 186.466Z" fill="white"/>
<path d="M8.31893 353.526C9.48373 351.509 8.79264 348.929 6.77556 347.764C4.75848 346.6 2.17864 347.291 1.01384 349.309C-0.150958 351.326 0.540035 353.906 2.55712 355.071C4.5742 356.235 7.15413 355.544 8.31893 353.526Z" fill="white"/>
<path d="M48.078 268.252C49.6537 269.162 51.6686 268.622 52.5785 267.046C53.4884 265.47 52.9487 263.455 51.373 262.545C49.7974 261.635 47.7824 262.175 46.8725 263.751C45.9626 265.327 46.5024 267.342 48.078 268.252Z" fill="white"/>
<path d="M130.367 238.697C131.857 239.557 133.777 239.042 134.638 237.552C135.498 236.062 134.984 234.141 133.494 233.281C132.004 232.42 130.083 232.935 129.223 234.425C128.362 235.916 128.877 237.837 130.367 238.697Z" fill="white"/>
<path d="M174.858 238.308C175.541 237.127 175.123 235.626 173.96 234.954C172.797 234.283 171.278 234.69 170.606 235.853C169.935 237.016 170.342 238.536 171.505 239.207C172.668 239.879 174.187 239.471 174.858 238.308Z" fill="white"/>
<path d="M162.541 341.098C163.486 339.463 162.925 337.37 161.29 336.426C159.654 335.481 157.562 336.042 156.617 337.678C155.673 339.314 156.233 341.407 157.869 342.351C159.504 343.295 161.597 342.734 162.541 341.098Z" fill="white"/>
<path d="M314.219 259.207C315.795 260.117 317.81 259.577 318.72 258.001C319.629 256.425 319.09 254.41 317.514 253.5C315.938 252.59 313.924 253.13 313.014 254.706C312.104 256.282 312.643 258.297 314.219 259.207Z" fill="white"/>
<path d="M218.04 107.928C219.616 108.838 221.63 108.298 222.54 106.722C223.45 105.146 222.911 103.131 221.335 102.221C219.759 101.312 217.744 101.852 216.834 103.428C215.925 105.004 216.464 107.019 218.04 107.928Z" fill="white"/>
<path d="M73.2838 326.111C74.5377 326.835 76.1429 326.404 76.867 325.15C77.5911 323.896 77.1611 322.291 75.9072 321.567C74.6534 320.843 73.0481 321.273 72.324 322.527C71.6 323.781 72.03 325.387 73.2838 326.111Z" fill="white"/>
<path d="M187.88 327.132C190.078 328.401 192.889 327.647 194.158 325.449C195.427 323.251 194.674 320.44 192.476 319.171C190.278 317.902 187.468 318.655 186.198 320.854C184.929 323.052 185.682 325.863 187.88 327.132Z" fill="white"/>
<path d="M296.563 334.577C294.073 333.14 290.891 333.993 289.454 336.483C288.016 338.973 288.868 342.155 291.358 343.592C293.847 345.03 297.029 344.177 298.467 341.687C299.905 339.197 299.052 336.015 296.563 334.577Z" fill="white"/>
<rect x="141.208" y="125.617" width="169.287" height="169.287" rx="84.6435" fill="white"/>
<g clip-path="url(#clip0_383_1805)">
<path d="M192.596 188.048C195.319 181.569 201.743 177.344 208.869 177.344L224.013 177.344L197.883 239.508C196.949 241.729 194.747 243.178 192.304 243.178L169.423 243.178L192.596 188.048Z" fill="url(#paint0_linear_383_1805)"/>
<path d="M234.607 188.048C237.331 181.569 243.754 177.344 250.88 177.344L266.024 177.344L239.895 239.508C238.961 241.729 236.759 243.178 234.315 243.178L211.434 243.178L234.607 188.048Z" fill="url(#paint1_linear_383_1805)"/>
<path d="M254.309 241.125L264.265 217.438C277.087 217.438 285.796 230.253 280.896 241.91L280.364 243.178L255.704 243.178C254.628 243.178 253.898 242.103 254.309 241.125Z" fill="url(#paint2_linear_383_1805)"/>
</g>
<defs>
<linearGradient id="paint0_linear_383_1805" x1="192.19" y1="177.344" x2="281.269" y2="247.431" gradientUnits="userSpaceOnUse">
<stop stop-color="#6047F3"/>
<stop offset="1" stop-color="#8D5AFA"/>
</linearGradient>
<linearGradient id="paint1_linear_383_1805" x1="192.19" y1="177.344" x2="281.269" y2="247.431" gradientUnits="userSpaceOnUse">
<stop stop-color="#6047F3"/>
<stop offset="1" stop-color="#8D5AFA"/>
</linearGradient>
<linearGradient id="paint2_linear_383_1805" x1="192.19" y1="177.344" x2="281.269" y2="247.431" gradientUnits="userSpaceOnUse">
<stop stop-color="#6047F3"/>
<stop offset="1" stop-color="#8D5AFA"/>
</linearGradient>
<clipPath id="clip0_383_1805">
<rect width="112.858" height="112.858" fill="white" transform="translate(169.423 153.832)"/>
</clipPath>
</defs>
</svg>
