<svg width="72" height="72" viewBox="0 0 72 72" fill="none" xmlns="http://www.w3.org/2000/svg">
<path d="M62.25 24.0758C59.4375 21.4789 55.5469 17.5133 52.3781 14.7008L52.1906 14.5695C51.8787 14.319 51.5269 14.1226 51.15 13.9883C43.5094 12.5633 7.95 5.91642 7.25625 6.0008C7.06186 6.02802 6.87605 6.0985 6.7125 6.20705L6.53437 6.34767C6.31504 6.57042 6.14845 6.83952 6.04688 7.13517L6 7.25705V7.92267V8.0258C10.0031 19.1727 25.8094 55.6883 28.9219 64.257C29.1094 64.8383 29.4656 65.9445 30.1313 66.0008H30.2813C30.6375 66.0008 32.1563 63.9945 32.1563 63.9945C32.1563 63.9945 59.3063 31.0695 62.0531 27.5633C62.4087 27.1314 62.7226 26.6668 62.9906 26.1758C63.059 25.7916 63.0268 25.3962 62.897 25.0282C62.7672 24.6602 62.5443 24.3321 62.25 24.0758ZM39.1219 27.9102L50.7094 18.3008L57.5063 24.5633L39.1219 27.9102ZM34.6219 27.282L14.6719 10.932L46.95 16.8852L34.6219 27.282ZM36.4219 31.5664L56.8406 28.2758L33.4969 56.4008L36.4219 31.5664ZM11.9625 12.5633L32.9531 30.3758L29.9156 56.4195L11.9625 12.5633Z" fill="#533594"/>
<path d="M62.25 24.0758C59.4375 21.4789 55.5469 17.5133 52.3781 14.7008L52.1906 14.5695C51.8787 14.319 51.5269 14.1226 51.15 13.9883C43.5094 12.5633 7.95 5.91642 7.25625 6.0008C7.06186 6.02802 6.87605 6.0985 6.7125 6.20705L6.53437 6.34767C6.31504 6.57042 6.14845 6.83952 6.04688 7.13517L6 7.25705V7.92267V8.0258C10.0031 19.1727 25.8094 55.6883 28.9219 64.257C29.1094 64.8383 29.4656 65.9445 30.1313 66.0008H30.2813C30.6375 66.0008 32.1563 63.9945 32.1563 63.9945C32.1563 63.9945 59.3063 31.0695 62.0531 27.5633C62.4087 27.1314 62.7226 26.6668 62.9906 26.1758C63.059 25.7916 63.0268 25.3962 62.897 25.0282C62.7672 24.6602 62.5443 24.3321 62.25 24.0758ZM39.1219 27.9102L50.7094 18.3008L57.5063 24.5633L39.1219 27.9102ZM34.6219 27.282L14.6719 10.932L46.95 16.8852L34.6219 27.282ZM36.4219 31.5664L56.8406 28.2758L33.4969 56.4008L36.4219 31.5664ZM11.9625 12.5633L32.9531 30.3758L29.9156 56.4195L11.9625 12.5633Z" fill="white" fill-opacity="0.2"/>
</svg>
