<svg width="33" height="33" viewBox="0 0 33 33" fill="none" xmlns="http://www.w3.org/2000/svg">
<g clip-path="url(#clip0_269_1369)">
<path d="M9.00003 8.25L21.3 24.75H24.1501L11.85 8.25H9.00003Z" fill="#040404"/>
<path d="M16.5 0C7.34999 0 0 7.34999 0 16.5C0 25.6499 7.34999 33 16.5 33C25.6499 33 33 25.6499 33 16.5C33 7.34999 25.6499 0 16.5 0ZM20.6999 26.1L15.15 18.6L8.25 26.1H6.3L14.2499 17.5499L6.3 7.05H12.45L17.5499 13.9501L23.9999 6.9H25.7999L18.45 14.85L26.85 25.95H20.6999V26.1Z" fill="white" fill-opacity="0.6"/>
</g>
<defs>
<clipPath id="clip0_269_1369">
<rect width="33" height="33" fill="white"/>
</clipPath>
</defs>
</svg>
