<svg width="64" height="65" viewBox="0 0 64 65" fill="none" xmlns="http://www.w3.org/2000/svg">
<path d="M50.6665 29.8333L34.6665 29.8333L34.6665 13.8333C34.6665 13.1261 34.3856 12.4478 33.8855 11.9477C33.3854 11.4476 32.7071 11.1667 31.9998 11.1667C31.2926 11.1667 30.6143 11.4476 30.1142 11.9477C29.6141 12.4478 29.3332 13.1261 29.3332 13.8333L29.3332 29.8333L13.3332 29.8333C12.6259 29.8333 11.9477 30.1143 11.4476 30.6144C10.9475 31.1145 10.6665 31.7928 10.6665 32.5C10.6665 33.2072 10.9475 33.8855 11.4476 34.3856C11.9477 34.8857 12.6259 35.1667 13.3332 35.1667L29.3332 35.1667L29.3332 51.1667C29.3332 51.8739 29.6141 52.5522 30.1142 53.0523C30.6143 53.5524 31.2926 53.8333 31.9998 53.8333C32.7071 53.8333 33.3854 53.5524 33.8855 53.0523C34.3856 52.5522 34.6665 51.8739 34.6665 51.1667L34.6665 35.1667L50.6665 35.1667C51.3737 35.1667 52.052 34.8857 52.5521 34.3856C53.0522 33.8855 53.3332 33.2072 53.3332 32.5C53.3332 31.7928 53.0522 31.1145 52.5521 30.6144C52.052 30.1143 51.3737 29.8333 50.6665 29.8333Z" fill="#533594"/>
</svg>
