<svg width="64" height="65" viewBox="0 0 64 65" fill="none" xmlns="http://www.w3.org/2000/svg">
<path d="M50.667 29.8333L34.667 29.8333L34.667 13.8333C34.667 13.1261 34.386 12.4478 33.8859 11.9477C33.3858 11.4476 32.7076 11.1667 32.0003 11.1667C31.2931 11.1667 30.6148 11.4476 30.1147 11.9477C29.6146 12.4478 29.3337 13.1261 29.3337 13.8333L29.3337 29.8333L13.3337 29.8333C12.6264 29.8333 11.9481 30.1143 11.448 30.6144C10.9479 31.1145 10.667 31.7928 10.667 32.5C10.667 33.2072 10.9479 33.8855 11.448 34.3856C11.9481 34.8857 12.6264 35.1667 13.3337 35.1667L29.3337 35.1667L29.3337 51.1667C29.3337 51.8739 29.6146 52.5522 30.1147 53.0523C30.6148 53.5524 31.2931 53.8333 32.0003 53.8333C32.7076 53.8333 33.3858 53.5524 33.8859 53.0523C34.386 52.5522 34.667 51.8739 34.667 51.1667L34.667 35.1667L50.667 35.1667C51.3742 35.1667 52.0525 34.8857 52.5526 34.3856C53.0527 33.8855 53.3337 33.2072 53.3337 32.5C53.3337 31.7928 53.0527 31.1145 52.5526 30.6144C52.0525 30.1143 51.3742 29.8333 50.667 29.8333Z" fill="#533594"/>
<path d="M50.667 29.8333L34.667 29.8333L34.667 13.8333C34.667 13.1261 34.386 12.4478 33.8859 11.9477C33.3858 11.4476 32.7076 11.1667 32.0003 11.1667C31.2931 11.1667 30.6148 11.4476 30.1147 11.9477C29.6146 12.4478 29.3337 13.1261 29.3337 13.8333L29.3337 29.8333L13.3337 29.8333C12.6264 29.8333 11.9481 30.1143 11.448 30.6144C10.9479 31.1145 10.667 31.7928 10.667 32.5C10.667 33.2072 10.9479 33.8855 11.448 34.3856C11.9481 34.8857 12.6264 35.1667 13.3337 35.1667L29.3337 35.1667L29.3337 51.1667C29.3337 51.8739 29.6146 52.5522 30.1147 53.0523C30.6148 53.5524 31.2931 53.8333 32.0003 53.8333C32.7076 53.8333 33.3858 53.5524 33.8859 53.0523C34.386 52.5522 34.667 51.8739 34.667 51.1667L34.667 35.1667L50.667 35.1667C51.3742 35.1667 52.0525 34.8857 52.5526 34.3856C53.0527 33.8855 53.3337 33.2072 53.3337 32.5C53.3337 31.7928 53.0527 31.1145 52.5526 30.6144C52.0525 30.1143 51.3742 29.8333 50.667 29.8333Z" fill="white" fill-opacity="0.9"/>
</svg>
