<svg width="72" height="72" viewBox="0 0 72 72" fill="none" xmlns="http://www.w3.org/2000/svg">
<path d="M36 66C52.6251 66 66 52.6251 66 36C66 19.3749 52.6251 6 36 6C19.3749 6 6 19.3749 6 36C6 52.6251 19.3749 66 36 66Z" fill="#533594"/>
<path d="M36 66C52.6251 66 66 52.6251 66 36C66 19.3749 52.6251 6 36 6C19.3749 6 6 19.3749 6 36C6 52.6251 19.3749 66 36 66Z" fill="white" fill-opacity="0.2"/>
<path d="M44.2499 40.7497C44.2499 36.3748 41.6249 34.8748 36.3749 34.2499C32.6249 33.7498 31.8749 32.7499 31.8749 30.9997C31.8749 29.2495 33.125 28.1248 35.6249 28.1248C37.8749 28.1248 39.125 28.8748 39.7499 30.7498C39.875 31.1248 40.25 31.3747 40.625 31.3747H42.6248C43.1249 31.3747 43.4999 30.9997 43.4999 30.4999V30.3748C42.9998 27.6247 40.7498 25.4998 37.8749 25.2499V22.2499C37.8749 21.7498 37.4999 21.3748 36.875 21.2497H35C34.4999 21.2497 34.1249 21.6247 33.9998 22.2499V25.1248C30.2498 25.6249 27.875 28.1248 27.875 31.2499C27.875 35.3749 30.3749 36.9997 35.6249 37.6249C39.125 38.2498 40.25 38.9998 40.25 40.9999C40.25 43 38.4998 44.3749 36.125 44.3749C32.8748 44.3749 31.7498 42.9997 31.3748 41.1247C31.25 40.6249 30.875 40.3747 30.5 40.3747H28.3748C27.875 40.3747 27.5 40.7497 27.5 41.2498V41.3749C27.9998 44.4997 29.9999 46.7497 34.1249 47.3749V50.3749C34.1249 50.8747 34.4999 51.2497 35.1248 51.3748H36.9998C37.4999 51.3748 37.8749 50.9998 38 50.3749V47.3749C41.75 46.7497 44.2499 44.1247 44.2499 40.7497Z" fill="white"/>
<path d="M29.6245 53.8755C19.8745 50.3757 14.8744 39.5007 18.4996 29.8755C20.3746 24.6255 24.4996 20.6256 29.6245 18.7506C30.1246 18.5007 30.3745 18.1257 30.3745 17.5005V15.7506C30.3745 15.2505 30.1246 14.8755 29.6245 14.7507C29.4994 14.7507 29.2495 14.7507 29.1244 14.8755C17.2495 18.6255 10.7494 31.2507 14.4994 43.1256C16.7494 50.1255 22.1245 55.5006 29.1244 57.7506C29.6245 58.0005 30.1246 57.7506 30.2494 57.2505C30.3745 57.1257 30.3745 57.0006 30.3745 56.7507V55.0005C30.3745 54.6255 29.9995 54.1257 29.6245 53.8755ZM42.8746 14.8755C42.3745 14.6256 41.8744 14.8755 41.7496 15.3756C41.6245 15.5007 41.6245 15.6255 41.6245 15.8757V17.6256C41.6245 18.1257 41.9995 18.6255 42.3745 18.8757C52.1245 22.3755 57.1246 33.2505 53.4994 42.8757C51.6244 48.1257 47.4994 52.1256 42.3745 54.0006C41.8744 54.2505 41.6245 54.6255 41.6245 55.2507V57.0006C41.6245 57.5007 41.8744 57.8757 42.3745 58.0005C42.4996 58.0005 42.7495 58.0005 42.8746 57.8757C54.7495 54.1257 61.2496 41.5005 57.4996 29.6256C55.2496 22.5006 49.7494 17.1255 42.8746 14.8755Z" fill="white"/>
</svg>
