<svg width="72" height="72" viewBox="0 0 72 72" fill="none" xmlns="http://www.w3.org/2000/svg">
<path fill-rule="evenodd" clip-rule="evenodd" d="M16.9854 9.25389L6.04498 32.0135C6.00335 32.0981 5.99015 32.1937 6.00733 32.2864C6.0245 32.379 6.07115 32.4637 6.14044 32.5282L35.688 60.5697C35.7719 60.6495 35.8837 60.694 36 60.694C36.1163 60.694 36.2281 60.6495 36.312 60.5697L65.8596 32.5299C65.9289 32.4655 65.9755 32.3807 65.9927 32.2881C66.0098 32.1955 65.9967 32.0999 65.955 32.0152L55.0146 9.25564C54.9793 9.17921 54.9225 9.11445 54.851 9.06913C54.7795 9.0238 54.6964 8.99981 54.6115 9.00003H17.392C17.3067 8.99898 17.223 9.02239 17.1508 9.06744C17.0787 9.11248 17.0213 9.17724 16.9854 9.25389Z" fill="#533594"/>
<path fill-rule="evenodd" clip-rule="evenodd" d="M16.9854 9.25389L6.04498 32.0135C6.00335 32.0981 5.99015 32.1937 6.00733 32.2864C6.0245 32.379 6.07115 32.4637 6.14044 32.5282L35.688 60.5697C35.7719 60.6495 35.8837 60.694 36 60.694C36.1163 60.694 36.2281 60.6495 36.312 60.5697L65.8596 32.5299C65.9289 32.4655 65.9755 32.3807 65.9927 32.2881C66.0098 32.1955 65.9967 32.0999 65.955 32.0152L55.0146 9.25564C54.9793 9.17921 54.9225 9.11445 54.851 9.06913C54.7795 9.0238 54.6964 8.99981 54.6115 9.00003H17.392C17.3067 8.99898 17.223 9.02239 17.1508 9.06744C17.0787 9.11248 17.0213 9.17724 16.9854 9.25389Z" fill="white" fill-opacity="0.2"/>
<path fill-rule="evenodd" clip-rule="evenodd" d="M39.7953 34.3506C39.5832 34.3663 38.4872 34.4311 36.0424 34.4311C34.0979 34.4311 32.7174 34.3733 32.233 34.3506C24.7184 34.0232 19.1094 32.7276 19.1094 31.1765C19.1094 29.6253 24.7184 28.3315 32.233 27.9989V33.0603C32.7244 33.0953 34.1315 33.1776 36.076 33.1776C38.4094 33.1776 39.5779 33.0813 39.7883 33.062V28.0024C47.287 28.3333 52.8836 29.6288 52.8836 31.1765C52.8836 32.7241 47.2887 34.0197 39.7883 34.3488L39.7953 34.3506ZM39.7953 27.4789V22.9498H50.2603V16.0431H21.768V22.9498H32.2312V27.4772C23.7267 27.8641 17.3311 29.5325 17.3311 31.5319C17.3311 33.5312 23.7267 35.1979 32.2312 35.5866V50.1002H39.7936V35.5813C48.2787 35.1944 54.6637 33.5277 54.6637 31.5301C54.6637 29.5325 48.284 27.8658 39.7936 27.4772L39.7953 27.4789Z" fill="white"/>
</svg>
