<svg width="64" height="64" viewBox="0 0 64 64" fill="none" xmlns="http://www.w3.org/2000/svg">
<path d="M50.6668 18.6667L48.0002 18.6667L48.0002 16C48.0002 13.8783 47.1573 11.8434 45.657 10.3431C44.1567 8.84285 42.1219 8 40.0002 8L13.3335 8C11.2118 8 9.17693 8.84285 7.67664 10.3431C6.17635 11.8434 5.3335 13.8783 5.3335 16V16L5.3335 48C5.3335 50.1217 6.17635 52.1566 7.67664 53.6569C9.17693 55.1571 11.2118 56 13.3335 56L50.6668 56C52.7886 56 54.8234 55.1571 56.3237 53.6569C57.824 52.1566 58.6668 50.1217 58.6668 48L58.6668 26.6667C58.6668 24.5449 57.824 22.5101 56.3237 21.0098C54.8234 19.5095 52.7886 18.6667 50.6668 18.6667ZM13.3335 13.3333L40.0002 13.3333C40.7074 13.3333 41.3857 13.6143 41.8858 14.1144C42.3859 14.6145 42.6668 15.2928 42.6668 16L42.6668 18.6667L13.3335 18.6667C12.6263 18.6667 11.948 18.3857 11.4479 17.8856C10.9478 17.3855 10.6668 16.7072 10.6668 16C10.6668 15.2928 10.9478 14.6145 11.4479 14.1144C11.948 13.6143 12.6263 13.3333 13.3335 13.3333V13.3333ZM53.3335 40L50.6668 40C49.9596 40 49.2813 39.719 48.7812 39.219C48.2811 38.7189 48.0002 38.0406 48.0002 37.3333C48.0002 36.6261 48.2811 35.9478 48.7812 35.4477C49.2813 34.9476 49.9596 34.6667 50.6668 34.6667L53.3335 34.6667L53.3335 40ZM53.3335 29.3333L50.6668 29.3333C48.5451 29.3333 46.5103 30.1762 45.01 31.6765C43.5097 33.1768 42.6668 35.2116 42.6668 37.3333C42.6668 39.4551 43.5097 41.4899 45.01 42.9902C46.5103 44.4905 48.5451 45.3333 50.6668 45.3333L53.3335 45.3333L53.3335 48C53.3335 48.7072 53.0525 49.3855 52.5524 49.8856C52.0524 50.3857 51.3741 50.6667 50.6668 50.6667L13.3335 50.6667C12.6263 50.6667 11.948 50.3857 11.4479 49.8856C10.9478 49.3855 10.6668 48.7072 10.6668 48L10.6668 23.5467C11.5235 23.848 12.4253 24.0013 13.3335 24L50.6668 24C51.3741 24 52.0524 24.281 52.5524 24.781C53.0525 25.2811 53.3335 25.9594 53.3335 26.6667L53.3335 29.3333Z" fill="#533594"/>
</svg>
